ZillaSlabHighlight-Bold.ufo
<glyph name="percent" format="1">
  <advance width="738"/>
  <unicode hex="0025"/>
  <outline>
    <contour>
      <point x="501" y="521" type="line"/>
      <point x="332" y="285" type="line"/>
      <point x="97" y="0" type="line"/>
      <point x="231" y="0" type="line"/>
      <point x="426" y="259" type="line"/>
      <point x="635" y="521" type="line"/>
    </contour>
    <contour>
      <point x="184" y="240" type="curve" smooth="yes"/>
      <point x="286" y="240"/>
      <point x="342" y="304"/>
      <point x="342" y="387" type="curve" smooth="yes"/>
      <point x="342" y="466"/>
      <point x="290" y="531"/>
      <point x="188" y="531" type="curve" smooth="yes"/>
      <point x="86" y="531"/>
      <point x="27" y="467"/>
      <point x="27" y="384" type="curve" smooth="yes"/>
      <point x="27" y="303"/>
      <point x="82" y="240"/>
    </contour>
    <contour>
      <point x="184" y="322" type="curve" smooth="yes"/>
      <point x="155" y="322"/>
      <point x="131" y="338"/>
      <point x="131" y="385" type="curve" smooth="yes"/>
      <point x="131" y="433"/>
      <point x="156" y="449"/>
      <point x="186" y="449" type="curve" smooth="yes"/>
      <point x="215" y="449"/>
      <point x="238" y="433"/>
      <point x="238" y="386" type="curve" smooth="yes"/>
      <point x="238" y="338"/>
      <point x="214" y="322"/>
    </contour>
    <contour>
      <point x="553" y="-10" type="curve" smooth="yes"/>
      <point x="655" y="-10"/>
      <point x="711" y="54"/>
      <point x="711" y="137" type="curve" smooth="yes"/>
      <point x="711" y="216"/>
      <point x="659" y="281"/>
      <point x="557" y="281" type="curve" smooth="yes"/>
      <point x="455" y="281"/>
      <point x="396" y="217"/>
      <point x="396" y="134" type="curve" smooth="yes"/>
      <point x="396" y="53"/>
      <point x="451" y="-10"/>
    </contour>
    <contour>
      <point x="553" y="72" type="curve" smooth="yes"/>
      <point x="524" y="72"/>
      <point x="500" y="88"/>
      <point x="500" y="135" type="curve" smooth="yes"/>
      <point x="500" y="183"/>
      <point x="525" y="199"/>
      <point x="555" y="199" type="curve" smooth="yes"/>
      <point x="584" y="199"/>
      <point x="607" y="183"/>
      <point x="607" y="136" type="curve" smooth="yes"/>
      <point x="607" y="88"/>
      <point x="583" y="72"/>
    </contour>
    <contour>
      <point x="-10" y="917" type="line"/>
      <point x="748" y="917" type="line"/>
      <point x="748" y="-213" type="line"/>
      <point x="-10" y="-213" type="line"/>
    </contour>
  </outline>
</glyph>
<glyph name="ampersand" format="1">
  <advance width="702"/>
  <unicode hex="0026"/>
  <outline>
    <contour>
      <point x="436" y="271" type="line"/>
      <point x="485" y="271" type="line"/>
      <point x="475" y="228"/>
      <point x="459" y="195"/>
      <point x="439" y="170" type="curve"/>
      <point x="386" y="207"/>
      <point x="336" y="259"/>
      <point x="300" y="315" type="curve"/>
      <point x="425" y="377"/>
      <point x="490" y="422"/>
      <point x="490" y="511" type="curve" smooth="yes"/>
      <point x="490" y="605"/>
      <point x="417" y="660"/>
      <point x="308" y="660" type="curve" smooth="yes"/>
      <point x="165" y="660"/>
      <point x="112" y="566"/>
      <point x="112" y="473" type="curve" smooth="yes"/>
      <point x="112" y="424"/>
      <point x="127" y="369"/>
      <point x="152" y="315" type="curve"/>
      <point x="88" y="282"/>
      <point x="23" y="241"/>
      <point x="23" y="152" type="curve" smooth="yes"/>
      <point x="23" y="37"/>
      <point x="134" y="-10"/>
      <point x="229" y="-10" type="curve" smooth="yes"/>
      <point x="289" y="-10"/>
      <point x="349" y="9"/>
      <point x="403" y="39" type="curve"/>
      <point x="457" y="8"/>
      <point x="514" y="-10"/>
      <point x="570" y="-10" type="curve" smooth="yes"/>
      <point x="607" y="-10"/>
      <point x="648" y="-2"/>
      <point x="682" y="16" type="curve"/>
      <point x="655" y="126" type="line"/>
      <point x="634" y="117"/>
      <point x="611" y="113"/>
      <point x="591" y="113" type="curve" smooth="yes"/>
      <point x="568" y="113"/>
      <point x="544" y="118"/>
      <point x="520" y="127" type="curve"/>
      <point x="566" y="172"/>
      <point x="602" y="224"/>
      <point x="623" y="271" type="curve"/>
      <point x="687" y="271" type="line"/>
      <point x="687" y="385" type="line"/>
      <point x="436" y="385" type="line"/>
    </contour>
    <contour>
      <point x="242" y="484" type="curve" smooth="yes"/>
      <point x="242" y="507"/>
      <point x="246" y="562"/>
      <point x="305" y="562" type="curve" smooth="yes"/>
      <point x="354" y="562"/>
      <point x="358" y="524"/>
      <point x="358" y="505" type="curve" smooth="yes"/>
      <point x="358" y="461"/>
      <point x="335" y="421"/>
      <point x="267" y="377" type="curve"/>
      <point x="251" y="413"/>
      <point x="242" y="450"/>
    </contour>
    <contour>
      <point x="266" y="99" type="curve" smooth="yes"/>
      <point x="201" y="99"/>
      <point x="151" y="117"/>
      <point x="151" y="178" type="curve" smooth="yes"/>
      <point x="151" y="207"/>
      <point x="162" y="232"/>
      <point x="186" y="253" type="curve"/>
      <point x="220" y="198"/>
      <point x="265" y="146"/>
      <point x="315" y="102" type="curve"/>
      <point x="298" y="100"/>
      <point x="282" y="99"/>
    </contour>
    <contour>
      <point x="-12" y="917" type="line"/>
      <point x="712" y="917" type="line"/>
      <point x="712" y="-213" type="line"/>
      <point x="-12" y="-213" type="line"/>
    </contour>
  </outline>
</glyph>
<glyph name="parenleft" format="1">
  <advance width="308"/>
  <unicode hex="0028"/>
  <outline>
    <contour>
      <point x="184" y="718" type="line"/>
      <point x="74" y="576"/>
      <point x="23" y="424"/>
      <point x="23" y="270" type="curve" smooth="yes"/>
      <point x="23" y="118"/>
      <point x="71" y="-36"/>
      <point x="182" y="-183" type="curve"/>
      <point x="298" y="-183" type="line"/>
      <point x="187" y="-45"/>
      <point x="132" y="115"/>
      <point x="132" y="270" type="curve" smooth="yes"/>
      <point x="132" y="427"/>
      <point x="188" y="578"/>
      <point x="298" y="718" type="curve"/>
    </contour>
    <contour>
      <point x="-10" y="917" type="line"/>
      <point x="318" y="917" type="line"/>
      <point x="318" y="-213" type="line"/>
      <point x="-10" y="-213" type="line"/>
    </contour>
  </outline>
</glyph>
<glyph name="asterisk" format="1">
  <advance width="416"/>
  <unicode hex="002A"/>
  <outline>
    <contour>
      <point x="339" y="607" type="line"/>
      <point x="244" y="542" type="line"/>
      <point x="252" y="650" type="line"/>
      <point x="163" y="650" type="line"/>
      <point x="171" y="543" type="line"/>
      <point x="77" y="607" type="line"/>
      <point x="30" y="532" type="line"/>
      <point x="135" y="479" type="line"/>
      <point x="30" y="426" type="line"/>
      <point x="78" y="351" type="line"/>
      <point x="170" y="413" type="line"/>
      <point x="163" y="309" type="line"/>
      <point x="252" y="309" type="line"/>
      <point x="245" y="414" type="line"/>
      <point x="338" y="351" type="line"/>
      <point x="386" y="426" type="line"/>
      <point x="280" y="479" type="line"/>
      <point x="386" y="532" type="line"/>
    </contour>
    <contour>
      <point x="-10" y="917" type="line"/>
      <point x="427" y="917" type="line"/>
      <point x="427" y="-213" type="line"/>
      <point x="-10" y="-213" type="line"/>
    </contour>
  </outline>
</glyph>
<glyph name="plus" format="1">
  <advance width="401"/>
  <unicode hex="002B"/>
  <outline>
    <contour>
      <point x="27" y="237" type="line"/>
      <point x="159" y="237" type="line"/>
      <point x="159" y="108" type="line"/>
      <point x="247" y="108" type="line"/>
      <point x="247" y="237" type="line"/>
      <point x="374" y="237" type="line"/>
      <point x="374" y="325" type="line"/>
      <point x="247" y="325" type="line"/>
      <point x="247" y="455" type="line"/>
      <point x="159" y="455" type="line"/>
      <point x="159" y="325" type="line"/>
      <point x="27" y="325" type="line"/>
    </contour>
    <contour>
      <point x="-10" y="917" type="line"/>
      <point x="410" y="917" type="line"/>
      <point x="410" y="-213" type="line"/>
      <point x="-10" y="-213" type="line"/>
    </contour>
  </outline>
</glyph>
<glyph name="hyphen" format="1">
  <advance width="321"/>
  <unicode hex="002D"/>
  <unicode hex="00AD"/>
  <outline>
    <contour>
      <point x="41" y="288" type="line"/>
      <point x="280" y="288" type="line"/>
      <point x="280" y="180" type="line"/>
      <point x="41" y="180" type="line"/>
    </contour>
    <contour>
      <point x="-10" y="-213" type="line"/>
      <point x="331" y="-213" type="line"/>
      <point x="331" y="917" type="line"/>
      <point x="-10" y="917" type="line"/>
    </contour>
  </outline>
</glyph>
<glyph name="period" format="1">
  <advance width="228"/>
  <unicode hex="002E"/>
  <outline>
    <contour>
      <point x="37" y="163" type="line"/>
      <point x="190" y="163" type="line"/>
      <point x="190" y="0" type="line"/>
      <point x="37" y="0" type="line"/>
    </contour>
    <contour>
      <point x="-10" y="-213" type="line"/>
      <point x="237" y="-213" type="line"/>
      <point x="237" y="917" type="line"/>
      <point x="-10" y="917" type="line"/>
    </contour>
  </outline>
</glyph>
<glyph name="slash" format="1">
  <advance width="376"/>
  <unicode hex="002F"/>
  <outline>
    <contour>
      <point x="361" y="688" type="line"/>
      <point x="166" y="0" type="line"/>
      <point x="39" y="0" type="line"/>
      <point x="234" y="688" type="line"/>
    </contour>
    <contour>
      <point x="-10" y="-213" type="line"/>
      <point x="386" y="-213" type="line"/>
      <point x="386" y="917" type="line"/>
      <point x="-10" y="917" type="line"/>
    </contour>
  </outline>
</glyph>
<glyph name="four" format="1">
  <advance width="570"/>
  <unicode hex="0034"/>
  <outline>
    <contour>
      <point x="451" y="-130" type="line"/>
      <point x="451" y="29" type="line"/>
      <point x="539" y="29" type="line"/>
      <point x="549" y="140" type="line"/>
      <point x="451" y="140" type="line"/>
      <point x="451" y="521" type="line"/>
      <point x="213" y="521" type="line"/>
      <point x="15" y="140" type="line"/>
      <point x="29" y="29" type="line"/>
      <point x="317" y="29" type="line"/>
      <point x="317" y="-130" type="line"/>
    </contour>
    <contour>
      <point x="317" y="140" type="line"/>
      <point x="143" y="140" type="line"/>
      <point x="279" y="407" type="line"/>
      <point x="317" y="407" type="line"/>
    </contour>
    <contour>
      <point x="-10" y="917" type="line"/>
      <point x="580" y="917" type="line"/>
      <point x="580" y="-213" type="line"/>
      <point x="-10" y="-213" type="line"/>
    </contour>
  </outline>
</glyph>
<glyph name="five" format="1">
  <advance width="522"/>
  <unicode hex="0035"/>
  <outline>
    <contour>
      <point x="498" y="71" type="curve" smooth="yes"/>
      <point x="498" y="240"/>
      <point x="365" y="281"/>
      <point x="224" y="281" type="curve" smooth="yes"/>
      <point x="212" y="281"/>
      <point x="199" y="281"/>
      <point x="187" y="280" type="curve"/>
      <point x="187" y="407" type="line"/>
      <point x="350" y="407" type="line"/>
      <point x="368" y="328" type="line"/>
      <point x="482" y="338" type="line"/>
      <point x="463" y="521" type="line"/>
      <point x="63" y="521" type="line"/>
      <point x="63" y="208" type="line"/>
      <point x="106" y="167" type="line"/>
      <point x="136" y="169"/>
      <point x="168" y="172"/>
      <point x="200" y="172" type="curve" smooth="yes"/>
      <point x="280" y="172"/>
      <point x="353" y="155"/>
      <point x="353" y="71" type="curve" smooth="yes"/>
      <point x="353" y="22"/>
      <point x="323" y="-27"/>
      <point x="247" y="-27" type="curve" smooth="yes"/>
      <point x="168" y="-27"/>
      <point x="140" y="25"/>
      <point x="140" y="71" type="curve"/>
      <point x="31" y="38" type="line"/>
      <point x="33" y="-72"/>
      <point x="104" y="-141"/>
      <point x="248" y="-141" type="curve" smooth="yes"/>
      <point x="384" y="-141"/>
      <point x="498" y="-86"/>
    </contour>
    <contour>
      <point x="-10" y="917" type="line"/>
      <point x="532" y="917" type="line"/>
      <point x="532" y="-213" type="line"/>
      <point x="-10" y="-213" type="line"/>
    </contour>
  </outline>
</glyph>
<glyph name="seven" format="1">
  <advance width="495"/>
  <unicode hex="0037"/>
  <outline>
    <contour>
      <point x="490" y="458" type="line"/>
      <point x="474" y="521" type="line"/>
      <point x="24" y="521" type="line"/>
      <point x="24" y="299" type="line"/>
      <point x="141" y="299" type="line"/>
      <point x="141" y="408" type="line"/>
      <point x="345" y="408" type="line"/>
      <point x="128" y="-130" type="line"/>
      <point x="260" y="-130" type="line"/>
    </contour>
    <contour>
      <point x="-10" y="917" type="line"/>
      <point x="505" y="917" type="line"/>
      <point x="505" y="-213" type="line"/>
      <point x="-10" y="-213" type="line"/>
    </contour>
  </outline>
</glyph>
<glyph name="colon" format="1">
  <advance width="248"/>
  <unicode hex="003A"/>
  <outline>
    <contour>
      <point x="59" y="289" type="line"/>
      <point x="193" y="289" type="line"/>
      <point x="193" y="451" type="line"/>
      <point x="59" y="451" type="line"/>
    </contour>
    <contour>
      <point x="59" y="0" type="line"/>
      <point x="193" y="0" type="line"/>
      <point x="193" y="162" type="line"/>
      <point x="59" y="162" type="line"/>
    </contour>
    <contour>
      <point x="-10" y="917" type="line"/>
      <point x="257" y="917" type="line"/>
      <point x="257" y="-213" type="line"/>
      <point x="-10" y="-213" type="line"/>
    </contour>
  </outline>
</glyph>
<glyph name="less" format="1">
  <advance width="398"/>
  <unicode hex="003C"/>
  <outline>
    <contour>
      <point x="344" y="14" type="line"/>
      <point x="344" y="136" type="line"/>
      <point x="156" y="282" type="line"/>
      <point x="343" y="427" type="line"/>
      <point x="343" y="549" type="line"/>
      <point x="25" y="301" type="line"/>
      <point x="25" y="257" type="line"/>
    </contour>
    <contour>
      <point x="-10" y="917" type="line"/>
      <point x="408" y="917" type="line"/>
      <point x="408" y="-213" type="line"/>
      <point x="-10" y="-213" type="line"/>
    </contour>
  </outline>
</glyph>
<glyph name="B" format="1">
  <advance width="622"/>
  <unicode hex="0042"/>
  <outline>
    <contour>
      <point x="598" y="193" type="curve" smooth="yes"/>
      <point x="598" y="89"/>
      <point x="530" y="0"/>
      <point x="381" y="0" type="curve" smooth="yes"/>
      <point x="39" y="0" type="line"/>
      <point x="39" y="114" type="line"/>
      <point x="109" y="114" type="line"/>
      <point x="109" y="536" type="line"/>
      <point x="39" y="536" type="line"/>
      <point x="39" y="650" type="line"/>
      <point x="377" y="650" type="line" smooth="yes"/>
      <point x="496" y="650"/>
      <point x="575" y="590"/>
      <point x="575" y="498" type="curve" smooth="yes"/>
      <point x="575" y="430"/>
      <point x="532" y="374"/>
      <point x="457" y="362" type="curve"/>
      <point x="457" y="358" type="line"/>
      <point x="550" y="344"/>
      <point x="598" y="280"/>
    </contour>
    <contour>
      <point x="454" y="198" type="curve" smooth="yes"/>
      <point x="454" y="256"/>
      <point x="417" y="280"/>
      <point x="355" y="280" type="curve" smooth="yes"/>
      <point x="243" y="280" type="line"/>
      <point x="243" y="114" type="line"/>
      <point x="346" y="114" type="line" smooth="yes"/>
      <point x="420" y="114"/>
      <point x="454" y="142"/>
    </contour>
    <contour>
      <point x="431" y="463" type="curve" smooth="yes"/>
      <point x="431" y="522"/>
      <point x="390" y="536"/>
      <point x="342" y="536" type="curve" smooth="yes"/>
      <point x="243" y="536" type="line"/>
      <point x="243" y="384" type="line"/>
      <point x="332" y="384" type="line" smooth="yes"/>
      <point x="408" y="384"/>
      <point x="431" y="419"/>
    </contour>
    <contour>
      <point x="-10" y="-213" type="line"/>
      <point x="632" y="-213" type="line"/>
      <point x="632" y="917" type="line"/>
      <point x="-10" y="917" type="line"/>
    </contour>
  </outline>
</glyph>
<glyph name="F" format="1">
  <advance width="567"/>
  <unicode hex="0046"/>
  <outline>
    <contour>
      <point x="433" y="440" type="line"/>
      <point x="413" y="536" type="line"/>
      <point x="243" y="536" type="line"/>
      <point x="243" y="354" type="line"/>
      <point x="516" y="354" type="line"/>
      <point x="516" y="241" type="line"/>
      <point x="243" y="241" type="line"/>
      <point x="243" y="114" type="line"/>
      <point x="349" y="114" type="line"/>
      <point x="349" y="0" type="line"/>
      <point x="39" y="0" type="line"/>
      <point x="39" y="114" type="line"/>
      <point x="109" y="114" type="line"/>
      <point x="109" y="536" type="line"/>
      <point x="39" y="536" type="line"/>
      <point x="39" y="650" type="line"/>
      <point x="527" y="650" type="line"/>
      <point x="547" y="450" type="line"/>
    </contour>
    <contour>
      <point x="-10" y="-213" type="line"/>
      <point x="577" y="-213" type="line"/>
      <point x="577" y="917" type="line"/>
      <point x="-10" y="917" type="line"/>
    </contour>
  </outline>
</glyph>
<glyph name="I" format="1">
  <advance width="353"/>
  <unicode hex="0049"/>
  <outline>
    <contour>
      <point x="39" y="0" type="line"/>
      <point x="39" y="114" type="line"/>
      <point x="109" y="114" type="line"/>
      <point x="109" y="536" type="line"/>
      <point x="39" y="536" type="line"/>
      <point x="39" y="650" type="line"/>
      <point x="313" y="650" type="line"/>
      <point x="313" y="536" type="line"/>
      <point x="243" y="536" type="line"/>
      <point x="243" y="114" type="line"/>
      <point x="313" y="114" type="line"/>
      <point x="313" y="0" type="line"/>
    </contour>
    <contour>
      <point x="-10" y="-213" type="line"/>
      <point x="363" y="-213" type="line"/>
      <point x="363" y="917" type="line"/>
      <point x="-10" y="917" type="line"/>
    </contour>
  </outline>
</glyph>
<glyph name="J" format="1">
  <advance width="485"/>
  <unicode hex="004A"/>
  <outline>
    <contour>
      <point x="397" y="536" type="line"/>
      <point x="397" y="185" type="line" smooth="yes"/>
      <point x="397" y="54"/>
      <point x="318" y="-10"/>
      <point x="200" y="-10" type="curve" smooth="yes"/>
      <point x="89" y="-10"/>
      <point x="33" y="47"/>
      <point x="5" y="113" type="curve"/>
      <point x="99" y="184" type="line"/>
      <point x="122" y="125"/>
      <point x="155" y="114"/>
      <point x="187" y="114" type="curve" smooth="yes"/>
      <point x="241" y="114"/>
      <point x="263" y="144"/>
      <point x="263" y="184" type="curve" smooth="yes"/>
      <point x="263" y="536" type="line"/>
      <point x="149" y="536" type="line"/>
      <point x="149" y="650" type="line"/>
      <point x="457" y="650" type="line"/>
      <point x="457" y="536" type="line"/>
    </contour>
    <contour>
      <point x="-10" y="-213" type="line"/>
      <point x="495" y="-213" type="line"/>
      <point x="495" y="917" type="line"/>
      <point x="-10" y="917" type="line"/>
    </contour>
  </outline>
</glyph>
<glyph name="L" format="1">
  <advance width="559"/>
  <unicode hex="004C"/>
  <outline>
    <contour>
      <point x="39" y="0" type="line"/>
      <point x="39" y="114" type="line"/>
      <point x="109" y="114" type="line"/>
      <point x="109" y="536" type="line"/>
      <point x="39" y="536" type="line"/>
      <point x="39" y="650" type="line"/>
      <point x="334" y="650" type="line"/>
      <point x="334" y="536" type="line"/>
      <point x="243" y="536" type="line"/>
      <point x="243" y="114" type="line"/>
      <point x="413" y="114" type="line"/>
      <point x="433" y="240" type="line"/>
      <point x="547" y="230" type="line"/>
      <point x="527" y="0" type="line"/>
    </contour>
    <contour>
      <point x="-10" y="-213" type="line"/>
      <point x="569" y="-213" type="line"/>
      <point x="569" y="917" type="line"/>
      <point x="-10" y="917" type="line"/>
    </contour>
  </outline>
</glyph>
<glyph name="P" format="1">
  <advance width="599"/>
  <unicode hex="0050"/>
  <outline>
    <contour>
      <point x="584" y="438" type="curve" smooth="yes"/>
      <point x="584" y="290"/>
      <point x="471" y="218"/>
      <point x="343" y="218" type="curve" smooth="yes"/>
      <point x="243" y="218" type="line"/>
      <point x="243" y="114" type="line"/>
      <point x="343" y="114" type="line"/>
      <point x="343" y="0" type="line"/>
      <point x="39" y="0" type="line"/>
      <point x="39" y="114" type="line"/>
      <point x="109" y="114" type="line"/>
      <point x="109" y="536" type="line"/>
      <point x="39" y="536" type="line"/>
      <point x="39" y="650" type="line"/>
      <point x="337" y="650" type="line" smooth="yes"/>
      <point x="498" y="650"/>
      <point x="584" y="568"/>
    </contour>
    <contour>
      <point x="440" y="436" type="curve" smooth="yes"/>
      <point x="440" y="500"/>
      <point x="409" y="536"/>
      <point x="320" y="536" type="curve" smooth="yes"/>
      <point x="243" y="536" type="line"/>
      <point x="243" y="331" type="line"/>
      <point x="318" y="331" type="line" smooth="yes"/>
      <point x="410" y="331"/>
      <point x="440" y="373"/>
    </contour>
    <contour>
      <point x="-10" y="-213" type="line"/>
      <point x="609" y="-213" type="line"/>
      <point x="609" y="917" type="line"/>
      <point x="-10" y="917" type="line"/>
    </contour>
  </outline>
</glyph>
<glyph name="backslash" format="1">
  <advance width="376"/>
  <unicode hex="005C"/>
  <outline>
    <contour>
      <point x="15" y="688" type="line"/>
      <point x="210" y="0" type="line"/>
      <point x="337" y="0" type="line"/>
      <point x="142" y="688" type="line"/>
    </contour>
    <contour>
      <point x="386" y="-213" type="line"/>
      <point x="-10" y="-213" type="line"/>
      <point x="-10" y="917" type="line"/>
      <point x="386" y="917" type="line"/>
    </contour>
  </outline>
</glyph>
<glyph name="bracketright" format="1">
  <advance width="376"/>
  <unicode hex="005D"/>
  <outline>
    <contour>
      <point x="386" y="-213" type="line"/>
      <point x="309" y="-213" type="line"/>
      <point x="309" y="785" type="line"/>
      <point x="86" y="785" type="line"/>
      <point x="86" y="698" type="line"/>
      <point x="200" y="698" type="line"/>
      <point x="200" y="-126" type="line"/>
      <point x="86" y="-126" type="line"/>
      <point x="86" y="-213" type="line"/>
      <point x="-10" y="-213" type="line"/>
      <point x="-10" y="917" type="line"/>
      <point x="386" y="917" type="line"/>
    </contour>
  </outline>
</glyph>
<glyph name="asciicircum" format="1">
  <advance width="469"/>
  <unicode hex="005E"/>
  <outline>
    <contour>
      <point x="189" y="650" type="line"/>
      <point x="28" y="367" type="line"/>
      <point x="147" y="367" type="line"/>
      <point x="230" y="525" type="line"/>
      <point x="323" y="367" type="line"/>
      <point x="441" y="367" type="line"/>
      <point x="270" y="650" type="line"/>
    </contour>
    <contour>
      <point x="-10" y="917" type="line"/>
      <point x="479" y="917" type="line"/>
      <point x="479" y="-213" type="line"/>
      <point x="-10" y="-213" type="line"/>
    </contour>
  </outline>
</glyph>
<glyph name="underscore" format="1">
  <advance width="502"/>
  <unicode hex="005F"/>
  <outline>
    <contour>
      <point x="35" y="-153" type="line"/>
      <point x="467" y="-153" type="line"/>
      <point x="467" y="-68" type="line"/>
      <point x="35" y="-68" type="line"/>
    </contour>
    <contour>
      <point x="-12" y="917" type="line"/>
      <point x="510" y="917" type="line"/>
      <point x="510" y="-213" type="line"/>
      <point x="-12" y="-213" type="line"/>
    </contour>
  </outline>
</glyph>
<glyph name="grave" format="1">
  <advance width="440"/>
  <unicode hex="0060"/>
  <outline>
    <contour>
      <point x="340" y="508" type="line"/>
      <point x="145" y="599" type="line"/>
      <point x="212" y="700" type="line"/>
      <point x="374" y="557" type="line"/>
    </contour>
  </outline>
</glyph>
<glyph name="b" format="1">
  <advance width="544"/>
  <unicode hex="0062"/>
  <outline>
    <contour>
      <point x="-10" y="-213" type="line"/>
      <point x="554" y="-213" type="line"/>
      <point x="554" y="917" type="line"/>
      <point x="-10" y="917" type="line"/>
      <point x="-10" y="688" type="line"/>
      <point x="179" y="688" type="line"/>
      <point x="179" y="365" type="line"/>
      <point x="203" y="417"/>
      <point x="249" y="460"/>
      <point x="331" y="460" type="curve" smooth="yes"/>
      <point x="445" y="460"/>
      <point x="524" y="377"/>
      <point x="524" y="236" type="curve" smooth="yes"/>
      <point x="524" y="103"/>
      <point x="453" y="-10"/>
      <point x="317" y="-10" type="curve" smooth="yes"/>
      <point x="246" y="-10"/>
      <point x="198" y="20"/>
      <point x="172" y="68" type="curve"/>
      <point x="169" y="45"/>
      <point x="166" y="23"/>
      <point x="162" y="0" type="curve"/>
      <point x="33" y="0" type="line"/>
      <point x="43" y="47"/>
      <point x="50" y="94"/>
      <point x="50" y="139" type="curve" smooth="yes"/>
      <point x="50" y="590" type="line"/>
      <point x="-10" y="590" type="line"/>
    </contour>
    <contour>
      <point x="390" y="225" type="curve" smooth="yes"/>
      <point x="390" y="311"/>
      <point x="350" y="358"/>
      <point x="288" y="358" type="curve" smooth="yes"/>
      <point x="218" y="358"/>
      <point x="179" y="298"/>
      <point x="179" y="232" type="curve" smooth="yes"/>
      <point x="179" y="221" type="line" smooth="yes"/>
      <point x="179" y="147"/>
      <point x="217" y="91"/>
      <point x="285" y="91" type="curve" smooth="yes"/>
      <point x="344" y="91"/>
      <point x="390" y="133"/>
    </contour>
    <contour>
      <point x="264" y="566" type="move" name="top"/>
    </contour>
  </outline>
</glyph>
<glyph name="d" format="1">
  <advance width="570"/>
  <unicode hex="0064"/>
  <outline>
    <contour>
      <point x="367" y="0" type="line"/>
      <point x="367" y="84" type="line"/>
      <point x="341" y="32"/>
      <point x="295" y="-10"/>
      <point x="213" y="-10" type="curve" smooth="yes"/>
      <point x="95" y="-10"/>
      <point x="22" y="77"/>
      <point x="22" y="217" type="curve" smooth="yes"/>
      <point x="22" y="351"/>
      <point x="88" y="460"/>
      <point x="223" y="460" type="curve" smooth="yes"/>
      <point x="297" y="460"/>
      <point x="342" y="428"/>
      <point x="367" y="382" type="curve"/>
      <point x="367" y="590" type="line"/>
      <point x="277" y="590" type="line"/>
      <point x="277" y="688" type="line"/>
      <point x="496" y="688" type="line"/>
      <point x="496" y="97" type="line"/>
      <point x="556" y="97" type="line"/>
      <point x="556" y="0" type="line"/>
    </contour>
    <contour>
      <point x="367" y="239" type="line"/>
      <point x="367" y="314"/>
      <point x="323" y="358"/>
      <point x="264" y="358" type="curve" smooth="yes"/>
      <point x="207" y="358"/>
      <point x="156" y="317"/>
      <point x="156" y="225" type="curve" smooth="yes"/>
      <point x="156" y="139"/>
      <point x="202" y="92"/>
      <point x="257" y="92" type="curve" smooth="yes"/>
      <point x="325" y="92"/>
      <point x="367" y="161"/>
      <point x="367" y="228" type="curve" smooth="yes"/>
    </contour>
    <contour>
      <point x="-10" y="-213" type="line"/>
      <point x="581" y="-213" type="line"/>
      <point x="581" y="917" type="line"/>
      <point x="-10" y="917" type="line"/>
    </contour>
  </outline>
</glyph>
<glyph name="g" format="1">
  <advance width="568"/>
  <unicode hex="0067"/>
  <outline>
    <contour>
      <point x="-10" y="-213" type="line"/>
      <point x="232" y="-213" type="line"/>
      <point x="143" y="-210"/>
      <point x="55" y="-177"/>
      <point x="19" y="-78" type="curve"/>
      <point x="118" y="-22" type="line"/>
      <point x="149" y="-80"/>
      <point x="191" y="-106"/>
      <point x="247" y="-106" type="curve" smooth="yes"/>
      <point x="316" y="-106"/>
      <point x="366" y="-59"/>
      <point x="366" y="32" type="curve" smooth="yes"/>
      <point x="366" y="82" type="line"/>
      <point x="342" y="36"/>
      <point x="298" y="0"/>
      <point x="218" y="0" type="curve" smooth="yes"/>
      <point x="113" y="0"/>
      <point x="21" y="75"/>
      <point x="21" y="217" type="curve" smooth="yes"/>
      <point x="21" y="351"/>
      <point x="97" y="460"/>
      <point x="224" y="460" type="curve" smooth="yes"/>
      <point x="295" y="460"/>
      <point x="341" y="428"/>
      <point x="366" y="381" type="curve"/>
      <point x="366" y="451" type="line"/>
      <point x="555" y="451" type="line"/>
      <point x="555" y="353" type="line"/>
      <point x="495" y="353" type="line"/>
      <point x="495" y="32" type="line" smooth="yes"/>
      <point x="495" y="-108"/>
      <point x="419" y="-208"/>
      <point x="258" y="-213" type="curve"/>
      <point x="578" y="-213" type="line"/>
      <point x="578" y="917" type="line"/>
      <point x="-10" y="917" type="line"/>
    </contour>
    <contour>
      <point x="366" y="239" type="line" smooth="yes"/>
      <point x="366" y="314"/>
      <point x="322" y="353"/>
      <point x="263" y="353" type="curve" smooth="yes"/>
      <point x="206" y="353"/>
      <point x="160" y="317"/>
      <point x="160" y="225" type="curve" smooth="yes"/>
      <point x="160" y="139"/>
      <point x="201" y="107"/>
      <point x="255" y="107" type="curve" smooth="yes"/>
      <point x="325" y="107"/>
      <point x="366" y="161"/>
      <point x="366" y="228" type="curve" smooth="yes"/>
    </contour>
    <contour>
      <point x="220" y="566" type="move" name="top"/>
    </contour>
  </outline>
</glyph>
<glyph name="m" format="1">
  <advance width="876"/>
  <unicode hex="006D"/>
  <outline>
    <contour>
      <point x="-10" y="-213" type="line"/>
      <point x="887" y="-213" type="line"/>
      <point x="887" y="917" type="line"/>
      <point x="-10" y="917" type="line"/>
    </contour>
    <contour>
      <point x="675" y="0" type="line"/>
      <point x="675" y="254" type="line" smooth="yes"/>
      <point x="675" y="332"/>
      <point x="649" y="362"/>
      <point x="598" y="362" type="curve" smooth="yes"/>
      <point x="536" y="362"/>
      <point x="511" y="318"/>
      <point x="511" y="255" type="curve" smooth="yes"/>
      <point x="511" y="97" type="line"/>
      <point x="571" y="97" type="line"/>
      <point x="571" y="0" type="line"/>
      <point x="382" y="0" type="line"/>
      <point x="382" y="254" type="line" smooth="yes"/>
      <point x="382" y="332"/>
      <point x="356" y="362"/>
      <point x="305" y="362" type="curve" smooth="yes"/>
      <point x="243" y="362"/>
      <point x="218" y="318"/>
      <point x="218" y="255" type="curve" smooth="yes"/>
      <point x="218" y="97" type="line"/>
      <point x="304" y="97" type="line"/>
      <point x="304" y="0" type="line"/>
      <point x="29" y="0" type="line"/>
      <point x="29" y="97" type="line"/>
      <point x="89" y="97" type="line"/>
      <point x="89" y="353" type="line"/>
      <point x="30" y="353" type="line"/>
      <point x="30" y="451" type="line"/>
      <point x="218" y="451" type="line"/>
      <point x="218" y="383" type="line"/>
      <point x="245" y="431"/>
      <point x="292" y="460"/>
      <point x="355" y="460" type="curve" smooth="yes"/>
      <point x="420" y="460"/>
      <point x="480" y="429"/>
      <point x="502" y="363" type="curve"/>
      <point x="527" y="423"/>
      <point x="578" y="460"/>
      <point x="649" y="460" type="curve" smooth="yes"/>
      <point x="730" y="460"/>
      <point x="804" y="411"/>
      <point x="804" y="304" type="curve" smooth="yes"/>
      <point x="804" y="97" type="line"/>
      <point x="864" y="97" type="line"/>
      <point x="864" y="0" type="line"/>
    </contour>
    <contour>
      <point x="310" y="566" type="move" name="top"/>
    </contour>
  </outline>
</glyph>
<glyph name="q" format="1">
  <advance width="545"/>
  <unicode hex="0071"/>
  <outline>
    <contour>
      <point x="-10" y="917" type="line"/>
      <point x="555" y="917" type="line"/>
      <point x="555" y="-115" type="line"/>
      <point x="495" y="-115" type="line"/>
      <point x="495" y="291" type="line" smooth="yes"/>
      <point x="495" y="345"/>
      <point x="502" y="397"/>
      <point x="513" y="451" type="curve"/>
      <point x="388" y="451" type="line"/>
      <point x="382" y="426"/>
      <point x="378" y="401"/>
      <point x="375" y="377" type="curve"/>
      <point x="349" y="427"/>
      <point x="301" y="460"/>
      <point x="228" y="460" type="curve" smooth="yes"/>
      <point x="92" y="460"/>
      <point x="21" y="347"/>
      <point x="21" y="214" type="curve" smooth="yes"/>
      <point x="21" y="73"/>
      <point x="100" y="-10"/>
      <point x="214" y="-10" type="curve" smooth="yes"/>
      <point x="295" y="-10"/>
      <point x="341" y="33"/>
      <point x="366" y="84" type="curve"/>
      <point x="366" y="-115" type="line"/>
      <point x="286" y="-115" type="line"/>
      <point x="286" y="-213" type="line"/>
      <point x="-10" y="-213" type="line"/>
    </contour>
    <contour>
      <point x="366" y="228" type="line" smooth="yes"/>
      <point x="366" y="161"/>
      <point x="324" y="97"/>
      <point x="256" y="97" type="curve" smooth="yes"/>
      <point x="201" y="97"/>
      <point x="160" y="139"/>
      <point x="160" y="225" type="curve" smooth="yes"/>
      <point x="160" y="317"/>
      <point x="206" y="353"/>
      <point x="263" y="353" type="curve" smooth="yes"/>
      <point x="322" y="353"/>
      <point x="366" y="314"/>
      <point x="366" y="239" type="curve" smooth="yes"/>
    </contour>
  </outline>
</glyph>
<glyph name="r" format="1">
  <advance width="441"/>
  <unicode hex="0072"/>
  <outline>
    <contour>
      <point x="314" y="457" type="curve" smooth="yes"/>
      <point x="339" y="457"/>
      <point x="372" y="450"/>
      <point x="403" y="432" type="curve"/>
      <point x="423" y="274" type="line"/>
      <point x="325" y="263" type="line"/>
      <point x="308" y="340" type="line"/>
      <point x="295" y="348"/>
      <point x="285" y="352"/>
      <point x="273" y="352" type="curve" smooth="yes"/>
      <point x="244" y="352"/>
      <point x="218" y="329"/>
      <point x="218" y="285" type="curve" smooth="yes"/>
      <point x="218" y="97" type="line"/>
      <point x="298" y="97" type="line"/>
      <point x="298" y="0" type="line"/>
      <point x="29" y="0" type="line"/>
      <point x="29" y="97" type="line"/>
      <point x="89" y="97" type="line"/>
      <point x="89" y="353" type="line"/>
      <point x="24" y="353" type="line"/>
      <point x="24" y="451" type="line"/>
      <point x="208" y="451" type="line"/>
      <point x="208" y="365" type="line"/>
      <point x="223" y="417"/>
      <point x="253" y="457"/>
    </contour>
    <contour>
      <point x="-10" y="-213" type="line"/>
      <point x="450" y="-213" type="line"/>
      <point x="450" y="917" type="line"/>
      <point x="-10" y="917" type="line"/>
    </contour>
    <contour>
      <point x="350" y="566" type="move" name="top"/>
    </contour>
  </outline>
</glyph>
<glyph name="y" format="1">
  <advance width="530"/>
  <unicode hex="0079"/>
  <outline>
    <contour>
      <point x="-10" y="-213" type="line"/>
      <point x="101" y="-213" type="line"/>
      <point x="101" y="-113" type="line"/>
      <point x="173" y="-113" type="line"/>
      <point x="209" y="-7" type="line"/>
      <point x="51" y="354" type="line"/>
      <point x="5" y="354" type="line"/>
      <point x="5" y="451" type="line"/>
      <point x="235" y="451" type="line"/>
      <point x="235" y="354" type="line"/>
      <point x="190" y="354" type="line"/>
      <point x="282" y="146" type="line"/>
      <point x="288" y="146" type="line"/>
      <point x="356" y="354" type="line"/>
      <point x="317" y="354" type="line"/>
      <point x="317" y="451" type="line"/>
      <point x="523" y="451" type="line"/>
      <point x="523" y="354" type="line"/>
      <point x="479" y="354" type="line"/>
      <point x="334" y="0" type="line"/>
      <point x="291" y="-113" type="line"/>
      <point x="350" y="-113" type="line"/>
      <point x="350" y="-213" type="line"/>
      <point x="540" y="-213" type="line"/>
      <point x="540" y="917" type="line"/>
      <point x="-10" y="917" type="line"/>
    </contour>
  </outline>
</glyph>
<glyph name="bar" format="1">
  <advance width="244"/>
  <unicode hex="007C"/>
  <outline>
    <contour>
      <point x="67" y="730" type="line"/>
      <point x="67" y="-80" type="line"/>
      <point x="177" y="-80" type="line"/>
      <point x="177" y="730" type="line"/>
    </contour>
    <contour>
      <point x="-10" y="917" type="line"/>
      <point x="254" y="917" type="line"/>
      <point x="254" y="-213" type="line"/>
      <point x="-10" y="-213" type="line"/>
    </contour>
  </outline>
</glyph>
<glyph name="braceright" format="1">
  <advance width="376"/>
  <unicode hex="007D"/>
  <outline>
    <contour>
      <point x="386" y="-213" type="line"/>
      <point x="168" y="-213" type="line"/>
      <point x="291" y="-209"/>
      <point x="329" y="-136"/>
      <point x="329" y="-66" type="curve" smooth="yes"/>
      <point x="329" y="40"/>
      <point x="244" y="136"/>
      <point x="244" y="191" type="curve" smooth="yes"/>
      <point x="244" y="240"/>
      <point x="311" y="248"/>
      <point x="342" y="248" type="curve" smooth="yes"/>
      <point x="361" y="248" type="line"/>
      <point x="361" y="305" type="line"/>
      <point x="342" y="305" type="line" smooth="yes"/>
      <point x="312" y="305"/>
      <point x="244" y="313"/>
      <point x="244" y="361" type="curve" smooth="yes"/>
      <point x="244" y="415"/>
      <point x="329" y="531"/>
      <point x="329" y="639" type="curve" smooth="yes"/>
      <point x="329" y="718"/>
      <point x="284" y="785"/>
      <point x="159" y="785" type="curve" smooth="yes"/>
      <point x="95" y="785" type="line"/>
      <point x="95" y="698" type="line"/>
      <point x="159" y="698" type="line" smooth="yes"/>
      <point x="201" y="698"/>
      <point x="222" y="678"/>
      <point x="222" y="634" type="curve" smooth="yes"/>
      <point x="222" y="546"/>
      <point x="136" y="433"/>
      <point x="136" y="369" type="curve" smooth="yes"/>
      <point x="136" y="331"/>
      <point x="167" y="286"/>
      <point x="257" y="276" type="curve"/>
      <point x="167" y="265"/>
      <point x="136" y="221"/>
      <point x="136" y="182" type="curve" smooth="yes"/>
      <point x="136" y="118"/>
      <point x="222" y="26"/>
      <point x="222" y="-62" type="curve" smooth="yes"/>
      <point x="222" y="-106"/>
      <point x="201" y="-126"/>
      <point x="159" y="-126" type="curve" smooth="yes"/>
      <point x="95" y="-126" type="line"/>
      <point x="95" y="-213" type="line"/>
      <point x="-10" y="-213" type="line"/>
      <point x="-10" y="917" type="line"/>
      <point x="386" y="917" type="line"/>
    </contour>
  </outline>
</glyph>
<glyph name="asciitilde" format="1">
  <advance width="569"/>
  <unicode hex="007E"/>
  <outline>
    <contour>
      <point x="379" y="176" type="curve" smooth="yes"/>
      <point x="296" y="176"/>
      <point x="244" y="242"/>
      <point x="175" y="242" type="curve" smooth="yes"/>
      <point x="150" y="242"/>
      <point x="124" y="233"/>
      <point x="90" y="180" type="curve"/>
      <point x="19" y="228" type="line"/>
      <point x="60" y="314"/>
      <point x="117" y="360"/>
      <point x="178" y="360" type="curve" smooth="yes"/>
      <point x="250" y="360"/>
      <point x="291" y="294"/>
      <point x="376" y="294" type="curve" smooth="yes"/>
      <point x="414" y="294"/>
      <point x="437" y="307"/>
      <point x="470" y="363" type="curve"/>
      <point x="550" y="310" type="line"/>
      <point x="513" y="234"/>
      <point x="457" y="176"/>
    </contour>
    <contour>
      <point x="-10" y="-213" type="line"/>
      <point x="579" y="-213" type="line"/>
      <point x="579" y="917" type="line"/>
      <point x="-10" y="917" type="line"/>
    </contour>
  </outline>
</glyph>
<glyph name="exclamdown" format="1">
  <advance width="247"/>
  <unicode hex="00A1"/>
  <outline>
    <contour>
      <point x="201" y="-196" type="line"/>
      <point x="171" y="222" type="line"/>
      <point x="77" y="222" type="line"/>
      <point x="47" y="-196" type="line"/>
    </contour>
    <contour>
      <point x="47" y="309" type="line"/>
      <point x="198" y="309" type="line"/>
      <point x="198" y="454" type="line"/>
      <point x="47" y="454" type="line"/>
    </contour>
    <contour>
      <point x="-10" y="917" type="line"/>
      <point x="257" y="917" type="line"/>
      <point x="257" y="-213" type="line"/>
      <point x="-10" y="-213" type="line"/>
    </contour>
  </outline>
</glyph>
<glyph name="cent" format="1">
  <advance width="494"/>
  <unicode hex="00A2"/>
  <outline>
    <contour>
      <point x="466" y="168" type="curve"/>
      <point x="358" y="188" type="line"/>
      <point x="351" y="136"/>
      <point x="331" y="108"/>
      <point x="297" y="100" type="curve"/>
      <point x="297" y="349" type="line"/>
      <point x="308" y="347"/>
      <point x="320" y="344"/>
      <point x="333" y="340" type="curve"/>
      <point x="348" y="271" type="line"/>
      <point x="451" y="282" type="line"/>
      <point x="431" y="419" type="line"/>
      <point x="386" y="442"/>
      <point x="339" y="454"/>
      <point x="297" y="458" type="curve"/>
      <point x="297" y="529" type="line"/>
      <point x="228" y="529" type="line"/>
      <point x="228" y="457" type="line"/>
      <point x="116" y="442"/>
      <point x="32" y="361"/>
      <point x="32" y="218" type="curve" smooth="yes"/>
      <point x="32" y="77"/>
      <point x="113" y="2"/>
      <point x="228" y="-8" type="curve"/>
      <point x="228" y="-84" type="line"/>
      <point x="297" y="-84" type="line"/>
      <point x="297" y="-7" type="line"/>
      <point x="412" y="9"/>
      <point x="458" y="94"/>
    </contour>
    <contour>
      <point x="171" y="224" type="curve" smooth="yes"/>
      <point x="171" y="296"/>
      <point x="193" y="333"/>
      <point x="228" y="346" type="curve"/>
      <point x="228" y="103" type="line"/>
      <point x="188" y="119"/>
      <point x="171" y="160"/>
    </contour>
    <contour>
      <point x="-10" y="917" type="line"/>
      <point x="504" y="917" type="line"/>
      <point x="504" y="-213" type="line"/>
      <point x="-10" y="-213" type="line"/>
    </contour>
  </outline>
</glyph>
<glyph name="sterling" format="1">
  <advance width="496"/>
  <unicode hex="00A3"/>
  <outline>
    <contour>
      <point x="466" y="83" type="curve"/>
      <point x="411" y="143" type="line"/>
      <point x="381" y="113"/>
      <point x="348" y="98"/>
      <point x="288" y="98" type="curve" smooth="yes"/>
      <point x="165" y="98" type="line"/>
      <point x="216" y="129"/>
      <point x="220" y="169"/>
      <point x="221" y="212" type="curve"/>
      <point x="362" y="212" type="line"/>
      <point x="362" y="287" type="line"/>
      <point x="221" y="287" type="line"/>
      <point x="221" y="335" type="line" smooth="yes"/>
      <point x="221" y="404"/>
      <point x="242" y="428"/>
      <point x="286" y="428" type="curve" smooth="yes"/>
      <point x="295" y="428"/>
      <point x="310" y="427"/>
      <point x="329" y="418" type="curve"/>
      <point x="342" y="353" type="line"/>
      <point x="441" y="361" type="line"/>
      <point x="428" y="478" type="line"/>
      <point x="391" y="516"/>
      <point x="326" y="528"/>
      <point x="280" y="528" type="curve" smooth="yes"/>
      <point x="174" y="528"/>
      <point x="92" y="463"/>
      <point x="92" y="334" type="curve" smooth="yes"/>
      <point x="92" y="287" type="line"/>
      <point x="34" y="287" type="line"/>
      <point x="34" y="212" type="line"/>
      <point x="92" y="212" type="line"/>
      <point x="92" y="159"/>
      <point x="88" y="123"/>
      <point x="42" y="96" type="curve"/>
      <point x="42" y="0" type="line"/>
      <point x="314" y="0" type="line" smooth="yes"/>
      <point x="400" y="0"/>
      <point x="455" y="54"/>
    </contour>
    <contour>
      <point x="-10" y="917" type="line"/>
      <point x="506" y="917" type="line"/>
      <point x="506" y="-213" type="line"/>
      <point x="-10" y="-213" type="line"/>
    </contour>
  </outline>
</glyph>
<glyph name="brokenbar" format="1">
  <advance width="240"/>
  <unicode hex="00A6"/>
  <outline>
    <contour>
      <point x="65" y="730" type="line"/>
      <point x="65" y="426" type="line"/>
      <point x="175" y="426" type="line"/>
      <point x="175" y="730" type="line"/>
    </contour>
    <contour>
      <point x="65" y="224" type="line"/>
      <point x="65" y="-80" type="line"/>
      <point x="175" y="-80" type="line"/>
      <point x="175" y="224" type="line"/>
    </contour>
    <contour>
      <point x="-10" y="917" type="line"/>
      <point x="250" y="917" type="line"/>
      <point x="250" y="-213" type="line"/>
      <point x="-10" y="-213" type="line"/>
    </contour>
  </outline>
</glyph>
<glyph name="section" format="1">
  <advance width="631"/>
  <unicode hex="00A7"/>
  <outline>
    <contour>
      <point x="532" y="151" type="curve" smooth="yes"/>
      <point x="532" y="162"/>
      <point x="531" y="173"/>
      <point x="529" y="182" type="curve"/>
      <point x="570" y="207"/>
      <point x="605" y="240"/>
      <point x="605" y="298" type="curve" smooth="yes"/>
      <point x="605" y="432"/>
      <point x="418" y="432"/>
      <point x="325" y="446" type="curve" smooth="yes"/>
      <point x="266" y="455"/>
      <point x="219" y="476"/>
      <point x="219" y="519" type="curve" smooth="yes"/>
      <point x="219" y="559"/>
      <point x="261" y="571"/>
      <point x="304" y="571" type="curve" smooth="yes"/>
      <point x="346" y="571"/>
      <point x="392" y="559"/>
      <point x="409" y="549" type="curve"/>
      <point x="419" y="479" type="line"/>
      <point x="519" y="490" type="line"/>
      <point x="506" y="619" type="line"/>
      <point x="438" y="649"/>
      <point x="366" y="660"/>
      <point x="307" y="660" type="curve" smooth="yes"/>
      <point x="170" y="660"/>
      <point x="92" y="602"/>
      <point x="92" y="509" type="curve" smooth="yes"/>
      <point x="92" y="481"/>
      <point x="99" y="457"/>
      <point x="111" y="438" type="curve"/>
      <point x="70" y="418"/>
      <point x="32" y="387"/>
      <point x="32" y="332" type="curve" smooth="yes"/>
      <point x="32" y="229"/>
      <point x="170" y="211"/>
      <point x="278" y="201" type="curve" smooth="yes"/>
      <point x="343" y="195"/>
      <point x="405" y="192"/>
      <point x="405" y="143" type="curve" smooth="yes"/>
      <point x="405" y="107"/>
      <point x="372" y="80"/>
      <point x="314" y="80" type="curve" smooth="yes"/>
      <point x="287" y="80"/>
      <point x="215" y="86"/>
      <point x="191" y="94" type="curve"/>
      <point x="196" y="159" type="line"/>
      <point x="96" y="170" type="line"/>
      <point x="77" y="34" type="line"/>
      <point x="149" y="2"/>
      <point x="265" y="-10"/>
      <point x="321" y="-10" type="curve" smooth="yes"/>
      <point x="451" y="-10"/>
      <point x="532" y="56"/>
    </contour>
    <contour>
      <point x="488" y="282" type="curve" smooth="yes"/>
      <point x="488" y="266"/>
      <point x="480" y="258"/>
      <point x="474" y="253" type="curve"/>
      <point x="432" y="277"/>
      <point x="375" y="285"/>
      <point x="325" y="291" type="curve" smooth="yes"/>
      <point x="215" y="304"/>
      <point x="149" y="305"/>
      <point x="149" y="350" type="curve" smooth="yes"/>
      <point x="149" y="368"/>
      <point x="160" y="380"/>
      <point x="172" y="387" type="curve"/>
      <point x="206" y="370"/>
      <point x="245" y="361"/>
      <point x="278" y="357" type="curve" smooth="yes"/>
      <point x="352" y="347"/>
      <point x="488" y="347"/>
    </contour>
    <contour>
      <point x="-10" y="917" type="line"/>
      <point x="641" y="917" type="line"/>
      <point x="641" y="-213" type="line"/>
      <point x="-10" y="-213" type="line"/>
    </contour>
  </outline>
</glyph>
<glyph name="logicalnot" format="1">
  <advance width="569"/>
  <unicode hex="00AC"/>
  <outline>
    <contour>
      <point x="434" y="75" type="line"/>
      <point x="522" y="75" type="line"/>
      <point x="522" y="325" type="line"/>
      <point x="41" y="325" type="line"/>
      <point x="41" y="237" type="line"/>
      <point x="434" y="237" type="line"/>
    </contour>
    <contour>
      <point x="-10" y="917" type="line"/>
      <point x="579" y="917" type="line"/>
      <point x="579" y="-213" type="line"/>
      <point x="-10" y="-213" type="line"/>
    </contour>
  </outline>
</glyph>
<glyph name="paragraph" format="1">
  <advance width="657"/>
  <unicode hex="00B6"/>
  <outline>
    <contour>
      <point x="236" y="650" type="line" smooth="yes"/>
      <point x="100" y="650"/>
      <point x="25" y="575"/>
      <point x="25" y="484" type="curve" smooth="yes"/>
      <point x="25" y="357"/>
      <point x="116" y="310"/>
      <point x="230" y="310" type="curve" smooth="yes"/>
      <point x="276" y="310" type="line"/>
      <point x="276" y="0" type="line"/>
      <point x="396" y="0" type="line"/>
      <point x="396" y="541" type="line"/>
      <point x="436" y="541" type="line"/>
      <point x="436" y="0" type="line"/>
      <point x="556" y="0" type="line"/>
      <point x="556" y="541" type="line"/>
      <point x="620" y="541" type="line"/>
      <point x="620" y="650" type="line"/>
    </contour>
    <contour>
      <point x="-10" y="917" type="line"/>
      <point x="666" y="917" type="line"/>
      <point x="666" y="-213" type="line"/>
      <point x="-10" y="-213" type="line"/>
    </contour>
  </outline>
</glyph>
<glyph name="periodcentered" format="1">
  <advance width="230"/>
  <unicode hex="00B7"/>
  <outline>
    <contour>
      <point x="38" y="251" type="line"/>
      <point x="191" y="251" type="line"/>
      <point x="191" y="414" type="line"/>
      <point x="38" y="414" type="line"/>
    </contour>
    <contour>
      <point x="-10" y="917" type="line"/>
      <point x="241" y="917" type="line"/>
      <point x="241" y="-213" type="line"/>
      <point x="-10" y="-213" type="line"/>
    </contour>
  </outline>
</glyph>
<glyph name="cedilla" format="1">
  <advance width="256"/>
  <unicode hex="00B8"/>
  <outline>
    <contour>
      <point x="301" y="-121" type="curve" smooth="yes"/>
      <point x="301" y="-188"/>
      <point x="235" y="-209"/>
      <point x="171" y="-209" type="curve" smooth="yes"/>
      <point x="122" y="-209"/>
      <point x="77" y="-197"/>
      <point x="55" y="-179" type="curve"/>
      <point x="78" y="-109" type="line"/>
      <point x="93" y="-119"/>
      <point x="119" y="-132"/>
      <point x="156" y="-132" type="curve" smooth="yes"/>
      <point x="184" y="-132"/>
      <point x="192" y="-125"/>
      <point x="192" y="-111" type="curve" smooth="yes"/>
      <point x="192" y="-97"/>
      <point x="185" y="-86"/>
      <point x="153" y="-86" type="curve" smooth="yes"/>
      <point x="116" y="-86" type="line"/>
      <point x="116" y="6" type="line"/>
      <point x="204" y="6" type="line"/>
      <point x="204" y="-41" type="line"/>
      <point x="212" y="-41" type="line" smooth="yes"/>
      <point x="279" y="-41"/>
      <point x="301" y="-82"/>
    </contour>
  </outline>
</glyph>
<glyph name="onequarter" format="1">
  <advance width="744"/>
  <unicode hex="00BC"/>
  <outline>
    <contour>
      <point x="504" y="650" type="line"/>
      <point x="330" y="337" type="line"/>
      <point x="132" y="0" type="line"/>
      <point x="220" y="0" type="line"/>
      <point x="401" y="325" type="line"/>
      <point x="592" y="650" type="line"/>
    </contour>
    <contour>
      <point x="560" y="0" type="line"/>
      <point x="661" y="0" type="line"/>
      <point x="661" y="65" type="line"/>
      <point x="712" y="65" type="line"/>
      <point x="719" y="143" type="line"/>
      <point x="661" y="143" type="line"/>
      <point x="661" y="364" type="line"/>
      <point x="491" y="364" type="line"/>
      <point x="385" y="138" type="line"/>
      <point x="395" y="65" type="line"/>
      <point x="560" y="65" type="line"/>
    </contour>
    <contour>
      <point x="544" y="289" type="line"/>
      <point x="560" y="289" type="line"/>
      <point x="560" y="143" type="line"/>
      <point x="473" y="143" type="line"/>
    </contour>
    <contour>
      <point x="36" y="575" type="line"/>
      <point x="109" y="575" type="line"/>
      <point x="109" y="361" type="line"/>
      <point x="36" y="361" type="line"/>
      <point x="36" y="286" type="line"/>
      <point x="275" y="286" type="line"/>
      <point x="275" y="361" type="line"/>
      <point x="210" y="361" type="line"/>
      <point x="210" y="650" type="line"/>
      <point x="36" y="650" type="line"/>
    </contour>
    <contour>
      <point x="-10" y="917" type="line"/>
      <point x="754" y="917" type="line"/>
      <point x="754" y="-213" type="line"/>
      <point x="-10" y="-213" type="line"/>
    </contour>
  </outline>
</glyph>
<glyph name="Aacute" format="1">
  <advance width="654"/>
  <unicode hex="00C1"/>
  <outline>
    <contour>
      <point x="-10" y="917" type="line"/>
      <point x="-10" y="114" type="line"/>
      <point x="49" y="114" type="line"/>
      <point x="235" y="536" type="line"/>
      <point x="145" y="536" type="line"/>
      <point x="145" y="650" type="line"/>
      <point x="368" y="650" type="line"/>
      <point x="602" y="114" type="line"/>
      <point x="664" y="114" type="line"/>
      <point x="664" y="917" type="line"/>
    </contour>
    <contour>
      <point x="329" y="459" type="line"/>
      <point x="323" y="459" type="line"/>
      <point x="250" y="276" type="line"/>
      <point x="397" y="276" type="line"/>
    </contour>
    <contour>
      <point x="664" y="-213" type="line"/>
      <point x="664" y="0" type="line"/>
      <point x="405" y="0" type="line"/>
      <point x="405" y="114" type="line"/>
      <point x="457" y="114" type="line"/>
      <point x="433" y="180" type="line"/>
      <point x="212" y="180" type="line"/>
      <point x="185" y="114" type="line"/>
      <point x="246" y="114" type="line"/>
      <point x="246" y="0" type="line"/>
      <point x="-10" y="0" type="line"/>
      <point x="-10" y="-213" type="line"/>
    </contour>
    <contour>
      <point x="279" y="688" type="line"/>
      <point x="263" y="745" type="line"/>
      <point x="465" y="833" type="line"/>
      <point x="494" y="716" type="line"/>
    </contour>
  </outline>
</glyph>
<glyph name="Acircumflex" format="1">
  <advance width="654"/>
  <unicode hex="00C2"/>
  <outline>
    <contour>
      <point x="-10" y="917" type="line"/>
      <point x="-10" y="114" type="line"/>
      <point x="49" y="114" type="line"/>
      <point x="235" y="536" type="line"/>
      <point x="145" y="536" type="line"/>
      <point x="145" y="650" type="line"/>
      <point x="368" y="650" type="line"/>
      <point x="602" y="114" type="line"/>
      <point x="664" y="114" type="line"/>
      <point x="664" y="917" type="line"/>
    </contour>
    <contour>
      <point x="329" y="459" type="line"/>
      <point x="323" y="459" type="line"/>
      <point x="250" y="276" type="line"/>
      <point x="397" y="276" type="line"/>
    </contour>
    <contour>
      <point x="664" y="-213" type="line"/>
      <point x="664" y="0" type="line"/>
      <point x="405" y="0" type="line"/>
      <point x="405" y="114" type="line"/>
      <point x="457" y="114" type="line"/>
      <point x="433" y="180" type="line"/>
      <point x="212" y="180" type="line"/>
      <point x="185" y="114" type="line"/>
      <point x="246" y="114" type="line"/>
      <point x="246" y="0" type="line"/>
      <point x="-10" y="0" type="line"/>
      <point x="-10" y="-213" type="line"/>
    </contour>
    <contour>
      <point x="440" y="685" type="line"/>
      <point x="305" y="745" type="line"/>
      <point x="181" y="685" type="line"/>
      <point x="152" y="738" type="line"/>
      <point x="287" y="844" type="line"/>
      <point x="332" y="844" type="line"/>
      <point x="468" y="737" type="line"/>
    </contour>
  </outline>
</glyph>
<glyph name="Atilde" format="1">
  <advance width="654"/>
  <unicode hex="00C3"/>
  <outline>
    <contour>
      <point x="-10" y="917" type="line"/>
      <point x="-10" y="114" type="line"/>
      <point x="49" y="114" type="line"/>
      <point x="235" y="536" type="line"/>
      <point x="145" y="536" type="line"/>
      <point x="145" y="650" type="line"/>
      <point x="368" y="650" type="line"/>
      <point x="602" y="114" type="line"/>
      <point x="664" y="114" type="line"/>
      <point x="664" y="917" type="line"/>
    </contour>
    <contour>
      <point x="329" y="459" type="line"/>
      <point x="323" y="459" type="line"/>
      <point x="250" y="276" type="line"/>
      <point x="397" y="276" type="line"/>
    </contour>
    <contour>
      <point x="664" y="-213" type="line"/>
      <point x="664" y="0" type="line"/>
      <point x="405" y="0" type="line"/>
      <point x="405" y="114" type="line"/>
      <point x="457" y="114" type="line"/>
      <point x="433" y="180" type="line"/>
      <point x="212" y="180" type="line"/>
      <point x="185" y="114" type="line"/>
      <point x="246" y="114" type="line"/>
      <point x="246" y="0" type="line"/>
      <point x="-10" y="0" type="line"/>
      <point x="-10" y="-213" type="line"/>
    </contour>
    <contour>
      <point x="467" y="820" type="line"/>
      <point x="467" y="762"/>
      <point x="451" y="700"/>
      <point x="382" y="700" type="curve" smooth="yes"/>
      <point x="333" y="700"/>
      <point x="302" y="731"/>
      <point x="256" y="731" type="curve" smooth="yes"/>
      <point x="234" y="731"/>
      <point x="221" y="724"/>
      <point x="214" y="698" type="curve"/>
      <point x="164" y="714" type="line"/>
      <point x="161" y="751"/>
      <point x="182" y="824"/>
      <point x="250" y="824" type="curve" smooth="yes"/>
      <point x="294" y="824"/>
      <point x="331" y="793"/>
      <point x="365" y="793" type="curve" smooth="yes"/>
      <point x="384" y="793"/>
      <point x="404" y="802"/>
      <point x="413" y="831" type="curve"/>
    </contour>
  </outline>
</glyph>
<glyph name="Adieresis" format="1">
  <advance width="654"/>
  <unicode hex="00C4"/>
  <outline>
    <contour>
      <point x="-10" y="917" type="line"/>
      <point x="-10" y="114" type="line"/>
      <point x="49" y="114" type="line"/>
      <point x="235" y="536" type="line"/>
      <point x="145" y="536" type="line"/>
      <point x="145" y="650" type="line"/>
      <point x="368" y="650" type="line"/>
      <point x="602" y="114" type="line"/>
      <point x="664" y="114" type="line"/>
      <point x="664" y="917" type="line"/>
    </contour>
    <contour>
      <point x="329" y="459" type="line"/>
      <point x="323" y="459" type="line"/>
      <point x="250" y="276" type="line"/>
      <point x="397" y="276" type="line"/>
    </contour>
    <contour>
      <point x="664" y="-213" type="line"/>
      <point x="664" y="0" type="line"/>
      <point x="405" y="0" type="line"/>
      <point x="405" y="114" type="line"/>
      <point x="457" y="114" type="line"/>
      <point x="433" y="180" type="line"/>
      <point x="212" y="180" type="line"/>
      <point x="185" y="114" type="line"/>
      <point x="246" y="114" type="line"/>
      <point x="246" y="0" type="line"/>
      <point x="-10" y="0" type="line"/>
      <point x="-10" y="-213" type="line"/>
    </contour>
    <contour>
      <point x="163" y="839" type="line"/>
      <point x="292" y="839" type="line"/>
      <point x="292" y="705" type="line"/>
      <point x="163" y="705" type="line"/>
    </contour>
    <contour>
      <point x="348" y="839" type="line"/>
      <point x="477" y="839" type="line"/>
      <point x="477" y="705" type="line"/>
      <point x="348" y="705" type="line"/>
    </contour>
  </outline>
</glyph>
<glyph name="Aring" format="1">
  <advance width="654"/>
  <unicode hex="00C5"/>
  <outline>
    <contour>
      <point x="-10" y="917" type="line"/>
      <point x="-10" y="114" type="line"/>
      <point x="49" y="114" type="line"/>
      <point x="235" y="536" type="line"/>
      <point x="145" y="536" type="line"/>
      <point x="145" y="650" type="line"/>
      <point x="368" y="650" type="line"/>
      <point x="602" y="114" type="line"/>
      <point x="664" y="114" type="line"/>
      <point x="664" y="917" type="line"/>
    </contour>
    <contour>
      <point x="329" y="459" type="line"/>
      <point x="323" y="459" type="line"/>
      <point x="250" y="276" type="line"/>
      <point x="397" y="276" type="line"/>
    </contour>
    <contour>
      <point x="664" y="-213" type="line"/>
      <point x="664" y="0" type="line"/>
      <point x="405" y="0" type="line"/>
      <point x="405" y="114" type="line"/>
      <point x="457" y="114" type="line"/>
      <point x="433" y="180" type="line"/>
      <point x="212" y="180" type="line"/>
      <point x="185" y="114" type="line"/>
      <point x="246" y="114" type="line"/>
      <point x="246" y="0" type="line"/>
      <point x="-10" y="0" type="line"/>
      <point x="-10" y="-213" type="line"/>
    </contour>
    <contour>
      <point x="422" y="783" type="curve" smooth="yes"/>
      <point x="422" y="728"/>
      <point x="389" y="689"/>
      <point x="316" y="689" type="curve" smooth="yes"/>
      <point x="246" y="689"/>
      <point x="213" y="725"/>
      <point x="213" y="780" type="curve" smooth="yes"/>
      <point x="213" y="836"/>
      <point x="247" y="873"/>
      <point x="319" y="873" type="curve" smooth="yes"/>
      <point x="392" y="873"/>
      <point x="422" y="835"/>
    </contour>
    <contour>
      <point x="342" y="785" type="curve" smooth="yes"/>
      <point x="342" y="798"/>
      <point x="341" y="813"/>
      <point x="318" y="813" type="curve" smooth="yes"/>
      <point x="296" y="813"/>
      <point x="293" y="800"/>
      <point x="293" y="780" type="curve" smooth="yes"/>
      <point x="293" y="760"/>
      <point x="296" y="749"/>
      <point x="317" y="749" type="curve" smooth="yes"/>
      <point x="339" y="749"/>
      <point x="342" y="762"/>
    </contour>
  </outline>
</glyph>
<glyph name="AE" format="1">
  <advance width="920"/>
  <unicode hex="00C6"/>
  <outline>
    <contour>
      <point x="267" y="536" type="line"/>
      <point x="185" y="536" type="line"/>
      <point x="185" y="650" type="line"/>
      <point x="859" y="650" type="line"/>
      <point x="879" y="460" type="line"/>
      <point x="765" y="450" type="line"/>
      <point x="745" y="536" type="line"/>
      <point x="571" y="536" type="line"/>
      <point x="571" y="383" type="line"/>
      <point x="845" y="383" type="line"/>
      <point x="845" y="270" type="line"/>
      <point x="571" y="270" type="line"/>
      <point x="571" y="114" type="line"/>
      <point x="751" y="114" type="line"/>
      <point x="771" y="200" type="line"/>
      <point x="885" y="190" type="line"/>
      <point x="865" y="0" type="line"/>
      <point x="367" y="0" type="line"/>
      <point x="367" y="114" type="line"/>
      <point x="437" y="114" type="line"/>
      <point x="437" y="180" type="line"/>
      <point x="221" y="180" type="line"/>
      <point x="190" y="114" type="line"/>
      <point x="246" y="114" type="line"/>
      <point x="246" y="0" type="line"/>
      <point x="-10" y="0" type="line"/>
      <point x="-10" y="-213" type="line"/>
      <point x="930" y="-213" type="line"/>
      <point x="930" y="917" type="line"/>
      <point x="-10" y="917" type="line"/>
      <point x="-10" y="114" type="line"/>
      <point x="54" y="114" type="line"/>
    </contour>
    <contour>
      <point x="437" y="536" type="line"/>
      <point x="389" y="536" type="line"/>
      <point x="266" y="276" type="line"/>
      <point x="437" y="276" type="line"/>
    </contour>
  </outline>
</glyph>
<glyph name="Ccedilla" format="1">
  <advance width="643"/>
  <unicode hex="00C7"/>
  <outline>
    <contour>
      <point x="-10" y="-213" type="line"/>
      <point x="653" y="-213" type="line"/>
      <point x="653" y="917" type="line"/>
      <point x="-10" y="917" type="line"/>
    </contour>
    <contour>
      <point x="471" y="-121" type="curve" smooth="yes"/>
      <point x="471" y="-188"/>
      <point x="405" y="-209"/>
      <point x="341" y="-209" type="curve" smooth="yes"/>
      <point x="292" y="-209"/>
      <point x="247" y="-197"/>
      <point x="225" y="-179" type="curve"/>
      <point x="248" y="-109" type="line"/>
      <point x="263" y="-119"/>
      <point x="289" y="-132"/>
      <point x="326" y="-132" type="curve" smooth="yes"/>
      <point x="354" y="-132"/>
      <point x="362" y="-125"/>
      <point x="362" y="-111" type="curve" smooth="yes"/>
      <point x="362" y="-97"/>
      <point x="355" y="-86"/>
      <point x="323" y="-86" type="curve" smooth="yes"/>
      <point x="286" y="-86" type="line"/>
      <point x="286" y="-4" type="line"/>
      <point x="133" y="22"/>
      <point x="24" y="144"/>
      <point x="24" y="314" type="curve" smooth="yes"/>
      <point x="24" y="465"/>
      <point x="110" y="660"/>
      <point x="357" y="660" type="curve" smooth="yes"/>
      <point x="468" y="660"/>
      <point x="549" y="621"/>
      <point x="591" y="582" type="curve"/>
      <point x="607" y="431" type="line"/>
      <point x="498" y="421" type="line"/>
      <point x="484" y="507" type="line"/>
      <point x="450" y="530"/>
      <point x="395" y="542"/>
      <point x="351" y="542" type="curve" smooth="yes"/>
      <point x="239" y="542"/>
      <point x="168" y="465"/>
      <point x="168" y="323" type="curve" smooth="yes"/>
      <point x="168" y="172"/>
      <point x="248" y="108"/>
      <point x="360" y="108" type="curve" smooth="yes"/>
      <point x="409" y="108"/>
      <point x="459" y="120"/>
      <point x="484" y="135" type="curve"/>
      <point x="498" y="232" type="line"/>
      <point x="607" y="222" type="line"/>
      <point x="594" y="69" type="line"/>
      <point x="554" y="26"/>
      <point x="461" y="-4"/>
      <point x="374" y="-9" type="curve"/>
      <point x="374" y="-41" type="line"/>
      <point x="382" y="-41" type="line" smooth="yes"/>
      <point x="449" y="-41"/>
      <point x="471" y="-82"/>
    </contour>
  </outline>
</glyph>
<glyph name="Egrave" format="1">
  <advance width="594"/>
  <unicode hex="00C8"/>
  <outline>
    <contour>
      <point x="398" y="688" type="line"/>
      <point x="183" y="716" type="line"/>
      <point x="212" y="833" type="line"/>
      <point x="414" y="745" type="line"/>
    </contour>
    <contour>
      <point x="39" y="0" type="line"/>
      <point x="39" y="114" type="line"/>
      <point x="109" y="114" type="line"/>
      <point x="109" y="536" type="line"/>
      <point x="39" y="536" type="line"/>
      <point x="39" y="650" type="line"/>
      <point x="535" y="650" type="line"/>
      <point x="555" y="460" type="line"/>
      <point x="441" y="450" type="line"/>
      <point x="421" y="536" type="line"/>
      <point x="243" y="536" type="line"/>
      <point x="243" y="383" type="line"/>
      <point x="517" y="383" type="line"/>
      <point x="517" y="270" type="line"/>
      <point x="243" y="270" type="line"/>
      <point x="243" y="114" type="line"/>
      <point x="427" y="114" type="line"/>
      <point x="447" y="200" type="line"/>
      <point x="561" y="190" type="line"/>
      <point x="541" y="0" type="line"/>
    </contour>
    <contour>
      <point x="-10" y="-213" type="line"/>
      <point x="604" y="-213" type="line"/>
      <point x="604" y="917" type="line"/>
      <point x="-10" y="917" type="line"/>
    </contour>
  </outline>
</glyph>
<glyph name="Edieresis" format="1">
  <advance width="594"/>
  <unicode hex="00CB"/>
  <outline>
    <contour>
      <point x="163" y="839" type="line"/>
      <point x="292" y="839" type="line"/>
      <point x="292" y="705" type="line"/>
      <point x="163" y="705" type="line"/>
    </contour>
    <contour>
      <point x="348" y="839" type="line"/>
      <point x="477" y="839" type="line"/>
      <point x="477" y="705" type="line"/>
      <point x="348" y="705" type="line"/>
    </contour>
    <contour>
      <point x="39" y="0" type="line"/>
      <point x="39" y="114" type="line"/>
      <point x="109" y="114" type="line"/>
      <point x="109" y="536" type="line"/>
      <point x="39" y="536" type="line"/>
      <point x="39" y="650" type="line"/>
      <point x="535" y="650" type="line"/>
      <point x="555" y="460" type="line"/>
      <point x="441" y="450" type="line"/>
      <point x="421" y="536" type="line"/>
      <point x="243" y="536" type="line"/>
      <point x="243" y="383" type="line"/>
      <point x="517" y="383" type="line"/>
      <point x="517" y="270" type="line"/>
      <point x="243" y="270" type="line"/>
      <point x="243" y="114" type="line"/>
      <point x="427" y="114" type="line"/>
      <point x="447" y="200" type="line"/>
      <point x="561" y="190" type="line"/>
      <point x="541" y="0" type="line"/>
    </contour>
    <contour>
      <point x="-10" y="-213" type="line"/>
      <point x="604" y="-213" type="line"/>
      <point x="604" y="917" type="line"/>
      <point x="-10" y="917" type="line"/>
    </contour>
  </outline>
</glyph>
<glyph name="Igrave" format="1">
  <advance width="353"/>
  <unicode hex="00CC"/>
  <outline>
    <contour>
      <point x="39" y="0" type="line"/>
      <point x="39" y="114" type="line"/>
      <point x="109" y="114" type="line"/>
      <point x="109" y="536" type="line"/>
      <point x="39" y="536" type="line"/>
      <point x="39" y="650" type="line"/>
      <point x="313" y="650" type="line"/>
      <point x="313" y="536" type="line"/>
      <point x="243" y="536" type="line"/>
      <point x="243" y="114" type="line"/>
      <point x="313" y="114" type="line"/>
      <point x="313" y="0" type="line"/>
    </contour>
    <contour>
      <point x="-10" y="-213" type="line"/>
      <point x="363" y="-213" type="line"/>
      <point x="363" y="917" type="line"/>
      <point x="-10" y="917" type="line"/>
    </contour>
    <contour>
      <point x="253" y="688" type="line"/>
      <point x="38" y="716" type="line"/>
      <point x="67" y="833" type="line"/>
      <point x="269" y="745" type="line"/>
    </contour>
  </outline>
</glyph>
<glyph name="Ntilde" format="1">
  <advance width="760"/>
  <unicode hex="00D1"/>
  <outline>
    <contour>
      <point x="526" y="820" type="line"/>
      <point x="526" y="762"/>
      <point x="510" y="700"/>
      <point x="441" y="700" type="curve" smooth="yes"/>
      <point x="392" y="700"/>
      <point x="361" y="731"/>
      <point x="315" y="731" type="curve" smooth="yes"/>
      <point x="293" y="731"/>
      <point x="280" y="724"/>
      <point x="273" y="698" type="curve"/>
      <point x="223" y="714" type="line"/>
      <point x="220" y="751"/>
      <point x="241" y="824"/>
      <point x="309" y="824" type="curve" smooth="yes"/>
      <point x="353" y="824"/>
      <point x="390" y="793"/>
      <point x="424" y="793" type="curve" smooth="yes"/>
      <point x="443" y="793"/>
      <point x="463" y="802"/>
      <point x="472" y="831" type="curve"/>
    </contour>
    <contour>
      <point x="663" y="536" type="line"/>
      <point x="663" y="0" type="line"/>
      <point x="588" y="-1" type="line"/>
      <point x="239" y="412" type="line"/>
      <point x="235" y="412" type="line"/>
      <point x="235" y="114" type="line"/>
      <point x="325" y="114" type="line"/>
      <point x="325" y="0" type="line"/>
      <point x="40" y="0" type="line"/>
      <point x="40" y="114" type="line"/>
      <point x="110" y="114" type="line"/>
      <point x="110" y="536" type="line"/>
      <point x="29" y="536" type="line"/>
      <point x="29" y="650" type="line"/>
      <point x="206" y="650" type="line"/>
      <point x="534" y="264" type="line"/>
      <point x="538" y="264" type="line"/>
      <point x="538" y="536" type="line"/>
      <point x="444" y="536" type="line"/>
      <point x="444" y="650" type="line"/>
      <point x="733" y="650" type="line"/>
      <point x="733" y="536" type="line"/>
    </contour>
    <contour>
      <point x="-10" y="-213" type="line"/>
      <point x="770" y="-213" type="line"/>
      <point x="770" y="917" type="line"/>
      <point x="-10" y="917" type="line"/>
    </contour>
  </outline>
</glyph>
<glyph name="Oslash" format="1">
  <advance width="712"/>
  <unicode hex="00D8"/>
  <outline>
    <contour>
      <point x="-10" y="-213" type="line"/>
      <point x="722" y="-213" type="line"/>
      <point x="722" y="917" type="line"/>
      <point x="-10" y="917" type="line"/>
    </contour>
    <contour>
      <point x="688" y="326" type="curve" smooth="yes"/>
      <point x="688" y="142"/>
      <point x="564" y="-10"/>
      <point x="353" y="-10" type="curve" smooth="yes"/>
      <point x="281" y="-10"/>
      <point x="220" y="7"/>
      <point x="171" y="37" type="curve"/>
      <point x="140" y="0" type="line"/>
      <point x="25" y="0" type="line"/>
      <point x="104" y="95" type="line"/>
      <point x="51" y="155"/>
      <point x="24" y="236"/>
      <point x="24" y="324" type="curve" smooth="yes"/>
      <point x="24" y="514"/>
      <point x="153" y="660"/>
      <point x="357" y="660" type="curve" smooth="yes"/>
      <point x="426" y="660"/>
      <point x="485" y="643"/>
      <point x="534" y="614" type="curve"/>
      <point x="563" y="650" type="line"/>
      <point x="689" y="650" type="line"/>
      <point x="608" y="554" type="line"/>
      <point x="660" y="494"/>
      <point x="688" y="413"/>
    </contour>
    <contour>
      <point x="543" y="322" type="curve" smooth="yes"/>
      <point x="543" y="371"/>
      <point x="534" y="413"/>
      <point x="518" y="447" type="curve"/>
      <point x="254" y="135" type="line"/>
      <point x="281" y="118"/>
      <point x="316" y="108"/>
      <point x="360" y="108" type="curve" smooth="yes"/>
      <point x="487" y="108"/>
      <point x="543" y="195"/>
    </contour>
    <contour>
      <point x="356" y="542" type="curve" smooth="yes"/>
      <point x="227" y="542"/>
      <point x="169" y="450"/>
      <point x="169" y="327" type="curve" smooth="yes"/>
      <point x="169" y="282"/>
      <point x="177" y="240"/>
      <point x="194" y="204" type="curve"/>
      <point x="454" y="518" type="line"/>
      <point x="427" y="533"/>
      <point x="394" y="542"/>
    </contour>
  </outline>
</glyph>
<glyph name="Thorn" format="1">
  <advance width="608"/>
  <unicode hex="00DE"/>
  <outline>
    <contour>
      <point x="-10" y="-213" type="line"/>
      <point x="618" y="-213" type="line"/>
      <point x="618" y="917" type="line"/>
      <point x="-10" y="917" type="line"/>
    </contour>
    <contour>
      <point x="39" y="0" type="line"/>
      <point x="39" y="114" type="line"/>
      <point x="109" y="114" type="line"/>
      <point x="109" y="536" type="line"/>
      <point x="39" y="536" type="line"/>
      <point x="39" y="650" type="line"/>
      <point x="313" y="650" type="line"/>
      <point x="313" y="536" type="line"/>
      <point x="243" y="536" type="line"/>
      <point x="243" y="516" type="line"/>
      <point x="347" y="516" type="line" smooth="yes"/>
      <point x="507" y="516"/>
      <point x="594" y="457"/>
      <point x="594" y="335" type="curve" smooth="yes"/>
      <point x="594" y="196"/>
      <point x="482" y="144"/>
      <point x="353" y="144" type="curve" smooth="yes"/>
      <point x="243" y="144" type="line"/>
      <point x="243" y="114" type="line"/>
      <point x="313" y="114" type="line"/>
      <point x="313" y="0" type="line"/>
    </contour>
    <contour>
      <point x="328" y="227" type="line" smooth="yes"/>
      <point x="420" y="227"/>
      <point x="450" y="269"/>
      <point x="450" y="332" type="curve" smooth="yes"/>
      <point x="450" y="396"/>
      <point x="419" y="432"/>
      <point x="330" y="432" type="curve" smooth="yes"/>
      <point x="243" y="432" type="line"/>
      <point x="243" y="227" type="line"/>
    </contour>
  </outline>
</glyph>
<glyph name="germandbls" format="1">
  <advance width="685"/>
  <unicode hex="00DF"/>
  <outline>
    <contour>
      <point x="681" y="137" type="curve" smooth="yes"/>
      <point x="681" y="315"/>
      <point x="418" y="235"/>
      <point x="418" y="329" type="curve" smooth="yes"/>
      <point x="418" y="409"/>
      <point x="608" y="399"/>
      <point x="608" y="538" type="curve" smooth="yes"/>
      <point x="608" y="621"/>
      <point x="541" y="698"/>
      <point x="361" y="698" type="curve" smooth="yes"/>
      <point x="221" y="698"/>
      <point x="88" y="651"/>
      <point x="88" y="493" type="curve" smooth="yes"/>
      <point x="88" y="451" type="line"/>
      <point x="33" y="451" type="line"/>
      <point x="33" y="353" type="line"/>
      <point x="88" y="353" type="line"/>
      <point x="88" y="98" type="line"/>
      <point x="28" y="98" type="line"/>
      <point x="28" y="0" type="line"/>
      <point x="217" y="0" type="line"/>
      <point x="217" y="481" type="line" smooth="yes"/>
      <point x="217" y="561"/>
      <point x="257" y="602"/>
      <point x="359" y="602" type="curve" smooth="yes"/>
      <point x="442" y="602"/>
      <point x="477" y="575"/>
      <point x="477" y="530" type="curve" smooth="yes"/>
      <point x="477" y="422"/>
      <point x="279" y="462"/>
      <point x="279" y="316" type="curve" smooth="yes"/>
      <point x="279" y="144"/>
      <point x="551" y="214"/>
      <point x="551" y="131" type="curve" smooth="yes"/>
      <point x="551" y="100"/>
      <point x="511" y="88"/>
      <point x="452" y="88" type="curve"/>
      <point x="438" y="88"/>
      <point x="408" y="89"/>
      <point x="384" y="97" type="curve"/>
      <point x="384" y="149" type="line"/>
      <point x="284" y="160" type="line"/>
      <point x="266" y="34" type="line"/>
      <point x="326" y="3"/>
      <point x="394" y="-10"/>
      <point x="459" y="-10" type="curve" smooth="yes"/>
      <point x="596" y="-10"/>
      <point x="681" y="37"/>
    </contour>
    <contour>
      <point x="-10" y="917" type="line"/>
      <point x="695" y="917" type="line"/>
      <point x="695" y="-213" type="line"/>
      <point x="-10" y="-213" type="line"/>
    </contour>
  </outline>
</glyph>
<glyph name="acircumflex" format="1">
  <advance width="507"/>
  <unicode hex="00E2"/>
  <outline>
    <contour>
      <point x="-10" y="-213" type="line"/>
      <point x="517" y="-213" type="line"/>
      <point x="517" y="917" type="line"/>
      <point x="-10" y="917" type="line"/>
    </contour>
    <contour>
      <point x="68" y="419" type="line"/>
      <point x="147" y="451"/>
      <point x="187" y="460"/>
      <point x="261" y="460" type="curve" smooth="yes"/>
      <point x="358" y="460"/>
      <point x="440" y="410"/>
      <point x="440" y="307" type="curve" smooth="yes"/>
      <point x="440" y="111" type="line" smooth="yes"/>
      <point x="440" y="85"/>
      <point x="450" y="76"/>
      <point x="471" y="76" type="curve" smooth="yes"/>
      <point x="477" y="76"/>
      <point x="483" y="77"/>
      <point x="490" y="79" type="curve"/>
      <point x="491" y="11" type="line"/>
      <point x="467" y="-2"/>
      <point x="438" y="-10"/>
      <point x="410" y="-10" type="curve" smooth="yes"/>
      <point x="350" y="-10"/>
      <point x="317" y="25"/>
      <point x="311" y="79" type="curve"/>
      <point x="311" y="80" type="line"/>
      <point x="285" y="34"/>
      <point x="239" y="-10"/>
      <point x="166" y="-10" type="curve" smooth="yes"/>
      <point x="101" y="-10"/>
      <point x="27" y="25"/>
      <point x="27" y="119" type="curve" smooth="yes"/>
      <point x="27" y="230"/>
      <point x="134" y="256"/>
      <point x="237" y="256" type="curve" smooth="yes"/>
      <point x="262" y="256"/>
      <point x="288" y="255"/>
      <point x="311" y="252" type="curve"/>
      <point x="311" y="267" type="line" smooth="yes"/>
      <point x="311" y="313"/>
      <point x="310" y="368"/>
      <point x="237" y="368" type="curve" smooth="yes"/>
      <point x="210" y="368"/>
      <point x="189" y="366"/>
      <point x="168" y="355" type="curve"/>
      <point x="151" y="291" type="line"/>
      <point x="48" y="302" type="line"/>
    </contour>
    <contour>
      <point x="379" y="508" type="line"/>
      <point x="244" y="575" type="line"/>
      <point x="132" y="507" type="line"/>
      <point x="97" y="558" type="line"/>
      <point x="232" y="684" type="line"/>
      <point x="277" y="684" type="line"/>
      <point x="413" y="557" type="line"/>
    </contour>
    <contour>
      <point x="311" y="184" type="curve"/>
      <point x="311" y="190" type="line"/>
      <point x="290" y="193"/>
      <point x="267" y="196"/>
      <point x="246" y="196" type="curve" smooth="yes"/>
      <point x="200" y="196"/>
      <point x="160" y="183"/>
      <point x="160" y="134" type="curve" smooth="yes"/>
      <point x="160" y="105"/>
      <point x="174" y="82"/>
      <point x="213" y="82" type="curve" smooth="yes"/>
      <point x="258" y="82"/>
      <point x="305" y="113"/>
    </contour>
  </outline>
</glyph>
<glyph name="igrave" format="1">
  <advance width="299"/>
  <unicode hex="00EC"/>
  <outline>
    <contour>
      <point x="32" y="0" type="line"/>
      <point x="32" y="97" type="line"/>
      <point x="92" y="97" type="line"/>
      <point x="92" y="353" type="line"/>
      <point x="27" y="353" type="line"/>
      <point x="27" y="451" type="line"/>
      <point x="221" y="451" type="line"/>
      <point x="221" y="97" type="line"/>
      <point x="281" y="97" type="line"/>
      <point x="281" y="0" type="line"/>
    </contour>
    <contour>
      <point x="-10" y="-213" type="line"/>
      <point x="309" y="-213" type="line"/>
      <point x="309" y="917" type="line"/>
      <point x="-10" y="917" type="line"/>
    </contour>
    <contour>
      <point x="200" y="508" type="line"/>
      <point x="5" y="599" type="line"/>
      <point x="72" y="700" type="line"/>
      <point x="234" y="557" type="line"/>
    </contour>
  </outline>
</glyph>
<glyph name="idieresis" format="1">
  <advance width="299"/>
  <unicode hex="00EF"/>
  <outline>
    <contour>
      <point x="4" y="655" type="line"/>
      <point x="123" y="655" type="line"/>
      <point x="123" y="531" type="line"/>
      <point x="4" y="531" type="line"/>
    </contour>
    <contour>
      <point x="175" y="655" type="line"/>
      <point x="294" y="655" type="line"/>
      <point x="294" y="531" type="line"/>
      <point x="175" y="531" type="line"/>
    </contour>
    <contour>
      <point x="32" y="0" type="line"/>
      <point x="32" y="97" type="line"/>
      <point x="92" y="97" type="line"/>
      <point x="92" y="353" type="line"/>
      <point x="27" y="353" type="line"/>
      <point x="27" y="451" type="line"/>
      <point x="221" y="451" type="line"/>
      <point x="221" y="97" type="line"/>
      <point x="281" y="97" type="line"/>
      <point x="281" y="0" type="line"/>
    </contour>
    <contour>
      <point x="-10" y="-213" type="line"/>
      <point x="309" y="-213" type="line"/>
      <point x="309" y="917" type="line"/>
      <point x="-10" y="917" type="line"/>
    </contour>
  </outline>
</glyph>
<glyph name="ntilde" format="1">
  <advance width="593"/>
  <unicode hex="00F1"/>
  <outline>
    <contour>
      <point x="332" y="0" type="line"/>
      <point x="332" y="97" type="line"/>
      <point x="392" y="97" type="line"/>
      <point x="392" y="254" type="line" smooth="yes"/>
      <point x="392" y="332"/>
      <point x="366" y="362"/>
      <point x="315" y="362" type="curve" smooth="yes"/>
      <point x="254" y="362"/>
      <point x="219" y="320"/>
      <point x="218" y="259" type="curve"/>
      <point x="218" y="97" type="line"/>
      <point x="278" y="97" type="line"/>
      <point x="278" y="0" type="line"/>
      <point x="29" y="0" type="line"/>
      <point x="29" y="97" type="line"/>
      <point x="89" y="97" type="line"/>
      <point x="89" y="353" type="line"/>
      <point x="24" y="353" type="line"/>
      <point x="24" y="451" type="line"/>
      <point x="218" y="451" type="line"/>
      <point x="218" y="382" type="line"/>
      <point x="246" y="431"/>
      <point x="297" y="460"/>
      <point x="363" y="460" type="curve" smooth="yes"/>
      <point x="448" y="460"/>
      <point x="521" y="411"/>
      <point x="521" y="304" type="curve" smooth="yes"/>
      <point x="521" y="97" type="line"/>
      <point x="581" y="97" type="line"/>
      <point x="581" y="0" type="line"/>
    </contour>
    <contour>
      <point x="-10" y="-213" type="line"/>
      <point x="603" y="-213" type="line"/>
      <point x="603" y="917" type="line"/>
      <point x="-10" y="917" type="line"/>
    </contour>
    <contour>
      <point x="451" y="647" type="line"/>
      <point x="451" y="589"/>
      <point x="434" y="517"/>
      <point x="368" y="517" type="curve" smooth="yes"/>
      <point x="317" y="517"/>
      <point x="283" y="558"/>
      <point x="243" y="558" type="curve" smooth="yes"/>
      <point x="220" y="558"/>
      <point x="206" y="544"/>
      <point x="198" y="515" type="curve"/>
      <point x="148" y="531" type="line"/>
      <point x="145" y="569"/>
      <point x="167" y="655"/>
      <point x="233" y="655" type="curve" smooth="yes"/>
      <point x="278" y="655"/>
      <point x="316" y="617"/>
      <point x="350" y="617" type="curve" smooth="yes"/>
      <point x="369" y="617"/>
      <point x="388" y="629"/>
      <point x="397" y="658" type="curve"/>
    </contour>
  </outline>
</glyph>
<glyph name="ograve" format="1">
  <advance width="523"/>
  <unicode hex="00F2"/>
  <outline>
    <contour>
      <point x="262" y="461" type="curve" smooth="yes"/>
      <point x="425" y="461"/>
      <point x="503" y="352"/>
      <point x="503" y="225" type="curve" smooth="yes"/>
      <point x="503" y="82"/>
      <point x="399" y="-10"/>
      <point x="255" y="-10" type="curve" smooth="yes"/>
      <point x="116" y="-10"/>
      <point x="20" y="75"/>
      <point x="20" y="220" type="curve" smooth="yes"/>
      <point x="20" y="352"/>
      <point x="100" y="461"/>
    </contour>
    <contour>
      <point x="259" y="89" type="curve" smooth="yes"/>
      <point x="326" y="89"/>
      <point x="370" y="143"/>
      <point x="370" y="229" type="curve" smooth="yes"/>
      <point x="370" y="321"/>
      <point x="321" y="362"/>
      <point x="260" y="362" type="curve" smooth="yes"/>
      <point x="194" y="362"/>
      <point x="153" y="312"/>
      <point x="153" y="227" type="curve" smooth="yes"/>
      <point x="153" y="150"/>
      <point x="189" y="89"/>
    </contour>
    <contour>
      <point x="-10" y="-213" type="line"/>
      <point x="533" y="-213" type="line"/>
      <point x="533" y="917" type="line"/>
      <point x="-10" y="917" type="line"/>
    </contour>
    <contour>
      <point x="303" y="508" type="line"/>
      <point x="108" y="599" type="line"/>
      <point x="175" y="700" type="line"/>
      <point x="337" y="557" type="line"/>
    </contour>
  </outline>
</glyph>
<glyph name="ocircumflex" format="1">
  <advance width="523"/>
  <unicode hex="00F4"/>
  <outline>
    <contour>
      <point x="396" y="508" type="line"/>
      <point x="261" y="575" type="line"/>
      <point x="149" y="507" type="line"/>
      <point x="114" y="558" type="line"/>
      <point x="249" y="684" type="line"/>
      <point x="294" y="684" type="line"/>
      <point x="430" y="557" type="line"/>
    </contour>
    <contour>
      <point x="262" y="461" type="curve" smooth="yes"/>
      <point x="425" y="461"/>
      <point x="503" y="352"/>
      <point x="503" y="225" type="curve" smooth="yes"/>
      <point x="503" y="82"/>
      <point x="399" y="-10"/>
      <point x="255" y="-10" type="curve" smooth="yes"/>
      <point x="116" y="-10"/>
      <point x="20" y="75"/>
      <point x="20" y="220" type="curve" smooth="yes"/>
      <point x="20" y="352"/>
      <point x="100" y="461"/>
    </contour>
    <contour>
      <point x="259" y="89" type="curve" smooth="yes"/>
      <point x="326" y="89"/>
      <point x="370" y="143"/>
      <point x="370" y="229" type="curve" smooth="yes"/>
      <point x="370" y="321"/>
      <point x="321" y="362"/>
      <point x="260" y="362" type="curve" smooth="yes"/>
      <point x="194" y="362"/>
      <point x="153" y="312"/>
      <point x="153" y="227" type="curve" smooth="yes"/>
      <point x="153" y="150"/>
      <point x="189" y="89"/>
    </contour>
    <contour>
      <point x="-10" y="-213" type="line"/>
      <point x="533" y="-213" type="line"/>
      <point x="533" y="917" type="line"/>
      <point x="-10" y="917" type="line"/>
    </contour>
  </outline>
</glyph>
<glyph name="divide" format="1">
  <advance width="406"/>
  <unicode hex="00F7"/>
  <outline>
    <contour>
      <point x="376" y="237" type="line"/>
      <point x="376" y="325" type="line"/>
      <point x="29" y="325" type="line"/>
      <point x="29" y="237" type="line"/>
    </contour>
    <contour>
      <point x="126" y="361" type="line"/>
      <point x="279" y="361" type="line"/>
      <point x="279" y="524" type="line"/>
      <point x="126" y="524" type="line"/>
    </contour>
    <contour>
      <point x="126" y="39" type="line"/>
      <point x="279" y="39" type="line"/>
      <point x="279" y="202" type="line"/>
      <point x="126" y="202" type="line"/>
    </contour>
    <contour>
      <point x="-10" y="917" type="line"/>
      <point x="416" y="917" type="line"/>
      <point x="416" y="-213" type="line"/>
      <point x="-10" y="-213" type="line"/>
    </contour>
  </outline>
</glyph>
<glyph name="ugrave" format="1">
  <advance width="585"/>
  <unicode hex="00F9"/>
  <outline>
    <contour>
      <point x="377" y="0" type="line"/>
      <point x="377" y="69" type="line"/>
      <point x="348" y="19"/>
      <point x="298" y="-9"/>
      <point x="232" y="-9" type="curve" smooth="yes"/>
      <point x="147" y="-9"/>
      <point x="74" y="40"/>
      <point x="74" y="147" type="curve" smooth="yes"/>
      <point x="74" y="354" type="line"/>
      <point x="14" y="354" type="line"/>
      <point x="14" y="451" type="line"/>
      <point x="203" y="451" type="line"/>
      <point x="203" y="197" type="line" smooth="yes"/>
      <point x="203" y="119"/>
      <point x="229" y="89"/>
      <point x="280" y="89" type="curve" smooth="yes"/>
      <point x="342" y="89"/>
      <point x="377" y="133"/>
      <point x="377" y="196" type="curve" smooth="yes"/>
      <point x="377" y="354" type="line"/>
      <point x="304" y="354" type="line"/>
      <point x="304" y="451" type="line"/>
      <point x="506" y="451" type="line"/>
      <point x="506" y="97" type="line"/>
      <point x="571" y="97" type="line"/>
      <point x="571" y="0" type="line"/>
    </contour>
    <contour>
      <point x="-10" y="-213" type="line"/>
      <point x="596" y="-213" type="line"/>
      <point x="596" y="917" type="line"/>
      <point x="-10" y="917" type="line"/>
    </contour>
    <contour>
      <point x="294" y="508" type="line"/>
      <point x="99" y="599" type="line"/>
      <point x="166" y="700" type="line"/>
      <point x="328" y="557" type="line"/>
    </contour>
  </outline>
</glyph>
<glyph name="thorn" format="1">
  <advance width="545"/>
  <unicode hex="00FE"/>
  <outline>
    <contour>
      <point x="178" y="365" type="line"/>
      <point x="202" y="417"/>
      <point x="248" y="460"/>
      <point x="330" y="460" type="curve" smooth="yes"/>
      <point x="444" y="460"/>
      <point x="523" y="377"/>
      <point x="523" y="236" type="curve" smooth="yes"/>
      <point x="523" y="103"/>
      <point x="452" y="-10"/>
      <point x="316" y="-10" type="curve" smooth="yes"/>
      <point x="251" y="-10"/>
      <point x="205" y="15"/>
      <point x="178" y="57" type="curve"/>
      <point x="178" y="-115" type="line"/>
      <point x="258" y="-115" type="line"/>
      <point x="258" y="-213" type="line"/>
      <point x="555" y="-213" type="line"/>
      <point x="555" y="917" type="line"/>
      <point x="-10" y="917" type="line"/>
      <point x="-10" y="688" type="line"/>
      <point x="178" y="688" type="line"/>
    </contour>
    <contour>
      <point x="384" y="225" type="curve" smooth="yes"/>
      <point x="384" y="311"/>
      <point x="343" y="353"/>
      <point x="288" y="353" type="curve" smooth="yes"/>
      <point x="221" y="353"/>
      <point x="180" y="292"/>
      <point x="178" y="227" type="curve" smooth="yes"/>
      <point x="178" y="211" type="line" smooth="yes"/>
      <point x="178" y="136"/>
      <point x="222" y="97"/>
      <point x="281" y="97" type="curve" smooth="yes"/>
      <point x="338" y="97"/>
      <point x="384" y="133"/>
    </contour>
    <contour>
      <point x="49" y="-115" type="line"/>
      <point x="49" y="590" type="line"/>
      <point x="-10" y="590" type="line"/>
      <point x="-10" y="-115" type="line"/>
    </contour>
  </outline>
</glyph>
<glyph name="ydieresis" format="1">
  <advance width="530"/>
  <unicode hex="00FF"/>
  <outline>
    <contour>
      <point x="-10" y="-213" type="line"/>
      <point x="101" y="-213" type="line"/>
      <point x="101" y="-113" type="line"/>
      <point x="173" y="-113" type="line"/>
      <point x="209" y="-7" type="line"/>
      <point x="51" y="354" type="line"/>
      <point x="5" y="354" type="line"/>
      <point x="5" y="451" type="line"/>
      <point x="235" y="451" type="line"/>
      <point x="235" y="354" type="line"/>
      <point x="190" y="354" type="line"/>
      <point x="282" y="146" type="line"/>
      <point x="288" y="146" type="line"/>
      <point x="356" y="354" type="line"/>
      <point x="317" y="354" type="line"/>
      <point x="317" y="451" type="line"/>
      <point x="523" y="451" type="line"/>
      <point x="523" y="354" type="line"/>
      <point x="479" y="354" type="line"/>
      <point x="334" y="0" type="line"/>
      <point x="291" y="-113" type="line"/>
      <point x="350" y="-113" type="line"/>
      <point x="350" y="-213" type="line"/>
      <point x="540" y="-213" type="line"/>
      <point x="540" y="917" type="line"/>
      <point x="-10" y="917" type="line"/>
    </contour>
    <contour>
      <point x="127" y="665" type="line"/>
      <point x="256" y="665" type="line"/>
      <point x="256" y="531" type="line"/>
      <point x="127" y="531" type="line"/>
    </contour>
    <contour>
      <point x="312" y="665" type="line"/>
      <point x="441" y="665" type="line"/>
      <point x="441" y="531" type="line"/>
      <point x="312" y="531" type="line"/>
    </contour>
  </outline>
</glyph>
<glyph name="Abreve" format="1">
  <advance width="654"/>
  <unicode hex="0102"/>
  <outline>
    <contour>
      <point x="-10" y="917" type="line"/>
      <point x="-10" y="114" type="line"/>
      <point x="49" y="114" type="line"/>
      <point x="235" y="536" type="line"/>
      <point x="145" y="536" type="line"/>
      <point x="145" y="650" type="line"/>
      <point x="368" y="650" type="line"/>
      <point x="602" y="114" type="line"/>
      <point x="664" y="114" type="line"/>
      <point x="664" y="917" type="line"/>
    </contour>
    <contour>
      <point x="329" y="459" type="line"/>
      <point x="323" y="459" type="line"/>
      <point x="250" y="276" type="line"/>
      <point x="397" y="276" type="line"/>
    </contour>
    <contour>
      <point x="664" y="-213" type="line"/>
      <point x="664" y="0" type="line"/>
      <point x="405" y="0" type="line"/>
      <point x="405" y="114" type="line"/>
      <point x="457" y="114" type="line"/>
      <point x="433" y="180" type="line"/>
      <point x="212" y="180" type="line"/>
      <point x="185" y="114" type="line"/>
      <point x="246" y="114" type="line"/>
      <point x="246" y="0" type="line"/>
      <point x="-10" y="0" type="line"/>
      <point x="-10" y="-213" type="line"/>
    </contour>
    <contour>
      <point x="480" y="833" type="line"/>
      <point x="480" y="738"/>
      <point x="425" y="695"/>
      <point x="340" y="695" type="curve" smooth="yes"/>
      <point x="252" y="695"/>
      <point x="201" y="741"/>
      <point x="201" y="833" type="curve"/>
      <point x="303" y="833" type="line"/>
      <point x="303" y="797"/>
      <point x="314" y="772"/>
      <point x="340" y="772" type="curve" smooth="yes"/>
      <point x="368" y="772"/>
      <point x="378" y="801"/>
      <point x="378" y="833" type="curve"/>
    </contour>
  </outline>
</glyph>
<glyph name="Ecaron" format="1">
  <advance width="594"/>
  <unicode hex="011A"/>
  <outline>
    <contour>
      <point x="348" y="685" type="line"/>
      <point x="303" y="685" type="line"/>
      <point x="167" y="792" type="line"/>
      <point x="195" y="844" type="line"/>
      <point x="332" y="784" type="line"/>
      <point x="454" y="844" type="line"/>
      <point x="483" y="791" type="line"/>
    </contour>
    <contour>
      <point x="39" y="0" type="line"/>
      <point x="39" y="114" type="line"/>
      <point x="109" y="114" type="line"/>
      <point x="109" y="536" type="line"/>
      <point x="39" y="536" type="line"/>
      <point x="39" y="650" type="line"/>
      <point x="535" y="650" type="line"/>
      <point x="555" y="460" type="line"/>
      <point x="441" y="450" type="line"/>
      <point x="421" y="536" type="line"/>
      <point x="243" y="536" type="line"/>
      <point x="243" y="383" type="line"/>
      <point x="517" y="383" type="line"/>
      <point x="517" y="270" type="line"/>
      <point x="243" y="270" type="line"/>
      <point x="243" y="114" type="line"/>
      <point x="427" y="114" type="line"/>
      <point x="447" y="200" type="line"/>
      <point x="561" y="190" type="line"/>
      <point x="541" y="0" type="line"/>
    </contour>
    <contour>
      <point x="-10" y="-213" type="line"/>
      <point x="604" y="-213" type="line"/>
      <point x="604" y="917" type="line"/>
      <point x="-10" y="917" type="line"/>
    </contour>
  </outline>
</glyph>
<glyph name="Hcircumflex" format="1">
  <advance width="762"/>
  <unicode hex="0124"/>
  <outline>
    <contour>
      <point x="448" y="0" type="line"/>
      <point x="448" y="114" type="line"/>
      <point x="518" y="114" type="line"/>
      <point x="518" y="273" type="line"/>
      <point x="243" y="273" type="line"/>
      <point x="243" y="114" type="line"/>
      <point x="313" y="114" type="line"/>
      <point x="313" y="0" type="line"/>
      <point x="39" y="0" type="line"/>
      <point x="39" y="114" type="line"/>
      <point x="109" y="114" type="line"/>
      <point x="109" y="536" type="line"/>
      <point x="39" y="536" type="line"/>
      <point x="39" y="650" type="line"/>
      <point x="313" y="650" type="line"/>
      <point x="313" y="536" type="line"/>
      <point x="243" y="536" type="line"/>
      <point x="243" y="386" type="line"/>
      <point x="518" y="386" type="line"/>
      <point x="518" y="536" type="line"/>
      <point x="448" y="536" type="line"/>
      <point x="448" y="650" type="line"/>
      <point x="722" y="650" type="line"/>
      <point x="722" y="536" type="line"/>
      <point x="652" y="536" type="line"/>
      <point x="652" y="114" type="line"/>
      <point x="722" y="114" type="line"/>
      <point x="722" y="0" type="line"/>
    </contour>
    <contour>
      <point x="-10" y="-213" type="line"/>
      <point x="772" y="-213" type="line"/>
      <point x="772" y="917" type="line"/>
      <point x="-10" y="917" type="line"/>
    </contour>
    <contour>
      <point x="513" y="685" type="line"/>
      <point x="378" y="745" type="line"/>
      <point x="254" y="685" type="line"/>
      <point x="225" y="738" type="line"/>
      <point x="360" y="844" type="line"/>
      <point x="405" y="844" type="line"/>
      <point x="541" y="737" type="line"/>
    </contour>
  </outline>
</glyph>
<glyph name="Itilde" format="1">
  <advance width="353"/>
  <unicode hex="0128"/>
  <outline>
    <contour>
      <point x="39" y="0" type="line"/>
      <point x="39" y="114" type="line"/>
      <point x="109" y="114" type="line"/>
      <point x="109" y="536" type="line"/>
      <point x="39" y="536" type="line"/>
      <point x="39" y="650" type="line"/>
      <point x="313" y="650" type="line"/>
      <point x="313" y="536" type="line"/>
      <point x="243" y="536" type="line"/>
      <point x="243" y="114" type="line"/>
      <point x="313" y="114" type="line"/>
      <point x="313" y="0" type="line"/>
    </contour>
    <contour>
      <point x="-10" y="-213" type="line"/>
      <point x="363" y="-213" type="line"/>
      <point x="363" y="917" type="line"/>
      <point x="-10" y="917" type="line"/>
    </contour>
    <contour>
      <point x="332" y="820" type="line"/>
      <point x="332" y="762"/>
      <point x="316" y="700"/>
      <point x="247" y="700" type="curve" smooth="yes"/>
      <point x="198" y="700"/>
      <point x="167" y="731"/>
      <point x="121" y="731" type="curve" smooth="yes"/>
      <point x="99" y="731"/>
      <point x="86" y="724"/>
      <point x="79" y="698" type="curve"/>
      <point x="29" y="714" type="line"/>
      <point x="26" y="751"/>
      <point x="47" y="824"/>
      <point x="115" y="824" type="curve" smooth="yes"/>
      <point x="159" y="824"/>
      <point x="196" y="793"/>
      <point x="230" y="793" type="curve" smooth="yes"/>
      <point x="249" y="793"/>
      <point x="269" y="802"/>
      <point x="278" y="831" type="curve"/>
    </contour>
  </outline>
</glyph>
<glyph name="itilde" format="1">
  <advance width="299"/>
  <unicode hex="0129"/>
  <outline>
    <contour>
      <point x="32" y="0" type="line"/>
      <point x="32" y="97" type="line"/>
      <point x="92" y="97" type="line"/>
      <point x="92" y="353" type="line"/>
      <point x="27" y="353" type="line"/>
      <point x="27" y="451" type="line"/>
      <point x="221" y="451" type="line"/>
      <point x="221" y="97" type="line"/>
      <point x="281" y="97" type="line"/>
      <point x="281" y="0" type="line"/>
    </contour>
    <contour>
      <point x="-10" y="-213" type="line"/>
      <point x="309" y="-213" type="line"/>
      <point x="309" y="917" type="line"/>
      <point x="-10" y="917" type="line"/>
    </contour>
    <contour>
      <point x="296" y="648" type="line"/>
      <point x="296" y="592"/>
      <point x="279" y="523"/>
      <point x="216" y="523" type="curve" smooth="yes"/>
      <point x="167" y="523"/>
      <point x="134" y="563"/>
      <point x="96" y="563" type="curve" smooth="yes"/>
      <point x="74" y="563"/>
      <point x="60" y="549"/>
      <point x="53" y="521" type="curve"/>
      <point x="5" y="537" type="line"/>
      <point x="2" y="573"/>
      <point x="23" y="656"/>
      <point x="86" y="656" type="curve" smooth="yes"/>
      <point x="129" y="656"/>
      <point x="166" y="619"/>
      <point x="199" y="619" type="curve" smooth="yes"/>
      <point x="217" y="619"/>
      <point x="235" y="631"/>
      <point x="244" y="658" type="curve"/>
    </contour>
  </outline>
</glyph>
<glyph name="Imacron" format="1">
  <advance width="353"/>
  <unicode hex="012A"/>
  <outline>
    <contour>
      <point x="39" y="0" type="line"/>
      <point x="39" y="114" type="line"/>
      <point x="109" y="114" type="line"/>
      <point x="109" y="536" type="line"/>
      <point x="39" y="536" type="line"/>
      <point x="39" y="650" type="line"/>
      <point x="313" y="650" type="line"/>
      <point x="313" y="536" type="line"/>
      <point x="243" y="536" type="line"/>
      <point x="243" y="114" type="line"/>
      <point x="313" y="114" type="line"/>
      <point x="313" y="0" type="line"/>
    </contour>
    <contour>
      <point x="-10" y="-213" type="line"/>
      <point x="363" y="-213" type="line"/>
      <point x="363" y="917" type="line"/>
      <point x="-10" y="917" type="line"/>
    </contour>
    <contour>
      <point x="23" y="721" type="line"/>
      <point x="23" y="819" type="line"/>
      <point x="331" y="819" type="line"/>
      <point x="331" y="721" type="line"/>
    </contour>
  </outline>
</glyph>
<glyph name="ibreve" format="1">
  <advance width="299"/>
  <unicode hex="012D"/>
  <outline>
    <contour>
      <point x="32" y="0" type="line"/>
      <point x="32" y="97" type="line"/>
      <point x="92" y="97" type="line"/>
      <point x="92" y="353" type="line"/>
      <point x="27" y="353" type="line"/>
      <point x="27" y="451" type="line"/>
      <point x="221" y="451" type="line"/>
      <point x="221" y="97" type="line"/>
      <point x="281" y="97" type="line"/>
      <point x="281" y="0" type="line"/>
    </contour>
    <contour>
      <point x="-10" y="-213" type="line"/>
      <point x="309" y="-213" type="line"/>
      <point x="309" y="917" type="line"/>
      <point x="-10" y="917" type="line"/>
    </contour>
    <contour>
      <point x="287" y="653" type="line"/>
      <point x="287" y="558"/>
      <point x="229" y="515"/>
      <point x="145" y="515" type="curve" smooth="yes"/>
      <point x="58" y="515"/>
      <point x="8" y="561"/>
      <point x="8" y="653" type="curve"/>
      <point x="110" y="653" type="line"/>
      <point x="110" y="617"/>
      <point x="121" y="592"/>
      <point x="147" y="592" type="curve" smooth="yes"/>
      <point x="175" y="592"/>
      <point x="185" y="621"/>
      <point x="185" y="653" type="curve"/>
    </contour>
  </outline>
</glyph>
<glyph name="jcircumflex" format="1">
  <advance width="265"/>
  <unicode hex="0135"/>
  <outline>
    <contour>
      <point x="-10" y="917" type="line"/>
      <point x="275" y="917" type="line"/>
      <point x="275" y="-213" type="line"/>
      <point x="37" y="-213" type="line"/>
      <point x="171" y="-209"/>
      <point x="211" y="-136"/>
      <point x="211" y="16" type="curve" smooth="yes"/>
      <point x="211" y="451" type="line"/>
      <point x="12" y="451" type="line"/>
      <point x="12" y="353" type="line"/>
      <point x="82" y="353" type="line"/>
      <point x="82" y="16" type="line" smooth="yes"/>
      <point x="82" y="-128"/>
      <point x="45" y="-126"/>
      <point x="-10" y="-126" type="curve"/>
    </contour>
    <contour>
      <point x="259" y="563" type="line"/>
      <point x="153" y="670" type="line"/>
      <point x="115" y="670" type="line"/>
      <point x="7" y="564" type="line"/>
      <point x="37" y="517" type="line"/>
      <point x="125" y="570" type="line"/>
      <point x="230" y="518" type="line"/>
    </contour>
  </outline>
</glyph>
<glyph name="kcommaaccent" format="1">
  <advance width="553"/>
  <unicode hex="0137"/>
  <outline>
    <contour>
      <point x="-10" y="-213" type="line"/>
      <point x="214" y="-213" type="line"/>
      <point x="217" y="-58" type="line"/>
      <point x="338" y="-58" type="line"/>
      <point x="312" y="-213" type="line"/>
      <point x="563" y="-213" type="line"/>
      <point x="563" y="917" type="line"/>
      <point x="-10" y="917" type="line"/>
    </contour>
    <contour>
      <point x="308" y="0" type="line"/>
      <point x="308" y="97" type="line"/>
      <point x="350" y="97" type="line"/>
      <point x="272" y="186" type="line"/>
      <point x="205" y="186" type="line"/>
      <point x="205" y="97" type="line"/>
      <point x="246" y="97" type="line"/>
      <point x="246" y="0" type="line"/>
      <point x="16" y="0" type="line"/>
      <point x="16" y="97" type="line"/>
      <point x="76" y="97" type="line"/>
      <point x="76" y="590" type="line"/>
      <point x="11" y="590" type="line"/>
      <point x="11" y="688" type="line"/>
      <point x="205" y="688" type="line"/>
      <point x="205" y="277" type="line"/>
      <point x="280" y="277" type="line"/>
      <point x="346" y="353" type="line"/>
      <point x="292" y="353" type="line"/>
      <point x="292" y="451" type="line"/>
      <point x="518" y="451" type="line"/>
      <point x="518" y="353" type="line"/>
      <point x="469" y="353" type="line"/>
      <point x="372" y="243" type="line"/>
      <point x="500" y="97" type="line"/>
      <point x="539" y="97" type="line"/>
      <point x="539" y="0" type="line"/>
    </contour>
  </outline>
</glyph>
<glyph name="Lcommaaccent" format="1">
  <advance width="559"/>
  <unicode hex="013B"/>
  <outline>
    <contour>
      <point x="-10" y="-213" type="line"/>
      <point x="246" y="-213" type="line"/>
      <point x="249" y="-58" type="line"/>
      <point x="370" y="-58" type="line"/>
      <point x="344" y="-213" type="line"/>
      <point x="569" y="-213" type="line"/>
      <point x="569" y="917" type="line"/>
      <point x="-10" y="917" type="line"/>
    </contour>
    <contour>
      <point x="39" y="0" type="line"/>
      <point x="39" y="114" type="line"/>
      <point x="109" y="114" type="line"/>
      <point x="109" y="536" type="line"/>
      <point x="39" y="536" type="line"/>
      <point x="39" y="650" type="line"/>
      <point x="334" y="650" type="line"/>
      <point x="334" y="536" type="line"/>
      <point x="243" y="536" type="line"/>
      <point x="243" y="114" type="line"/>
      <point x="413" y="114" type="line"/>
      <point x="433" y="240" type="line"/>
      <point x="547" y="230" type="line"/>
      <point x="527" y="0" type="line"/>
    </contour>
  </outline>
</glyph>
<glyph name="Lcaron" format="1">
  <advance width="559"/>
  <unicode hex="013D"/>
  <outline>
    <contour>
      <point x="467" y="458" type="line"/>
      <point x="369" y="458" type="line"/>
      <point x="382" y="682" type="line"/>
      <point x="503" y="682" type="line"/>
    </contour>
    <contour>
      <point x="39" y="0" type="line"/>
      <point x="39" y="114" type="line"/>
      <point x="109" y="114" type="line"/>
      <point x="109" y="536" type="line"/>
      <point x="39" y="536" type="line"/>
      <point x="39" y="650" type="line"/>
      <point x="334" y="650" type="line"/>
      <point x="334" y="536" type="line"/>
      <point x="243" y="536" type="line"/>
      <point x="243" y="114" type="line"/>
      <point x="413" y="114" type="line"/>
      <point x="433" y="240" type="line"/>
      <point x="547" y="230" type="line"/>
      <point x="527" y="0" type="line"/>
    </contour>
    <contour>
      <point x="-10" y="-213" type="line"/>
      <point x="569" y="-213" type="line"/>
      <point x="569" y="917" type="line"/>
      <point x="-10" y="917" type="line"/>
    </contour>
  </outline>
</glyph>
<glyph name="lcaron" format="1">
  <advance width="394"/>
  <unicode hex="013E"/>
  <outline>
    <contour>
      <point x="344" y="457" type="line"/>
      <point x="246" y="457" type="line"/>
      <point x="259" y="681" type="line"/>
      <point x="380" y="681" type="line"/>
    </contour>
    <contour>
      <point x="18" y="0" type="line"/>
      <point x="18" y="97" type="line"/>
      <point x="78" y="97" type="line"/>
      <point x="78" y="590" type="line"/>
      <point x="13" y="590" type="line"/>
      <point x="13" y="688" type="line"/>
      <point x="207" y="688" type="line"/>
      <point x="207" y="97" type="line"/>
      <point x="267" y="97" type="line"/>
      <point x="267" y="0" type="line"/>
    </contour>
    <contour>
      <point x="-10" y="-213" type="line"/>
      <point x="404" y="-213" type="line"/>
      <point x="404" y="917" type="line"/>
      <point x="-10" y="917" type="line"/>
    </contour>
  </outline>
</glyph>
<glyph name="Eng" format="1">
  <advance width="760"/>
  <unicode hex="014A"/>
  <outline>
    <contour>
      <point x="-10" y="-213" type="line"/>
      <point x="770" y="-213" type="line"/>
      <point x="770" y="917" type="line"/>
      <point x="-10" y="917" type="line"/>
    </contour>
    <contour>
      <point x="663" y="536" type="line"/>
      <point x="663" y="-7" type="line" smooth="yes"/>
      <point x="663" y="-138"/>
      <point x="584" y="-202"/>
      <point x="466" y="-202" type="curve" smooth="yes"/>
      <point x="355" y="-202"/>
      <point x="299" y="-145"/>
      <point x="271" y="-79" type="curve"/>
      <point x="365" y="-8" type="line"/>
      <point x="388" y="-67"/>
      <point x="421" y="-78"/>
      <point x="453" y="-78" type="curve" smooth="yes"/>
      <point x="507" y="-78"/>
      <point x="529" y="-48"/>
      <point x="529" y="-8" type="curve" smooth="yes"/>
      <point x="529" y="69" type="line"/>
      <point x="239" y="412" type="line"/>
      <point x="235" y="412" type="line"/>
      <point x="235" y="114" type="line"/>
      <point x="325" y="114" type="line"/>
      <point x="325" y="0" type="line"/>
      <point x="40" y="0" type="line"/>
      <point x="40" y="114" type="line"/>
      <point x="110" y="114" type="line"/>
      <point x="110" y="536" type="line"/>
      <point x="29" y="536" type="line"/>
      <point x="29" y="650" type="line"/>
      <point x="206" y="650" type="line"/>
      <point x="534" y="264" type="line"/>
      <point x="538" y="264" type="line"/>
      <point x="538" y="536" type="line"/>
      <point x="444" y="536" type="line"/>
      <point x="444" y="650" type="line"/>
      <point x="733" y="650" type="line"/>
      <point x="733" y="536" type="line"/>
    </contour>
  </outline>
</glyph>
<glyph name="Obreve" format="1">
  <advance width="712"/>
  <unicode hex="014E"/>
  <outline>
    <contour>
      <point x="508" y="833" type="line"/>
      <point x="508" y="738"/>
      <point x="453" y="695"/>
      <point x="368" y="695" type="curve" smooth="yes"/>
      <point x="280" y="695"/>
      <point x="229" y="741"/>
      <point x="229" y="833" type="curve"/>
      <point x="331" y="833" type="line"/>
      <point x="331" y="797"/>
      <point x="342" y="772"/>
      <point x="368" y="772" type="curve" smooth="yes"/>
      <point x="396" y="772"/>
      <point x="406" y="801"/>
      <point x="406" y="833" type="curve"/>
    </contour>
    <contour>
      <point x="688" y="326" type="curve" smooth="yes"/>
      <point x="688" y="142"/>
      <point x="564" y="-10"/>
      <point x="353" y="-10" type="curve" smooth="yes"/>
      <point x="141" y="-10"/>
      <point x="24" y="143"/>
      <point x="24" y="324" type="curve" smooth="yes"/>
      <point x="24" y="514"/>
      <point x="153" y="660"/>
      <point x="357" y="660" type="curve" smooth="yes"/>
      <point x="565" y="660"/>
      <point x="688" y="509"/>
    </contour>
    <contour>
      <point x="543" y="322" type="curve" smooth="yes"/>
      <point x="543" y="460"/>
      <point x="477" y="542"/>
      <point x="356" y="542" type="curve" smooth="yes"/>
      <point x="227" y="542"/>
      <point x="169" y="450"/>
      <point x="169" y="327" type="curve" smooth="yes"/>
      <point x="169" y="209"/>
      <point x="223" y="108"/>
      <point x="360" y="108" type="curve" smooth="yes"/>
      <point x="487" y="108"/>
      <point x="543" y="195"/>
    </contour>
    <contour>
      <point x="-10" y="-213" type="line"/>
      <point x="722" y="-213" type="line"/>
      <point x="722" y="917" type="line"/>
      <point x="-10" y="917" type="line"/>
    </contour>
  </outline>
</glyph>
<glyph name="Ohungarumlaut" format="1">
  <advance width="712"/>
  <unicode hex="0150"/>
  <outline>
    <contour>
      <point x="688" y="326" type="curve" smooth="yes"/>
      <point x="688" y="142"/>
      <point x="564" y="-10"/>
      <point x="353" y="-10" type="curve" smooth="yes"/>
      <point x="141" y="-10"/>
      <point x="24" y="143"/>
      <point x="24" y="324" type="curve" smooth="yes"/>
      <point x="24" y="514"/>
      <point x="153" y="660"/>
      <point x="357" y="660" type="curve" smooth="yes"/>
      <point x="565" y="660"/>
      <point x="688" y="509"/>
    </contour>
    <contour>
      <point x="543" y="322" type="curve" smooth="yes"/>
      <point x="543" y="460"/>
      <point x="477" y="542"/>
      <point x="356" y="542" type="curve" smooth="yes"/>
      <point x="227" y="542"/>
      <point x="169" y="450"/>
      <point x="169" y="327" type="curve" smooth="yes"/>
      <point x="169" y="209"/>
      <point x="223" y="108"/>
      <point x="360" y="108" type="curve" smooth="yes"/>
      <point x="487" y="108"/>
      <point x="543" y="195"/>
    </contour>
    <contour>
      <point x="-10" y="-213" type="line"/>
      <point x="722" y="-213" type="line"/>
      <point x="722" y="917" type="line"/>
      <point x="-10" y="917" type="line"/>
    </contour>
    <contour>
      <point x="402" y="688" type="line"/>
      <point x="386" y="745" type="line"/>
      <point x="588" y="833" type="line"/>
      <point x="617" y="716" type="line"/>
    </contour>
    <contour>
      <point x="293" y="687" type="line"/>
      <point x="250" y="727" type="line"/>
      <point x="379" y="906" type="line"/>
      <point x="463" y="821" type="line"/>
    </contour>
  </outline>
</glyph>
<glyph name="oe" format="1">
  <advance width="523"/>
  <unicode hex="0153"/>
  <outline>
    <contour>
      <point x="-10" y="-213" type="line"/>
      <point x="842" y="-213" type="line"/>
      <point x="842" y="917" type="line"/>
      <point x="-10" y="917" type="line"/>
    </contour>
    <contour>
      <point x="262" y="461" type="curve" smooth="yes"/>
      <point x="339" y="461"/>
      <point x="397" y="436"/>
      <point x="437" y="397" type="curve"/>
      <point x="475" y="436"/>
      <point x="529" y="460"/>
      <point x="597" y="460" type="curve" smooth="yes"/>
      <point x="722" y="460"/>
      <point x="807" y="381"/>
      <point x="809" y="264" type="curve" smooth="yes"/>
      <point x="809" y="244"/>
      <point x="807" y="222"/>
      <point x="802" y="199" type="curve"/>
      <point x="506" y="199" type="line"/>
      <point x="513" y="129"/>
      <point x="547" y="92"/>
      <point x="612" y="92" type="curve" smooth="yes"/>
      <point x="681" y="92"/>
      <point x="700" y="135"/>
      <point x="705" y="162" type="curve"/>
      <point x="813" y="142" type="line"/>
      <point x="807" y="62"/>
      <point x="733" y="-10"/>
      <point x="603" y="-10" type="curve" smooth="yes"/>
      <point x="533" y="-10"/>
      <point x="472" y="10"/>
      <point x="431" y="52" type="curve"/>
      <point x="387" y="12"/>
      <point x="326" y="-10"/>
      <point x="255" y="-10" type="curve" smooth="yes"/>
      <point x="116" y="-10"/>
      <point x="20" y="75"/>
      <point x="20" y="220" type="curve" smooth="yes"/>
      <point x="20" y="352"/>
      <point x="100" y="461"/>
    </contour>
    <contour>
      <point x="259" y="89" type="curve" smooth="yes"/>
      <point x="326" y="89"/>
      <point x="370" y="143"/>
      <point x="370" y="229" type="curve" smooth="yes"/>
      <point x="370" y="321"/>
      <point x="321" y="362"/>
      <point x="260" y="362" type="curve" smooth="yes"/>
      <point x="194" y="362"/>
      <point x="153" y="312"/>
      <point x="153" y="227" type="curve" smooth="yes"/>
      <point x="153" y="150"/>
      <point x="189" y="89"/>
    </contour>
    <contour>
      <point x="676" y="274" type="line"/>
      <point x="682" y="319"/>
      <point x="658" y="368"/>
      <point x="597" y="368" type="curve" smooth="yes"/>
      <point x="544" y="368"/>
      <point x="515" y="330"/>
      <point x="507" y="274" type="curve"/>
    </contour>
  </outline>
</glyph>
<glyph name="Scedilla" format="1">
  <advance width="557"/>
  <unicode hex="015E"/>
  <outline>
    <contour>
      <point x="-10" y="-213" type="line"/>
      <point x="567" y="-213" type="line"/>
      <point x="567" y="917" type="line"/>
      <point x="-10" y="917" type="line"/>
    </contour>
    <contour>
      <point x="424" y="-121" type="curve" smooth="yes"/>
      <point x="424" y="-188"/>
      <point x="358" y="-209"/>
      <point x="294" y="-209" type="curve" smooth="yes"/>
      <point x="245" y="-209"/>
      <point x="200" y="-197"/>
      <point x="178" y="-179" type="curve"/>
      <point x="201" y="-109" type="line"/>
      <point x="216" y="-119"/>
      <point x="242" y="-132"/>
      <point x="279" y="-132" type="curve" smooth="yes"/>
      <point x="307" y="-132"/>
      <point x="315" y="-125"/>
      <point x="315" y="-111" type="curve" smooth="yes"/>
      <point x="315" y="-97"/>
      <point x="308" y="-86"/>
      <point x="276" y="-86" type="curve" smooth="yes"/>
      <point x="239" y="-86" type="line"/>
      <point x="239" y="-9" type="line"/>
      <point x="160" y="-4"/>
      <point x="81" y="18"/>
      <point x="36" y="58" type="curve"/>
      <point x="56" y="219" type="line"/>
      <point x="163" y="209" type="line"/>
      <point x="162" y="130" type="line"/>
      <point x="207" y="106"/>
      <point x="238" y="105"/>
      <point x="261" y="105" type="curve" smooth="yes"/>
      <point x="331" y="105"/>
      <point x="382" y="115"/>
      <point x="382" y="181" type="curve" smooth="yes"/>
      <point x="382" y="253"/>
      <point x="320" y="269"/>
      <point x="248" y="282" type="curve" smooth="yes"/>
      <point x="154" y="299"/>
      <point x="42" y="322"/>
      <point x="42" y="462" type="curve" smooth="yes"/>
      <point x="42" y="607"/>
      <point x="161" y="660"/>
      <point x="278" y="660" type="curve" smooth="yes"/>
      <point x="363" y="660"/>
      <point x="447" y="632"/>
      <point x="489" y="588" type="curve"/>
      <point x="495" y="447" type="line"/>
      <point x="388" y="437" type="line"/>
      <point x="379" y="513" type="line"/>
      <point x="345" y="536"/>
      <point x="311" y="542"/>
      <point x="279" y="542" type="curve" smooth="yes"/>
      <point x="226" y="542"/>
      <point x="186" y="526"/>
      <point x="186" y="479" type="curve" smooth="yes"/>
      <point x="186" y="424"/>
      <point x="239" y="409"/>
      <point x="298" y="396" type="curve" smooth="yes"/>
      <point x="378" y="379"/>
      <point x="526" y="363"/>
      <point x="526" y="197" type="curve" smooth="yes"/>
      <point x="526" y="79"/>
      <point x="451" y="9"/>
      <point x="327" y="-6" type="curve"/>
      <point x="327" y="-41" type="line"/>
      <point x="335" y="-41" type="line" smooth="yes"/>
      <point x="402" y="-41"/>
      <point x="424" y="-82"/>
    </contour>
  </outline>
</glyph>
<glyph name="Tbar" format="1">
  <advance width="652"/>
  <unicode hex="0166"/>
  <outline>
    <contour>
      <point x="-10" y="-213" type="line"/>
      <point x="662" y="-213" type="line"/>
      <point x="662" y="917" type="line"/>
      <point x="-10" y="917" type="line"/>
    </contour>
    <contour>
      <point x="515" y="420" type="line"/>
      <point x="495" y="536" type="line"/>
      <point x="392" y="536" type="line"/>
      <point x="392" y="346" type="line"/>
      <point x="514" y="346" type="line"/>
      <point x="514" y="269" type="line"/>
      <point x="392" y="269" type="line"/>
      <point x="392" y="114" type="line"/>
      <point x="498" y="114" type="line"/>
      <point x="498" y="0" type="line"/>
      <point x="158" y="0" type="line"/>
      <point x="158" y="114" type="line"/>
      <point x="258" y="114" type="line"/>
      <point x="258" y="269" type="line"/>
      <point x="134" y="269" type="line"/>
      <point x="134" y="346" type="line"/>
      <point x="258" y="346" type="line"/>
      <point x="258" y="536" type="line"/>
      <point x="155" y="536" type="line"/>
      <point x="135" y="420" type="line"/>
      <point x="21" y="430" type="line"/>
      <point x="41" y="650" type="line"/>
      <point x="609" y="650" type="line"/>
      <point x="629" y="430" type="line"/>
    </contour>
  </outline>
</glyph>
<glyph name="zdotaccent" format="1">
  <advance width="477"/>
  <unicode hex="017C"/>
  <outline>
    <contour>
      <point x="36" y="0" type="line"/>
      <point x="23" y="68" type="line"/>
      <point x="265" y="354" type="line"/>
      <point x="130" y="354" type="line"/>
      <point x="110" y="285" type="line"/>
      <point x="17" y="293" type="line"/>
      <point x="33" y="451" type="line"/>
      <point x="429" y="451" type="line"/>
      <point x="439" y="383" type="line"/>
      <point x="190" y="97" type="line"/>
      <point x="335" y="97" type="line"/>
      <point x="356" y="168" type="line"/>
      <point x="458" y="158" type="line"/>
      <point x="430" y="0" type="line"/>
    </contour>
    <contour>
      <point x="-10" y="-213" type="line"/>
      <point x="488" y="-213" type="line"/>
      <point x="488" y="917" type="line"/>
      <point x="-10" y="917" type="line"/>
    </contour>
    <contour>
      <point x="173" y="665" type="line"/>
      <point x="302" y="665" type="line"/>
      <point x="302" y="531" type="line"/>
      <point x="173" y="531" type="line"/>
    </contour>
  </outline>
</glyph>
<glyph name="uni018F" format="1">
  <advance width="688"/>
  <unicode hex="018F"/>
  <outline>
    <contour>
      <point x="150" y="437" type="line"/>
      <point x="165" y="516" type="line"/>
      <point x="213" y="532"/>
      <point x="261" y="540"/>
      <point x="305" y="540" type="curve" smooth="yes"/>
      <point x="408" y="540"/>
      <point x="495" y="496"/>
      <point x="515" y="368" type="curve"/>
      <point x="32" y="368" type="line"/>
      <point x="32" y="271" type="line" smooth="yes"/>
      <point x="32" y="97"/>
      <point x="151" y="-10"/>
      <point x="336" y="-10" type="curve" smooth="yes"/>
      <point x="559" y="-10"/>
      <point x="664" y="146"/>
      <point x="664" y="331" type="curve" smooth="yes"/>
      <point x="664" y="513"/>
      <point x="563" y="660"/>
      <point x="301" y="660" type="curve" smooth="yes"/>
      <point x="212" y="660"/>
      <point x="147" y="643"/>
      <point x="69" y="621" type="curve"/>
      <point x="47" y="448" type="line"/>
    </contour>
    <contour>
      <point x="518" y="275" type="line"/>
      <point x="510" y="186"/>
      <point x="469" y="108"/>
      <point x="342" y="108" type="curve" smooth="yes"/>
      <point x="185" y="108"/>
      <point x="178" y="227"/>
      <point x="178" y="272" type="curve" smooth="yes"/>
      <point x="178" y="275" type="line"/>
    </contour>
    <contour>
      <point x="-10" y="917" type="line"/>
      <point x="698" y="917" type="line"/>
      <point x="698" y="-213" type="line"/>
      <point x="-10" y="-213" type="line"/>
    </contour>
  </outline>
</glyph>
<glyph name="uni01C7" format="1">
  <advance width="1043"/>
  <unicode hex="01C7"/>
  <outline>
    <contour>
      <point x="39" y="0" type="line"/>
      <point x="39" y="114" type="line"/>
      <point x="109" y="114" type="line"/>
      <point x="109" y="536" type="line"/>
      <point x="39" y="536" type="line"/>
      <point x="39" y="650" type="line"/>
      <point x="334" y="650" type="line"/>
      <point x="334" y="536" type="line"/>
      <point x="243" y="536" type="line"/>
      <point x="243" y="114" type="line"/>
      <point x="413" y="114" type="line"/>
      <point x="433" y="240" type="line"/>
      <point x="547" y="230" type="line"/>
      <point x="527" y="0" type="line"/>
    </contour>
    <contour>
      <point x="955" y="536" type="line"/>
      <point x="955" y="185" type="line" smooth="yes"/>
      <point x="955" y="54"/>
      <point x="876" y="-10"/>
      <point x="758" y="-10" type="curve" smooth="yes"/>
      <point x="647" y="-10"/>
      <point x="591" y="47"/>
      <point x="563" y="113" type="curve"/>
      <point x="657" y="184" type="line"/>
      <point x="680" y="125"/>
      <point x="713" y="114"/>
      <point x="745" y="114" type="curve" smooth="yes"/>
      <point x="799" y="114"/>
      <point x="821" y="144"/>
      <point x="821" y="184" type="curve" smooth="yes"/>
      <point x="821" y="536" type="line"/>
      <point x="707" y="536" type="line"/>
      <point x="707" y="650" type="line"/>
      <point x="1015" y="650" type="line"/>
      <point x="1015" y="536" type="line"/>
    </contour>
    <contour>
      <point x="-10" y="-213" type="line"/>
      <point x="1053" y="-213" type="line"/>
      <point x="1053" y="917" type="line"/>
      <point x="-10" y="917" type="line"/>
    </contour>
  </outline>
</glyph>
<glyph name="uni01C8" format="1">
  <advance width="812"/>
  <unicode hex="01C8"/>
  <outline>
    <contour>
      <point x="-10" y="-213" type="line"/>
      <point x="537" y="-213" type="line"/>
      <point x="537" y="-126" type="line"/>
      <point x="592" y="-126"/>
      <point x="629" y="-128"/>
      <point x="629" y="16" type="curve" smooth="yes"/>
      <point x="629" y="353" type="line"/>
      <point x="559" y="353" type="line"/>
      <point x="559" y="451" type="line"/>
      <point x="758" y="451" type="line"/>
      <point x="758" y="16" type="line" smooth="yes"/>
      <point x="758" y="-136"/>
      <point x="718" y="-209"/>
      <point x="584" y="-213" type="curve"/>
      <point x="822" y="-213" type="line"/>
      <point x="822" y="917" type="line"/>
      <point x="-10" y="917" type="line"/>
    </contour>
    <contour>
      <point x="39" y="0" type="line"/>
      <point x="39" y="114" type="line"/>
      <point x="109" y="114" type="line"/>
      <point x="109" y="536" type="line"/>
      <point x="39" y="536" type="line"/>
      <point x="39" y="650" type="line"/>
      <point x="334" y="650" type="line"/>
      <point x="334" y="536" type="line"/>
      <point x="243" y="536" type="line"/>
      <point x="243" y="114" type="line"/>
      <point x="413" y="114" type="line"/>
      <point x="433" y="240" type="line"/>
      <point x="547" y="230" type="line"/>
      <point x="527" y="0" type="line"/>
    </contour>
    <contour>
      <point x="629" y="665" type="line"/>
      <point x="758" y="665" type="line"/>
      <point x="758" y="531" type="line"/>
      <point x="629" y="531" type="line"/>
    </contour>
  </outline>
</glyph>
<glyph name="uni01C9" format="1">
  <advance width="550"/>
  <unicode hex="01C9"/>
  <outline>
    <contour>
      <point x="-10" y="-213" type="line"/>
      <point x="275" y="-213" type="line"/>
      <point x="275" y="-126" type="line"/>
      <point x="330" y="-126"/>
      <point x="367" y="-128"/>
      <point x="367" y="16" type="curve" smooth="yes"/>
      <point x="367" y="353" type="line"/>
      <point x="297" y="353" type="line"/>
      <point x="297" y="451" type="line"/>
      <point x="496" y="451" type="line"/>
      <point x="496" y="16" type="line" smooth="yes"/>
      <point x="496" y="-136"/>
      <point x="456" y="-209"/>
      <point x="322" y="-213" type="curve"/>
      <point x="560" y="-213" type="line"/>
      <point x="560" y="917" type="line"/>
      <point x="-10" y="917" type="line"/>
    </contour>
    <contour>
      <point x="18" y="0" type="line"/>
      <point x="18" y="97" type="line"/>
      <point x="78" y="97" type="line"/>
      <point x="78" y="590" type="line"/>
      <point x="13" y="590" type="line"/>
      <point x="13" y="688" type="line"/>
      <point x="207" y="688" type="line"/>
      <point x="207" y="97" type="line"/>
      <point x="267" y="97" type="line"/>
      <point x="267" y="0" type="line"/>
    </contour>
    <contour>
      <point x="367" y="665" type="line"/>
      <point x="496" y="665" type="line"/>
      <point x="496" y="531" type="line"/>
      <point x="367" y="531" type="line"/>
    </contour>
  </outline>
</glyph>
<glyph name="uni01CB" format="1">
  <advance width="1007"/>
  <unicode hex="01CB"/>
  <outline>
    <contour>
      <point x="-10" y="-213" type="line"/>
      <point x="732" y="-213" type="line"/>
      <point x="732" y="-126" type="line"/>
      <point x="787" y="-126"/>
      <point x="824" y="-128"/>
      <point x="824" y="16" type="curve" smooth="yes"/>
      <point x="824" y="353" type="line"/>
      <point x="754" y="353" type="line"/>
      <point x="754" y="451" type="line"/>
      <point x="953" y="451" type="line"/>
      <point x="953" y="16" type="line" smooth="yes"/>
      <point x="953" y="-136"/>
      <point x="913" y="-209"/>
      <point x="779" y="-213" type="curve"/>
      <point x="1017" y="-213" type="line"/>
      <point x="1017" y="917" type="line"/>
      <point x="-10" y="917" type="line"/>
    </contour>
    <contour>
      <point x="663" y="536" type="line"/>
      <point x="663" y="0" type="line"/>
      <point x="588" y="-1" type="line"/>
      <point x="239" y="412" type="line"/>
      <point x="235" y="412" type="line"/>
      <point x="235" y="114" type="line"/>
      <point x="325" y="114" type="line"/>
      <point x="325" y="0" type="line"/>
      <point x="40" y="0" type="line"/>
      <point x="40" y="114" type="line"/>
      <point x="110" y="114" type="line"/>
      <point x="110" y="536" type="line"/>
      <point x="29" y="536" type="line"/>
      <point x="29" y="650" type="line"/>
      <point x="206" y="650" type="line"/>
      <point x="534" y="264" type="line"/>
      <point x="538" y="264" type="line"/>
      <point x="538" y="536" type="line"/>
      <point x="444" y="536" type="line"/>
      <point x="444" y="650" type="line"/>
      <point x="733" y="650" type="line"/>
      <point x="733" y="536" type="line"/>
    </contour>
    <contour>
      <point x="824" y="665" type="line"/>
      <point x="953" y="665" type="line"/>
      <point x="953" y="531" type="line"/>
      <point x="824" y="531" type="line"/>
    </contour>
  </outline>
</glyph>
<glyph name="uni01CC" format="1">
  <advance width="854"/>
  <unicode hex="01CC"/>
  <outline>
    <contour>
      <point x="-10" y="917" type="line"/>
      <point x="864" y="917" type="line"/>
      <point x="864" y="-213" type="line"/>
      <point x="626" y="-213" type="line"/>
      <point x="760" y="-209"/>
      <point x="800" y="-136"/>
      <point x="800" y="16" type="curve" smooth="yes"/>
      <point x="800" y="451" type="line"/>
      <point x="601" y="451" type="line"/>
      <point x="601" y="353" type="line"/>
      <point x="671" y="353" type="line"/>
      <point x="671" y="16" type="line" smooth="yes"/>
      <point x="671" y="-128"/>
      <point x="634" y="-126"/>
      <point x="579" y="-126" type="curve"/>
      <point x="579" y="-213" type="line"/>
      <point x="-10" y="-213" type="line"/>
    </contour>
    <contour>
      <point x="581" y="0" type="line"/>
      <point x="581" y="97" type="line"/>
      <point x="521" y="97" type="line"/>
      <point x="521" y="304" type="line" smooth="yes"/>
      <point x="521" y="411"/>
      <point x="448" y="460"/>
      <point x="363" y="460" type="curve" smooth="yes"/>
      <point x="297" y="460"/>
      <point x="246" y="431"/>
      <point x="218" y="382" type="curve"/>
      <point x="218" y="451" type="line"/>
      <point x="24" y="451" type="line"/>
      <point x="24" y="353" type="line"/>
      <point x="89" y="353" type="line"/>
      <point x="89" y="97" type="line"/>
      <point x="29" y="97" type="line"/>
      <point x="29" y="0" type="line"/>
      <point x="278" y="0" type="line"/>
      <point x="278" y="97" type="line"/>
      <point x="218" y="97" type="line"/>
      <point x="218" y="259" type="line"/>
      <point x="219" y="320"/>
      <point x="254" y="362"/>
      <point x="315" y="362" type="curve" smooth="yes"/>
      <point x="366" y="362"/>
      <point x="392" y="332"/>
      <point x="392" y="254" type="curve" smooth="yes"/>
      <point x="392" y="97" type="line"/>
      <point x="332" y="97" type="line"/>
      <point x="332" y="0" type="line"/>
    </contour>
    <contour>
      <point x="671" y="531" type="line"/>
      <point x="800" y="531" type="line"/>
      <point x="800" y="665" type="line"/>
      <point x="671" y="665" type="line"/>
    </contour>
  </outline>
</glyph>
<glyph name="AEmacron" format="1">
  <advance width="934"/>
  <unicode hex="01E2"/>
  <outline>
    <contour>
      <point x="518" y="721" type="line"/>
      <point x="518" y="819" type="line"/>
      <point x="826" y="819" type="line"/>
      <point x="826" y="721" type="line"/>
    </contour>
    <contour>
      <point x="281" y="536" type="line"/>
      <point x="199" y="536" type="line"/>
      <point x="199" y="650" type="line"/>
      <point x="873" y="650" type="line"/>
      <point x="893" y="460" type="line"/>
      <point x="779" y="450" type="line"/>
      <point x="759" y="536" type="line"/>
      <point x="585" y="536" type="line"/>
      <point x="585" y="383" type="line"/>
      <point x="859" y="383" type="line"/>
      <point x="859" y="270" type="line"/>
      <point x="585" y="270" type="line"/>
      <point x="585" y="114" type="line"/>
      <point x="765" y="114" type="line"/>
      <point x="785" y="200" type="line"/>
      <point x="899" y="190" type="line"/>
      <point x="879" y="0" type="line"/>
      <point x="381" y="0" type="line"/>
      <point x="381" y="114" type="line"/>
      <point x="451" y="114" type="line"/>
      <point x="451" y="180" type="line"/>
      <point x="235" y="180" type="line"/>
      <point x="204" y="114" type="line"/>
      <point x="260" y="114" type="line"/>
      <point x="260" y="0" type="line"/>
      <point x="4" y="0" type="line"/>
      <point x="4" y="-213" type="line"/>
      <point x="944" y="-213" type="line"/>
      <point x="944" y="917" type="line"/>
      <point x="4" y="917" type="line"/>
      <point x="4" y="114" type="line"/>
      <point x="68" y="114" type="line"/>
    </contour>
    <contour>
      <point x="451" y="536" type="line"/>
      <point x="403" y="536" type="line"/>
      <point x="280" y="276" type="line"/>
      <point x="451" y="276" type="line"/>
    </contour>
  </outline>
</glyph>
<glyph name="Ymacron" format="1">
  <advance width="612"/>
  <unicode hex="0232"/>
  <outline>
    <contour>
      <point x="259" y="536" type="line"/>
      <point x="205" y="536" type="line"/>
      <point x="314" y="372" type="line"/>
      <point x="320" y="372" type="line"/>
      <point x="428" y="536" type="line"/>
      <point x="366" y="536" type="line"/>
      <point x="366" y="650" type="line"/>
      <point x="622" y="650" type="line"/>
      <point x="622" y="917" type="line"/>
      <point x="-10" y="917" type="line"/>
      <point x="-10" y="650" type="line"/>
      <point x="259" y="650" type="line"/>
    </contour>
    <contour>
      <point x="622" y="-213" type="line"/>
      <point x="622" y="536" type="line"/>
      <point x="566" y="536" type="line"/>
      <point x="377" y="254" type="line"/>
      <point x="377" y="114" type="line"/>
      <point x="483" y="114" type="line"/>
      <point x="483" y="0" type="line"/>
      <point x="143" y="0" type="line"/>
      <point x="143" y="114" type="line"/>
      <point x="243" y="114" type="line"/>
      <point x="243" y="255" type="line"/>
      <point x="48" y="536" type="line"/>
      <point x="-10" y="536" type="line"/>
      <point x="-10" y="-213" type="line"/>
    </contour>
    <contour>
      <point x="174" y="721" type="line"/>
      <point x="174" y="819" type="line"/>
      <point x="482" y="819" type="line"/>
      <point x="482" y="721" type="line"/>
    </contour>
  </outline>
</glyph>
<glyph name="dotlessj" format="1">
  <advance width="265"/>
  <unicode hex="0237"/>
  <outline>
    <contour>
      <point x="-10" y="917" type="line"/>
      <point x="275" y="917" type="line"/>
      <point x="275" y="-213" type="line"/>
      <point x="37" y="-213" type="line"/>
      <point x="171" y="-209"/>
      <point x="211" y="-136"/>
      <point x="211" y="16" type="curve" smooth="yes"/>
      <point x="211" y="451" type="line"/>
      <point x="12" y="451" type="line"/>
      <point x="12" y="353" type="line"/>
      <point x="82" y="353" type="line"/>
      <point x="82" y="16" type="line" smooth="yes"/>
      <point x="82" y="-128"/>
      <point x="45" y="-126"/>
      <point x="-10" y="-126" type="curve"/>
    </contour>
  </outline>
</glyph>
<glyph name="schwa" format="1">
  <advance width="483"/>
  <unicode hex="0259"/>
  <outline>
    <contour>
      <point x="23" y="308" type="line"/>
      <point x="29" y="388"/>
      <point x="103" y="460"/>
      <point x="233" y="460" type="curve" smooth="yes"/>
      <point x="367" y="460"/>
      <point x="465" y="384"/>
      <point x="465" y="233" type="curve" smooth="yes"/>
      <point x="465" y="94"/>
      <point x="382" y="-10"/>
      <point x="239" y="-10" type="curve" smooth="yes"/>
      <point x="114" y="-10"/>
      <point x="29" y="69"/>
      <point x="27" y="186" type="curve" smooth="yes"/>
      <point x="27" y="206"/>
      <point x="29" y="228"/>
      <point x="34" y="251" type="curve"/>
      <point x="330" y="251" type="line"/>
      <point x="323" y="321"/>
      <point x="289" y="358"/>
      <point x="224" y="358" type="curve" smooth="yes"/>
      <point x="155" y="358"/>
      <point x="136" y="315"/>
      <point x="131" y="288" type="curve"/>
    </contour>
    <contour>
      <point x="160" y="176" type="line"/>
      <point x="154" y="131"/>
      <point x="178" y="82"/>
      <point x="239" y="82" type="curve" smooth="yes"/>
      <point x="292" y="82"/>
      <point x="321" y="120"/>
      <point x="329" y="176" type="curve"/>
    </contour>
    <contour>
      <point x="-10" y="-213" type="line"/>
      <point x="493" y="-213" type="line"/>
      <point x="493" y="917" type="line"/>
      <point x="-10" y="917" type="line"/>
    </contour>
  </outline>
</glyph>
<glyph name="caron" format="1">
  <advance width="338"/>
  <unicode hex="02C7"/>
  <outline>
    <contour>
      <point x="226" y="507" type="line"/>
      <point x="181" y="507" type="line"/>
      <point x="45" y="634" type="line"/>
      <point x="79" y="683" type="line"/>
      <point x="214" y="616" type="line"/>
      <point x="326" y="684" type="line"/>
      <point x="361" y="633" type="line"/>
    </contour>
  </outline>
</glyph>
<glyph name="dotaccent" format="1">
  <advance width="229"/>
  <unicode hex="02D9"/>
  <outline>
    <contour>
      <point x="40" y="665" type="line"/>
      <point x="169" y="665" type="line"/>
      <point x="169" y="531" type="line"/>
      <point x="40" y="531" type="line"/>
    </contour>
  </outline>
</glyph>
<glyph name="hungarumlaut" format="1">
  <advance width="430"/>
  <unicode hex="02DD"/>
  <outline>
    <contour>
      <point x="209" y="508" type="line"/>
      <point x="175" y="557" type="line"/>
      <point x="337" y="700" type="line"/>
      <point x="404" y="599" type="line"/>
    </contour>
    <contour>
      <point x="89" y="508" type="line"/>
      <point x="40" y="542" type="line"/>
      <point x="141" y="733" type="line"/>
      <point x="239" y="662" type="line"/>
    </contour>
  </outline>
</glyph>
<glyph name="uni1E63" format="1">
  <advance width="459"/>
  <unicode hex="1E63"/>
  <outline>
    <contour>
      <point x="435" y="138" type="curve" smooth="yes"/>
      <point x="435" y="38"/>
      <point x="347" y="-10"/>
      <point x="221" y="-10" type="curve" smooth="yes"/>
      <point x="156" y="-10"/>
      <point x="88" y="3"/>
      <point x="28" y="34" type="curve"/>
      <point x="46" y="160" type="line"/>
      <point x="146" y="149" type="line"/>
      <point x="146" y="93" type="line"/>
      <point x="170" y="85"/>
      <point x="200" y="84"/>
      <point x="214" y="84" type="curve" smooth="yes"/>
      <point x="263" y="84"/>
      <point x="305" y="100"/>
      <point x="305" y="132" type="curve" smooth="yes"/>
      <point x="305" y="209"/>
      <point x="33" y="141"/>
      <point x="33" y="320" type="curve" smooth="yes"/>
      <point x="33" y="431"/>
      <point x="139" y="460"/>
      <point x="231" y="460" type="curve" smooth="yes"/>
      <point x="291" y="460"/>
      <point x="344" y="448"/>
      <point x="400" y="419" type="curve"/>
      <point x="411" y="304" type="line"/>
      <point x="311" y="293" type="line"/>
      <point x="303" y="356" type="line"/>
      <point x="279" y="364"/>
      <point x="253" y="367"/>
      <point x="232" y="367" type="curve"/>
      <point x="199" y="367"/>
      <point x="172" y="354"/>
      <point x="172" y="324" type="curve" smooth="yes"/>
      <point x="172" y="246"/>
      <point x="435" y="312"/>
    </contour>
    <contour>
      <point x="-10" y="-213" type="line"/>
      <point x="469" y="-213" type="line"/>
      <point x="469" y="917" type="line"/>
      <point x="-10" y="917" type="line"/>
    </contour>
    <contour>
      <point x="166" y="-62" type="line"/>
      <point x="295" y="-62" type="line"/>
      <point x="295" y="-196" type="line"/>
      <point x="166" y="-196" type="line"/>
    </contour>
  </outline>
</glyph>
<glyph name="uni2003" format="1">
  <advance width="876"/>
  <unicode hex="2003"/>
  <outline>
    <contour>
      <point x="-10" y="-213" type="line"/>
      <point x="887" y="-213" type="line"/>
      <point x="887" y="917" type="line"/>
      <point x="-10" y="917" type="line"/>
    </contour>
    <contour>
      <point x="310" y="566" type="move" name="top"/>
    </contour>
  </outline>
</glyph>
<glyph name="uni2007" format="1">
  <advance width="601"/>
  <unicode hex="2007"/>
  <outline>
    <contour>
      <point x="-15" y="-213" type="line"/>
      <point x="618" y="-213" type="line"/>
      <point x="618" y="917" type="line"/>
      <point x="-15" y="917" type="line"/>
    </contour>
  </outline>
</glyph>
<glyph name="uni2012" format="1">
  <advance width="347"/>
  <unicode hex="2012"/>
  <outline>
    <contour>
      <point x="0" y="917" type="line"/>
      <point x="347" y="917" type="line"/>
      <point x="347" y="305" type="line"/>
      <point x="0" y="305" type="line"/>
    </contour>
    <contour>
      <point x="347" y="197" type="line"/>
      <point x="347" y="-213" type="line"/>
      <point x="0" y="-213" type="line"/>
      <point x="0" y="197" type="line"/>
    </contour>
  </outline>
</glyph>
<glyph name="endash" format="1">
  <advance width="590"/>
  <unicode hex="2013"/>
  <outline>
    <contour>
      <point x="44" y="193" type="line"/>
      <point x="546" y="193" type="line"/>
      <point x="546" y="278" type="line"/>
      <point x="44" y="278" type="line"/>
    </contour>
    <contour>
      <point x="-10" y="917" type="line"/>
      <point x="600" y="917" type="line"/>
      <point x="600" y="-213" type="line"/>
      <point x="-10" y="-213" type="line"/>
    </contour>
  </outline>
</glyph>
<glyph name="quoteleft" format="1">
  <advance width="230"/>
  <unicode hex="2018"/>
  <outline>
    <contour>
      <point x="-10" y="-213" type="line"/>
      <point x="240" y="-213" type="line"/>
      <point x="240" y="917" type="line"/>
      <point x="-10" y="917" type="line"/>
    </contour>
    <contour>
      <point x="153" y="405" type="line"/>
      <point x="27" y="405" type="line"/>
      <point x="87" y="639" type="line"/>
      <point x="213" y="639" type="line"/>
    </contour>
  </outline>
</glyph>
<glyph name="quotedblright" format="1">
  <advance width="398"/>
  <unicode hex="201D"/>
  <outline>
    <contour>
      <point x="63" y="670" type="line"/>
      <point x="189" y="670" type="line"/>
      <point x="129" y="436" type="line"/>
      <point x="3" y="436" type="line"/>
    </contour>
    <contour>
      <point x="239" y="670" type="line"/>
      <point x="365" y="670" type="line"/>
      <point x="305" y="436" type="line"/>
      <point x="179" y="436" type="line"/>
    </contour>
    <contour>
      <point x="-10" y="-213" type="line"/>
      <point x="408" y="-213" type="line"/>
      <point x="408" y="917" type="line"/>
      <point x="-10" y="917" type="line"/>
    </contour>
  </outline>
</glyph>
<glyph name="guilsinglright" format="1">
  <advance width="301"/>
  <unicode hex="203A"/>
  <outline>
    <contour>
      <point x="138" y="25" type="line"/>
      <point x="276" y="271" type="line"/>
      <point x="138" y="511" type="line"/>
      <point x="31" y="511" type="line"/>
      <point x="148" y="271" type="line"/>
      <point x="31" y="25" type="line"/>
    </contour>
    <contour>
      <point x="-10" y="917" type="line"/>
      <point x="311" y="917" type="line"/>
      <point x="311" y="-213" type="line"/>
      <point x="-10" y="-213" type="line"/>
    </contour>
  </outline>
</glyph>
<glyph name="foursuperior" format="1">
  <advance width="370"/>
  <unicode hex="2074"/>
  <outline>
    <contour>
      <point x="189" y="415" type="line"/>
      <point x="290" y="415" type="line"/>
      <point x="290" y="480" type="line"/>
      <point x="341" y="480" type="line"/>
      <point x="348" y="558" type="line"/>
      <point x="290" y="558" type="line"/>
      <point x="290" y="779" type="line"/>
      <point x="120" y="779" type="line"/>
      <point x="14" y="553" type="line"/>
      <point x="24" y="480" type="line"/>
      <point x="189" y="480" type="line"/>
    </contour>
    <contour>
      <point x="173" y="704" type="line"/>
      <point x="189" y="704" type="line"/>
      <point x="189" y="558" type="line"/>
      <point x="102" y="558" type="line"/>
    </contour>
    <contour>
      <point x="-10" y="917" type="line"/>
      <point x="380" y="917" type="line"/>
      <point x="380" y="-213" type="line"/>
      <point x="-10" y="-213" type="line"/>
    </contour>
  </outline>
</glyph>
<glyph name="fivesuperior" format="1">
  <advance width="341"/>
  <unicode hex="2075"/>
  <outline>
    <contour>
      <point x="321" y="529" type="curve" smooth="yes"/>
      <point x="321" y="623"/>
      <point x="247" y="647"/>
      <point x="162" y="647" type="curve" smooth="yes"/>
      <point x="144" y="647" type="line"/>
      <point x="144" y="704" type="line"/>
      <point x="210" y="704" type="line"/>
      <point x="217" y="663" type="line"/>
      <point x="301" y="671" type="line"/>
      <point x="291" y="779" type="line"/>
      <point x="51" y="779" type="line"/>
      <point x="51" y="599" type="line"/>
      <point x="82" y="573" type="line"/>
      <point x="101" y="574"/>
      <point x="121" y="576"/>
      <point x="142" y="576" type="curve" smooth="yes"/>
      <point x="181" y="576"/>
      <point x="212" y="569"/>
      <point x="212" y="531" type="curve" smooth="yes"/>
      <point x="212" y="507"/>
      <point x="194" y="487"/>
      <point x="158" y="487" type="curve" smooth="yes"/>
      <point x="125" y="487"/>
      <point x="109" y="503"/>
      <point x="99" y="532" type="curve"/>
      <point x="26" y="507" type="line"/>
      <point x="40" y="435"/>
      <point x="93" y="408"/>
      <point x="163" y="408" type="curve" smooth="yes"/>
      <point x="256" y="408"/>
      <point x="321" y="453"/>
    </contour>
    <contour>
      <point x="-10" y="917" type="line"/>
      <point x="351" y="917" type="line"/>
      <point x="351" y="-213" type="line"/>
      <point x="-10" y="-213" type="line"/>
    </contour>
  </outline>
</glyph>
<glyph name="plussuperior" format="1">
  <advance width="275"/>
  <unicode hex="207A"/>
  <outline>
    <contour>
      <point x="22" y="567" type="line"/>
      <point x="106" y="567" type="line"/>
      <point x="106" y="485" type="line"/>
      <point x="173" y="485" type="line"/>
      <point x="173" y="567" type="line"/>
      <point x="254" y="567" type="line"/>
      <point x="254" y="628" type="line"/>
      <point x="173" y="628" type="line"/>
      <point x="173" y="711" type="line"/>
      <point x="106" y="711" type="line"/>
      <point x="106" y="628" type="line"/>
      <point x="22" y="628" type="line"/>
    </contour>
    <contour>
      <point x="-10" y="917" type="line"/>
      <point x="284" y="917" type="line"/>
      <point x="284" y="-213" type="line"/>
      <point x="-10" y="-213" type="line"/>
    </contour>
  </outline>
</glyph>
<glyph name="parenleftsuperior" format="1">
  <advance width="227"/>
  <unicode hex="207D"/>
  <outline>
    <contour>
      <point x="127" y="817" type="line"/>
      <point x="61" y="738"/>
      <point x="30" y="652"/>
      <point x="30" y="566" type="curve" smooth="yes"/>
      <point x="30" y="481"/>
      <point x="59" y="395"/>
      <point x="126" y="313" type="curve"/>
      <point x="211" y="313" type="line"/>
      <point x="144" y="390"/>
      <point x="111" y="479"/>
      <point x="111" y="566" type="curve" smooth="yes"/>
      <point x="111" y="654"/>
      <point x="145" y="739"/>
      <point x="211" y="817" type="curve"/>
    </contour>
    <contour>
      <point x="-9" y="917" type="line"/>
      <point x="235" y="917" type="line"/>
      <point x="235" y="-213" type="line"/>
      <point x="-9" y="-213" type="line"/>
    </contour>
  </outline>
</glyph>
<glyph name="fiveinferior" format="1">
  <advance width="341"/>
  <unicode hex="2085"/>
  <outline>
    <contour>
      <point x="321" y="114" type="curve" smooth="yes"/>
      <point x="321" y="208"/>
      <point x="247" y="232"/>
      <point x="162" y="232" type="curve" smooth="yes"/>
      <point x="144" y="232" type="line"/>
      <point x="144" y="289" type="line"/>
      <point x="210" y="289" type="line"/>
      <point x="217" y="248" type="line"/>
      <point x="301" y="256" type="line"/>
      <point x="291" y="364" type="line"/>
      <point x="51" y="364" type="line"/>
      <point x="51" y="184" type="line"/>
      <point x="82" y="158" type="line"/>
      <point x="101" y="159"/>
      <point x="121" y="161"/>
      <point x="142" y="161" type="curve" smooth="yes"/>
      <point x="181" y="161"/>
      <point x="212" y="154"/>
      <point x="212" y="116" type="curve" smooth="yes"/>
      <point x="212" y="92"/>
      <point x="194" y="72"/>
      <point x="158" y="72" type="curve" smooth="yes"/>
      <point x="125" y="72"/>
      <point x="109" y="88"/>
      <point x="99" y="117" type="curve"/>
      <point x="26" y="92" type="line"/>
      <point x="40" y="20"/>
      <point x="93" y="-7"/>
      <point x="163" y="-7" type="curve" smooth="yes"/>
      <point x="256" y="-7"/>
      <point x="321" y="38"/>
    </contour>
    <contour>
      <point x="-10" y="917" type="line"/>
      <point x="351" y="917" type="line"/>
      <point x="351" y="-213" type="line"/>
      <point x="-10" y="-213" type="line"/>
    </contour>
  </outline>
</glyph>
<glyph name="seveninferior" format="1">
  <advance width="321"/>
  <unicode hex="2087"/>
  <outline>
    <contour>
      <point x="20" y="364" type="line"/>
      <point x="20" y="229" type="line"/>
      <point x="107" y="229" type="line"/>
      <point x="107" y="290" type="line"/>
      <point x="205" y="290" type="line"/>
      <point x="83" y="-1" type="line"/>
      <point x="182" y="-1" type="line"/>
      <point x="314" y="324" type="line"/>
      <point x="303" y="364" type="line"/>
    </contour>
    <contour>
      <point x="-10" y="917" type="line"/>
      <point x="331" y="917" type="line"/>
      <point x="331" y="-213" type="line"/>
      <point x="-10" y="-213" type="line"/>
    </contour>
  </outline>
</glyph>
<glyph name="equal.inferior" format="1">
  <advance width="359"/>
  <unicode hex="208C"/>
  <outline>
    <contour>
      <point x="36" y="213" type="line"/>
      <point x="322" y="213" type="line"/>
      <point x="322" y="275" type="line"/>
      <point x="36" y="275" type="line"/>
    </contour>
    <contour>
      <point x="36" y="89" type="line"/>
      <point x="322" y="89" type="line"/>
      <point x="322" y="150" type="line"/>
      <point x="36" y="150" type="line"/>
    </contour>
    <contour>
      <point x="-10" y="917" type="line"/>
      <point x="369" y="917" type="line"/>
      <point x="369" y="-213" type="line"/>
      <point x="-10" y="-213" type="line"/>
    </contour>
  </outline>
</glyph>
<glyph name="parenleft.inferior" format="1">
  <advance width="224"/>
  <unicode hex="208D"/>
  <outline>
    <contour>
      <point x="126" y="402" type="line"/>
      <point x="60" y="323"/>
      <point x="29" y="237"/>
      <point x="29" y="151" type="curve" smooth="yes"/>
      <point x="29" y="66"/>
      <point x="58" y="-20"/>
      <point x="125" y="-102" type="curve"/>
      <point x="210" y="-102" type="line"/>
      <point x="143" y="-25"/>
      <point x="110" y="64"/>
      <point x="110" y="151" type="curve" smooth="yes"/>
      <point x="110" y="239"/>
      <point x="144" y="324"/>
      <point x="210" y="402" type="curve"/>
    </contour>
    <contour>
      <point x="-10" y="917" type="line"/>
      <point x="234" y="917" type="line"/>
      <point x="234" y="-213" type="line"/>
      <point x="-10" y="-213" type="line"/>
    </contour>
  </outline>
</glyph>
<glyph name="parenright.inferior" format="1">
  <advance width="224"/>
  <unicode hex="208E"/>
  <outline>
    <contour>
      <point x="100" y="-103" type="line"/>
      <point x="166" y="-24"/>
      <point x="197" y="62"/>
      <point x="197" y="148" type="curve" smooth="yes"/>
      <point x="197" y="233"/>
      <point x="168" y="319"/>
      <point x="101" y="401" type="curve"/>
      <point x="16" y="401" type="line"/>
      <point x="83" y="324"/>
      <point x="116" y="235"/>
      <point x="116" y="148" type="curve" smooth="yes"/>
      <point x="116" y="60"/>
      <point x="82" y="-25"/>
      <point x="16" y="-103" type="curve"/>
    </contour>
    <contour>
      <point x="-10" y="917" type="line"/>
      <point x="234" y="917" type="line"/>
      <point x="234" y="-213" type="line"/>
      <point x="-10" y="-213" type="line"/>
    </contour>
  </outline>
</glyph>
<glyph name="o.inferior" format="1">
  <advance width="371"/>
  <unicode hex="2092"/>
  <outline>
    <contour>
      <point x="19" y="142" type="curve" smooth="yes"/>
      <point x="19" y="48"/>
      <point x="87" y="-7"/>
      <point x="181" y="-7" type="curve" smooth="yes"/>
      <point x="279" y="-7"/>
      <point x="353" y="52"/>
      <point x="353" y="147" type="curve" smooth="yes"/>
      <point x="353" y="228"/>
      <point x="299" y="300"/>
      <point x="186" y="300" type="curve" smooth="yes"/>
      <point x="74" y="300"/>
      <point x="19" y="228"/>
    </contour>
    <contour>
      <point x="127" y="148" type="curve" smooth="yes"/>
      <point x="127" y="199"/>
      <point x="149" y="224"/>
      <point x="185" y="224" type="curve" smooth="yes"/>
      <point x="217" y="224"/>
      <point x="245" y="205"/>
      <point x="245" y="149" type="curve" smooth="yes"/>
      <point x="245" y="97"/>
      <point x="221" y="69"/>
      <point x="184" y="69" type="curve" smooth="yes"/>
      <point x="145" y="69"/>
      <point x="127" y="101"/>
    </contour>
    <contour>
      <point x="-10" y="917" type="line"/>
      <point x="381" y="917" type="line"/>
      <point x="381" y="-213" type="line"/>
      <point x="-10" y="-213" type="line"/>
    </contour>
  </outline>
</glyph>
<glyph name="h.inferior" format="1">
  <advance width="413"/>
  <unicode hex="2095"/>
  <outline>
    <contour>
      <point x="156" y="164" type="line" smooth="yes"/>
      <point x="156" y="205"/>
      <point x="173" y="231"/>
      <point x="210" y="231" type="curve" smooth="yes"/>
      <point x="242" y="231"/>
      <point x="257" y="212"/>
      <point x="257" y="164" type="curve" smooth="yes"/>
      <point x="257" y="68" type="line"/>
      <point x="221" y="68" type="line"/>
      <point x="221" y="0" type="line"/>
      <point x="394" y="0" type="line"/>
      <point x="394" y="68" type="line"/>
      <point x="358" y="68" type="line"/>
      <point x="358" y="200" type="line" smooth="yes"/>
      <point x="358" y="268"/>
      <point x="307" y="300"/>
      <point x="250" y="300" type="curve" smooth="yes"/>
      <point x="207" y="300"/>
      <point x="174" y="282"/>
      <point x="156" y="250" type="curve"/>
      <point x="156" y="447" type="line"/>
      <point x="20" y="447" type="line"/>
      <point x="20" y="379" type="line"/>
      <point x="56" y="379" type="line"/>
      <point x="56" y="68" type="line"/>
      <point x="20" y="68" type="line"/>
      <point x="20" y="0" type="line"/>
      <point x="192" y="0" type="line"/>
      <point x="192" y="68" type="line"/>
      <point x="156" y="68" type="line"/>
    </contour>
    <contour>
      <point x="-10" y="917" type="line"/>
      <point x="423" y="917" type="line"/>
      <point x="423" y="-213" type="line"/>
      <point x="-10" y="-213" type="line"/>
    </contour>
    <contour>
      <point x="212" y="368" type="move" name="top"/>
    </contour>
  </outline>
</glyph>
<glyph name="k.inferior" format="1">
  <advance width="395"/>
  <unicode hex="2096"/>
  <outline>
    <contour>
      <point x="16" y="379" type="line"/>
      <point x="56" y="379" type="line"/>
      <point x="56" y="68" type="line"/>
      <point x="20" y="68" type="line"/>
      <point x="20" y="0" type="line"/>
      <point x="178" y="0" type="line"/>
      <point x="178" y="68" type="line"/>
      <point x="156" y="68" type="line"/>
      <point x="156" y="118" type="line"/>
      <point x="196" y="118" type="line"/>
      <point x="243" y="68" type="line"/>
      <point x="218" y="68" type="line"/>
      <point x="218" y="0" type="line"/>
      <point x="377" y="0" type="line"/>
      <point x="377" y="68" type="line"/>
      <point x="356" y="68" type="line"/>
      <point x="275" y="158" type="line"/>
      <point x="331" y="225" type="line"/>
      <point x="364" y="225" type="line"/>
      <point x="364" y="294" type="line"/>
      <point x="208" y="294" type="line"/>
      <point x="208" y="225" type="line"/>
      <point x="238" y="225" type="line"/>
      <point x="203" y="182" type="line"/>
      <point x="156" y="182" type="line"/>
      <point x="156" y="447" type="line"/>
      <point x="16" y="447" type="line"/>
    </contour>
    <contour>
      <point x="-10" y="917" type="line"/>
      <point x="405" y="917" type="line"/>
      <point x="405" y="-213" type="line"/>
      <point x="-10" y="-213" type="line"/>
    </contour>
  </outline>
</glyph>
<glyph name="l.inferior" format="1">
  <advance width="212"/>
  <unicode hex="2097"/>
  <outline>
    <contour>
      <point x="16" y="379" type="line"/>
      <point x="56" y="379" type="line"/>
      <point x="56" y="68" type="line"/>
      <point x="20" y="68" type="line"/>
      <point x="20" y="0" type="line"/>
      <point x="192" y="0" type="line"/>
      <point x="192" y="68" type="line"/>
      <point x="156" y="68" type="line"/>
      <point x="156" y="447" type="line"/>
      <point x="16" y="447" type="line"/>
    </contour>
    <contour>
      <point x="-10" y="917" type="line"/>
      <point x="223" y="917" type="line"/>
      <point x="223" y="-213" type="line"/>
      <point x="-10" y="-213" type="line"/>
    </contour>
    <contour>
      <point x="211" y="368" type="move" name="top"/>
    </contour>
  </outline>
</glyph>
<glyph name="s.inferior" format="1">
  <advance width="331"/>
  <unicode hex="209B"/>
  <outline>
    <contour>
      <point x="166" y="62" type="curve" smooth="yes"/>
      <point x="148" y="62"/>
      <point x="118" y="67"/>
      <point x="111" y="69" type="curve"/>
      <point x="115" y="96" type="line"/>
      <point x="38" y="104" type="line"/>
      <point x="23" y="29" type="line"/>
      <point x="61" y="6"/>
      <point x="115" y="-7"/>
      <point x="169" y="-7" type="curve" smooth="yes"/>
      <point x="252" y="-7"/>
      <point x="309" y="24"/>
      <point x="309" y="90" type="curve" smooth="yes"/>
      <point x="309" y="204"/>
      <point x="136" y="159"/>
      <point x="136" y="210" type="curve" smooth="yes"/>
      <point x="136" y="227"/>
      <point x="154" y="231"/>
      <point x="173" y="231" type="curve" smooth="yes"/>
      <point x="189" y="231"/>
      <point x="206" y="228"/>
      <point x="213" y="226" type="curve"/>
      <point x="220" y="198" type="line"/>
      <point x="297" y="206" type="line"/>
      <point x="288" y="270" type="line"/>
      <point x="252" y="293"/>
      <point x="205" y="300"/>
      <point x="169" y="300" type="curve" smooth="yes"/>
      <point x="110" y="300"/>
      <point x="28" y="282"/>
      <point x="28" y="205" type="curve" smooth="yes"/>
      <point x="28" y="92"/>
      <point x="208" y="136"/>
      <point x="208" y="86" type="curve" smooth="yes"/>
      <point x="208" y="68"/>
      <point x="185" y="62"/>
    </contour>
    <contour>
      <point x="-10" y="917" type="line"/>
      <point x="341" y="917" type="line"/>
      <point x="341" y="-213" type="line"/>
      <point x="-10" y="-213" type="line"/>
    </contour>
  </outline>
</glyph>
<glyph name="t.inferior" format="1">
  <advance width="299"/>
  <unicode hex="209C"/>
  <outline>
    <contour>
      <point x="13" y="225" type="line"/>
      <point x="54" y="225" type="line"/>
      <point x="54" y="88" type="line" smooth="yes"/>
      <point x="54" y="27"/>
      <point x="104" y="-7"/>
      <point x="174" y="-7" type="curve" smooth="yes"/>
      <point x="240" y="-7"/>
      <point x="284" y="24"/>
      <point x="292" y="93" type="curve"/>
      <point x="220" y="114" type="line"/>
      <point x="216" y="71"/>
      <point x="192" y="69"/>
      <point x="185" y="69" type="curve" smooth="yes"/>
      <point x="169" y="69"/>
      <point x="154" y="77"/>
      <point x="154" y="104" type="curve" smooth="yes"/>
      <point x="154" y="225" type="line"/>
      <point x="260" y="225" type="line"/>
      <point x="260" y="294" type="line"/>
      <point x="154" y="294" type="line"/>
      <point x="154" y="382" type="line"/>
      <point x="54" y="382" type="line"/>
      <point x="54" y="294" type="line"/>
      <point x="13" y="294" type="line"/>
    </contour>
    <contour>
      <point x="-10" y="917" type="line"/>
      <point x="309" y="917" type="line"/>
      <point x="309" y="-213" type="line"/>
      <point x="-10" y="-213" type="line"/>
    </contour>
  </outline>
</glyph>
<glyph name="cruzeiro" format="1">
  <advance width="643"/>
  <unicode hex="20A2"/>
  <outline>
    <contour>
      <point x="-10" y="-213" type="line"/>
      <point x="653" y="-213" type="line"/>
      <point x="653" y="917" type="line"/>
      <point x="-10" y="917" type="line"/>
    </contour>
    <contour>
      <point x="594" y="69" type="line"/>
      <point x="551" y="23"/>
      <point x="444" y="-10"/>
      <point x="351" y="-10" type="curve" smooth="yes"/>
      <point x="165" y="-10"/>
      <point x="24" y="121"/>
      <point x="24" y="314" type="curve" smooth="yes"/>
      <point x="24" y="465"/>
      <point x="110" y="660"/>
      <point x="357" y="660" type="curve" smooth="yes"/>
      <point x="468" y="660"/>
      <point x="549" y="621"/>
      <point x="591" y="582" type="curve"/>
      <point x="607" y="431" type="line"/>
      <point x="498" y="421" type="line"/>
      <point x="484" y="507" type="line"/>
      <point x="450" y="530"/>
      <point x="395" y="542"/>
      <point x="351" y="542" type="curve" smooth="yes"/>
      <point x="239" y="542"/>
      <point x="168" y="465"/>
      <point x="168" y="323" type="curve" smooth="yes"/>
      <point x="168" y="216"/>
      <point x="207" y="153"/>
      <point x="270" y="125" type="curve"/>
      <point x="270" y="283" type="line"/>
      <point x="205" y="283" type="line"/>
      <point x="205" y="381" type="line"/>
      <point x="389" y="381" type="line"/>
      <point x="389" y="304" type="line"/>
      <point x="401" y="350"/>
      <point x="426" y="386"/>
      <point x="478" y="386" type="curve" smooth="yes"/>
      <point x="498" y="386"/>
      <point x="525" y="380"/>
      <point x="551" y="366" type="curve"/>
      <point x="562" y="248" type="line"/>
      <point x="482" y="239" type="line"/>
      <point x="473" y="280" type="line"/>
      <point x="462" y="286"/>
      <point x="451" y="289"/>
      <point x="441" y="289" type="curve" smooth="yes"/>
      <point x="417" y="289"/>
      <point x="399" y="273"/>
      <point x="399" y="245" type="curve" smooth="yes"/>
      <point x="399" y="110" type="line"/>
      <point x="434" y="114"/>
      <point x="465" y="124"/>
      <point x="484" y="135" type="curve"/>
      <point x="498" y="232" type="line"/>
      <point x="607" y="222" type="line"/>
    </contour>
  </outline>
</glyph>
<glyph name="lira" format="1">
  <advance width="575"/>
  <unicode hex="20A4"/>
  <outline>
    <contour>
      <point x="-10" y="917" type="line"/>
      <point x="585" y="917" type="line"/>
      <point x="585" y="-213" type="line"/>
      <point x="-10" y="-213" type="line"/>
    </contour>
    <contour>
      <point x="40" y="339" type="line"/>
      <point x="112" y="339" type="line"/>
      <point x="112" y="287" type="line"/>
      <point x="40" y="287" type="line"/>
      <point x="40" y="209" type="line"/>
      <point x="109" y="209" type="line"/>
      <point x="103" y="168"/>
      <point x="88" y="136"/>
      <point x="45" y="111" type="curve"/>
      <point x="45" y="0" type="line"/>
      <point x="373" y="0" type="line" smooth="yes"/>
      <point x="472" y="0"/>
      <point x="534" y="68"/>
      <point x="548" y="104" type="curve"/>
      <point x="489" y="173" type="line"/>
      <point x="456" y="135"/>
      <point x="417" y="114"/>
      <point x="346" y="114" type="curve" smooth="yes"/>
      <point x="177" y="114" type="line"/>
      <point x="218" y="140"/>
      <point x="234" y="173"/>
      <point x="241" y="209" type="curve"/>
      <point x="427" y="209" type="line"/>
      <point x="427" y="287" type="line"/>
      <point x="246" y="287" type="line"/>
      <point x="246" y="339" type="line"/>
      <point x="427" y="339" type="line"/>
      <point x="427" y="417" type="line"/>
      <point x="246" y="418" type="line"/>
      <point x="246" y="436" type="line"/>
      <point x="250" y="514"/>
      <point x="277" y="542"/>
      <point x="329" y="542" type="curve" smooth="yes"/>
      <point x="349" y="542"/>
      <point x="378" y="538"/>
      <point x="400" y="527" type="curve"/>
      <point x="414" y="441" type="line"/>
      <point x="523" y="451" type="line"/>
      <point x="507" y="602" type="line"/>
      <point x="463" y="645"/>
      <point x="385" y="660"/>
      <point x="331" y="660" type="curve" smooth="yes"/>
      <point x="212" y="660"/>
      <point x="121" y="586"/>
      <point x="113" y="440" type="curve"/>
      <point x="112" y="432"/>
      <point x="112" y="425"/>
      <point x="112" y="417" type="curve"/>
      <point x="40" y="417" type="line"/>
    </contour>
  </outline>
</glyph>
<glyph name="mill" format="1">
  <advance width="908"/>
  <unicode hex="20A5"/>
  <outline>
    <contour>
      <point x="8" y="-213" type="line"/>
      <point x="905" y="-213" type="line"/>
      <point x="905" y="917" type="line"/>
      <point x="8" y="917" type="line"/>
    </contour>
    <contour>
      <point x="693" y="0" type="line"/>
      <point x="693" y="254" type="line" smooth="yes"/>
      <point x="693" y="332"/>
      <point x="667" y="362"/>
      <point x="616" y="362" type="curve" smooth="yes"/>
      <point x="598" y="362"/>
      <point x="584" y="359"/>
      <point x="572" y="352" type="curve"/>
      <point x="529" y="253" type="line"/>
      <point x="529" y="97" type="line"/>
      <point x="589" y="97" type="line"/>
      <point x="589" y="0" type="line"/>
      <point x="418" y="0" type="line"/>
      <point x="361" y="-130" type="line"/>
      <point x="272" y="-130" type="line"/>
      <point x="400" y="161" type="line"/>
      <point x="400" y="254" type="line" smooth="yes"/>
      <point x="400" y="332"/>
      <point x="374" y="362"/>
      <point x="323" y="362" type="curve" smooth="yes"/>
      <point x="261" y="362"/>
      <point x="236" y="318"/>
      <point x="236" y="255" type="curve" smooth="yes"/>
      <point x="236" y="97" type="line"/>
      <point x="322" y="97" type="line"/>
      <point x="322" y="0" type="line"/>
      <point x="47" y="0" type="line"/>
      <point x="47" y="97" type="line"/>
      <point x="107" y="97" type="line"/>
      <point x="107" y="353" type="line"/>
      <point x="48" y="353" type="line"/>
      <point x="48" y="451" type="line"/>
      <point x="236" y="451" type="line"/>
      <point x="236" y="383" type="line"/>
      <point x="263" y="431"/>
      <point x="310" y="460"/>
      <point x="373" y="460" type="curve" smooth="yes"/>
      <point x="425" y="460"/>
      <point x="475" y="440"/>
      <point x="503" y="397" type="curve"/>
      <point x="577" y="565" type="line"/>
      <point x="666" y="565" type="line"/>
      <point x="617" y="453" type="line"/>
      <point x="632" y="458"/>
      <point x="649" y="460"/>
      <point x="667" y="460" type="curve" smooth="yes"/>
      <point x="748" y="460"/>
      <point x="822" y="411"/>
      <point x="822" y="304" type="curve" smooth="yes"/>
      <point x="822" y="97" type="line"/>
      <point x="882" y="97" type="line"/>
      <point x="882" y="0" type="line"/>
    </contour>
  </outline>
</glyph>
<glyph name="pesetas" format="1">
  <advance width="1429"/>
  <unicode hex="20A7"/>
  <outline>
    <contour>
      <point x="584" y="438" type="curve" smooth="yes"/>
      <point x="584" y="290"/>
      <point x="471" y="218"/>
      <point x="343" y="218" type="curve" smooth="yes"/>
      <point x="243" y="218" type="line"/>
      <point x="243" y="114" type="line"/>
      <point x="343" y="114" type="line"/>
      <point x="343" y="0" type="line"/>
      <point x="39" y="0" type="line"/>
      <point x="39" y="114" type="line"/>
      <point x="109" y="114" type="line"/>
      <point x="109" y="536" type="line"/>
      <point x="39" y="536" type="line"/>
      <point x="39" y="650" type="line"/>
      <point x="337" y="650" type="line" smooth="yes"/>
      <point x="498" y="650"/>
      <point x="584" y="568"/>
    </contour>
    <contour>
      <point x="440" y="436" type="curve" smooth="yes"/>
      <point x="440" y="500"/>
      <point x="409" y="536"/>
      <point x="320" y="536" type="curve" smooth="yes"/>
      <point x="243" y="536" type="line"/>
      <point x="243" y="331" type="line"/>
      <point x="318" y="331" type="line" smooth="yes"/>
      <point x="410" y="331"/>
      <point x="440" y="373"/>
    </contour>
    <contour>
      <point x="1405" y="138" type="curve" smooth="yes"/>
      <point x="1405" y="38"/>
      <point x="1317" y="-10"/>
      <point x="1191" y="-10" type="curve" smooth="yes"/>
      <point x="1126" y="-10"/>
      <point x="1058" y="3"/>
      <point x="998" y="34" type="curve"/>
      <point x="1016" y="160" type="line"/>
      <point x="1116" y="149" type="line"/>
      <point x="1116" y="93" type="line"/>
      <point x="1140" y="85"/>
      <point x="1170" y="84"/>
      <point x="1184" y="84" type="curve" smooth="yes"/>
      <point x="1233" y="84"/>
      <point x="1275" y="100"/>
      <point x="1275" y="132" type="curve" smooth="yes"/>
      <point x="1275" y="209"/>
      <point x="1003" y="141"/>
      <point x="1003" y="320" type="curve" smooth="yes"/>
      <point x="1003" y="431"/>
      <point x="1109" y="460"/>
      <point x="1201" y="460" type="curve" smooth="yes"/>
      <point x="1261" y="460"/>
      <point x="1314" y="448"/>
      <point x="1370" y="419" type="curve"/>
      <point x="1381" y="304" type="line"/>
      <point x="1281" y="293" type="line"/>
      <point x="1273" y="356" type="line"/>
      <point x="1249" y="364"/>
      <point x="1223" y="367"/>
      <point x="1202" y="367" type="curve" smooth="yes"/>
      <point x="1169" y="367"/>
      <point x="1142" y="354"/>
      <point x="1142" y="324" type="curve" smooth="yes"/>
      <point x="1142" y="246"/>
      <point x="1405" y="312"/>
    </contour>
    <contour>
      <point x="983" y="140" type="line"/>
      <point x="970" y="36"/>
      <point x="913" y="-10"/>
      <point x="819" y="-10" type="curve" smooth="yes"/>
      <point x="719" y="-10"/>
      <point x="655" y="42"/>
      <point x="655" y="135" type="curve" smooth="yes"/>
      <point x="655" y="359" type="line"/>
      <point x="591" y="359" type="line"/>
      <point x="591" y="451" type="line"/>
      <point x="655" y="451" type="line"/>
      <point x="655" y="588" type="line"/>
      <point x="784" y="588" type="line"/>
      <point x="784" y="451" type="line"/>
      <point x="946" y="451" type="line"/>
      <point x="946" y="359" type="line"/>
      <point x="784" y="359" type="line"/>
      <point x="784" y="157" type="line" smooth="yes"/>
      <point x="784" y="114"/>
      <point x="802" y="98"/>
      <point x="834" y="98" type="curve" smooth="yes"/>
      <point x="850" y="98"/>
      <point x="881" y="102"/>
      <point x="889" y="169" type="curve"/>
    </contour>
    <contour>
      <point x="-10" y="-213" type="line"/>
      <point x="1439" y="-213" type="line"/>
      <point x="1439" y="917" type="line"/>
      <point x="-10" y="917" type="line"/>
    </contour>
  </outline>
</glyph>
<glyph name="rupee" format="1">
  <advance width="1008"/>
  <unicode hex="20A8"/>
  <outline>
    <contour>
      <point x="-10" y="917" type="line"/>
      <point x="1018" y="917" type="line"/>
      <point x="1018" y="-213" type="line"/>
      <point x="-10" y="-213" type="line"/>
    </contour>
    <contour>
      <point x="40" y="0" type="line"/>
      <point x="314" y="0" type="line"/>
      <point x="314" y="114" type="line"/>
      <point x="244" y="114" type="line"/>
      <point x="244" y="248" type="line"/>
      <point x="330" y="248" type="line"/>
      <point x="357" y="194" type="line" smooth="yes"/>
      <point x="431" y="43"/>
      <point x="583" y="-10"/>
      <point x="736" y="-10" type="curve" smooth="yes"/>
      <point x="903" y="-10"/>
      <point x="979" y="53"/>
      <point x="979" y="142" type="curve" smooth="yes"/>
      <point x="979" y="308"/>
      <point x="716" y="242"/>
      <point x="716" y="324" type="curve" smooth="yes"/>
      <point x="716" y="354"/>
      <point x="750" y="362"/>
      <point x="776" y="362" type="curve" smooth="yes"/>
      <point x="797" y="362"/>
      <point x="823" y="357"/>
      <point x="847" y="349" type="curve"/>
      <point x="855" y="293" type="line"/>
      <point x="955" y="304" type="line"/>
      <point x="944" y="419" type="line"/>
      <point x="888" y="448"/>
      <point x="835" y="460"/>
      <point x="775" y="460" type="curve" smooth="yes"/>
      <point x="684" y="460"/>
      <point x="577" y="432"/>
      <point x="577" y="319" type="curve" smooth="yes"/>
      <point x="577" y="140"/>
      <point x="849" y="215"/>
      <point x="849" y="132" type="curve" smooth="yes"/>
      <point x="849" y="100"/>
      <point x="809" y="88"/>
      <point x="751" y="88" type="curve" smooth="yes"/>
      <point x="679" y="88"/>
      <point x="547" y="107"/>
      <point x="488" y="222" type="curve" smooth="yes"/>
      <point x="460" y="276" type="line"/>
      <point x="534" y="304"/>
      <point x="585" y="365"/>
      <point x="585" y="458" type="curve" smooth="yes"/>
      <point x="585" y="582"/>
      <point x="494" y="650"/>
      <point x="334" y="650" type="curve" smooth="yes"/>
      <point x="40" y="650" type="line"/>
      <point x="40" y="536" type="line"/>
      <point x="110" y="536" type="line"/>
      <point x="110" y="114" type="line"/>
      <point x="40" y="114" type="line"/>
    </contour>
    <contour>
      <point x="310" y="536" type="line" smooth="yes"/>
      <point x="408" y="536"/>
      <point x="441" y="515"/>
      <point x="441" y="450" type="curve" smooth="yes"/>
      <point x="441" y="388"/>
      <point x="410" y="354"/>
      <point x="308" y="354" type="curve" smooth="yes"/>
      <point x="244" y="354" type="line"/>
      <point x="244" y="536" type="line"/>
    </contour>
  </outline>
</glyph>
<glyph name="dong" format="1">
  <advance width="550"/>
  <unicode hex="20AB"/>
  <outline>
    <contour>
      <point x="343" y="145" type="line"/>
      <point x="515" y="145" type="line"/>
      <point x="515" y="222" type="line"/>
      <point x="461" y="222" type="line"/>
      <point x="461" y="561" type="line"/>
      <point x="511" y="561" type="line"/>
      <point x="511" y="638" type="line"/>
      <point x="461" y="638" type="line"/>
      <point x="461" y="688" type="line"/>
      <point x="343" y="688" type="line"/>
      <point x="343" y="638" type="line"/>
      <point x="199" y="638" type="line"/>
      <point x="199" y="561" type="line"/>
      <point x="343" y="561" type="line"/>
      <point x="343" y="447" type="line"/>
      <point x="320" y="483"/>
      <point x="279" y="508"/>
      <point x="212" y="508" type="curve" smooth="yes"/>
      <point x="89" y="508"/>
      <point x="29" y="422"/>
      <point x="29" y="317" type="curve" smooth="yes"/>
      <point x="29" y="206"/>
      <point x="96" y="137"/>
      <point x="203" y="137" type="curve" smooth="yes"/>
      <point x="277" y="137"/>
      <point x="320" y="169"/>
      <point x="343" y="210" type="curve"/>
    </contour>
    <contour>
      <point x="64" y="0" type="line"/>
      <point x="487" y="0" type="line"/>
      <point x="487" y="87" type="line"/>
      <point x="64" y="87" type="line"/>
    </contour>
    <contour>
      <point x="249" y="424" type="curve" smooth="yes"/>
      <point x="303" y="424"/>
      <point x="343" y="393"/>
      <point x="343" y="334" type="curve" smooth="yes"/>
      <point x="343" y="325" type="line" smooth="yes"/>
      <point x="343" y="272"/>
      <point x="305" y="222"/>
      <point x="243" y="222" type="curve" smooth="yes"/>
      <point x="193" y="222"/>
      <point x="156" y="255"/>
      <point x="156" y="323" type="curve" smooth="yes"/>
      <point x="156" y="395"/>
      <point x="198" y="424"/>
    </contour>
    <contour>
      <point x="-10" y="917" type="line"/>
      <point x="560" y="917" type="line"/>
      <point x="560" y="-213" type="line"/>
      <point x="-10" y="-213" type="line"/>
    </contour>
  </outline>
</glyph>
<glyph name="uni20AE" format="1">
  <advance width="652"/>
  <unicode hex="20AE"/>
  <outline>
    <contour>
      <point x="-10" y="-213" type="line"/>
      <point x="662" y="-213" type="line"/>
      <point x="662" y="917" type="line"/>
      <point x="-10" y="917" type="line"/>
    </contour>
    <contour>
      <point x="172" y="256" type="line"/>
      <point x="258" y="277" type="line"/>
      <point x="258" y="307" type="line"/>
      <point x="172" y="286" type="line"/>
      <point x="172" y="376" type="line"/>
      <point x="258" y="397" type="line"/>
      <point x="258" y="536" type="line"/>
      <point x="155" y="536" type="line"/>
      <point x="135" y="420" type="line"/>
      <point x="21" y="430" type="line"/>
      <point x="41" y="650" type="line"/>
      <point x="609" y="650" type="line"/>
      <point x="629" y="430" type="line"/>
      <point x="515" y="420" type="line"/>
      <point x="495" y="536" type="line"/>
      <point x="392" y="536" type="line"/>
      <point x="392" y="430" type="line"/>
      <point x="485" y="453" type="line"/>
      <point x="485" y="363" type="line"/>
      <point x="392" y="340" type="line"/>
      <point x="392" y="310" type="line"/>
      <point x="485" y="333" type="line"/>
      <point x="485" y="243" type="line"/>
      <point x="392" y="220" type="line"/>
      <point x="392" y="114" type="line"/>
      <point x="498" y="114" type="line"/>
      <point x="498" y="0" type="line"/>
      <point x="158" y="0" type="line"/>
      <point x="158" y="114" type="line"/>
      <point x="258" y="114" type="line"/>
      <point x="258" y="187" type="line"/>
      <point x="172" y="166" type="line"/>
    </contour>
  </outline>
</glyph>
<glyph name="uni20B1" format="1">
  <advance width="614"/>
  <unicode hex="20B1"/>
  <outline>
    <contour>
      <point x="-10" y="-213" type="line"/>
      <point x="624" y="-213" type="line"/>
      <point x="624" y="917" type="line"/>
      <point x="-10" y="917" type="line"/>
    </contour>
    <contour>
      <point x="584" y="438" type="line" smooth="yes"/>
      <point x="584" y="432"/>
      <point x="584" y="426"/>
      <point x="583" y="421" type="curve"/>
      <point x="608" y="421" type="line"/>
      <point x="608" y="353" type="line"/>
      <point x="569" y="353" type="line"/>
      <point x="534" y="262"/>
      <point x="443" y="218"/>
      <point x="343" y="218" type="curve" smooth="yes"/>
      <point x="243" y="218" type="line"/>
      <point x="243" y="114" type="line"/>
      <point x="343" y="114" type="line"/>
      <point x="343" y="0" type="line"/>
      <point x="39" y="0" type="line"/>
      <point x="39" y="114" type="line"/>
      <point x="109" y="114" type="line"/>
      <point x="109" y="353" type="line"/>
      <point x="14" y="353" type="line"/>
      <point x="14" y="421" type="line"/>
      <point x="109" y="421" type="line"/>
      <point x="109" y="443" type="line"/>
      <point x="14" y="443" type="line"/>
      <point x="14" y="511" type="line"/>
      <point x="109" y="511" type="line"/>
      <point x="109" y="536" type="line"/>
      <point x="39" y="536" type="line"/>
      <point x="39" y="650" type="line"/>
      <point x="337" y="650" type="line" smooth="yes"/>
      <point x="465" y="650"/>
      <point x="546" y="598"/>
      <point x="573" y="511" type="curve"/>
      <point x="608" y="511" type="line"/>
      <point x="608" y="443" type="line"/>
      <point x="584" y="443" type="line"/>
    </contour>
    <contour>
      <point x="440" y="436" type="curve"/>
      <point x="440" y="443" type="line"/>
      <point x="243" y="443" type="line"/>
      <point x="243" y="421" type="line"/>
      <point x="439" y="421" type="line"/>
      <point x="440" y="426"/>
      <point x="440" y="431"/>
    </contour>
    <contour>
      <point x="320" y="536" type="curve"/>
      <point x="243" y="536" type="line"/>
      <point x="243" y="511" type="line"/>
      <point x="412" y="511" type="line"/>
      <point x="393" y="527"/>
      <point x="363" y="536"/>
    </contour>
    <contour>
      <point x="318" y="331" type="line" smooth="yes"/>
      <point x="358" y="331"/>
      <point x="386" y="339"/>
      <point x="405" y="353" type="curve"/>
      <point x="243" y="353" type="line"/>
      <point x="243" y="331" type="line"/>
    </contour>
  </outline>
</glyph>
<glyph name="uni2113" format="1">
  <advance width="474"/>
  <unicode hex="2113"/>
  <outline>
    <contour>
      <point x="66" y="185" type="line"/>
      <point x="104" y="203" type="line"/>
      <point x="104" y="160" type="line" smooth="yes"/>
      <point x="104" y="40"/>
      <point x="170" y="-10"/>
      <point x="272" y="-10" type="curve" smooth="yes"/>
      <point x="326" y="-10"/>
      <point x="368" y="4"/>
      <point x="400" y="30" type="curve"/>
      <point x="385" y="124" type="line"/>
      <point x="353" y="106"/>
      <point x="320" y="95"/>
      <point x="295" y="95" type="curve" smooth="yes"/>
      <point x="259" y="95"/>
      <point x="234" y="117"/>
      <point x="234" y="186" type="curve" smooth="yes"/>
      <point x="234" y="269" type="line"/>
      <point x="367" y="345"/>
      <point x="462" y="427"/>
      <point x="462" y="525" type="curve" smooth="yes"/>
      <point x="462" y="592"/>
      <point x="418" y="660"/>
      <point x="304" y="660" type="curve" smooth="yes"/>
      <point x="159" y="660"/>
      <point x="104" y="550"/>
      <point x="104" y="450" type="curve" smooth="yes"/>
      <point x="104" y="290" type="line"/>
      <point x="31" y="255" type="line"/>
    </contour>
    <contour>
      <point x="234" y="431" type="line" smooth="yes"/>
      <point x="234" y="503"/>
      <point x="240" y="552"/>
      <point x="291" y="552" type="curve" smooth="yes"/>
      <point x="318" y="552"/>
      <point x="340" y="537"/>
      <point x="340" y="499" type="curve" smooth="yes"/>
      <point x="340" y="451"/>
      <point x="306" y="409"/>
      <point x="234" y="362" type="curve"/>
    </contour>
    <contour>
      <point x="-13" y="917" type="line"/>
      <point x="484" y="917" type="line"/>
      <point x="484" y="-213" type="line"/>
      <point x="-13" y="-213" type="line"/>
    </contour>
  </outline>
</glyph>
<glyph name="uni2117" format="1">
  <advance width="596"/>
  <unicode hex="2117"/>
  <outline>
    <contour>
      <point x="298" y="-7" type="curve" smooth="yes"/>
      <point x="446" y="-7"/>
      <point x="566" y="111"/>
      <point x="566" y="261" type="curve" smooth="yes"/>
      <point x="566" y="409"/>
      <point x="449" y="529"/>
      <point x="299" y="529" type="curve" smooth="yes"/>
      <point x="148" y="529"/>
      <point x="30" y="409"/>
      <point x="30" y="260" type="curve" smooth="yes"/>
      <point x="30" y="110"/>
      <point x="150" y="-7"/>
    </contour>
    <contour>
      <point x="298" y="58" type="curve" smooth="yes"/>
      <point x="175" y="58"/>
      <point x="100" y="149"/>
      <point x="100" y="260" type="curve" smooth="yes"/>
      <point x="100" y="370"/>
      <point x="174" y="463"/>
      <point x="299" y="463" type="curve" smooth="yes"/>
      <point x="424" y="463"/>
      <point x="496" y="370"/>
      <point x="496" y="261" type="curve" smooth="yes"/>
      <point x="496" y="150"/>
      <point x="416" y="58"/>
    </contour>
    <contour>
      <point x="189" y="117" type="line"/>
      <point x="336" y="117" type="line"/>
      <point x="336" y="172" type="line"/>
      <point x="292" y="172" type="line"/>
      <point x="292" y="213" type="line"/>
      <point x="334" y="213" type="line" smooth="yes"/>
      <point x="394" y="213"/>
      <point x="449" y="245"/>
      <point x="449" y="313" type="curve" smooth="yes"/>
      <point x="449" y="373"/>
      <point x="406" y="410"/>
      <point x="331" y="410" type="curve" smooth="yes"/>
      <point x="189" y="410" type="line"/>
      <point x="189" y="355" type="line"/>
      <point x="220" y="355" type="line"/>
      <point x="220" y="172" type="line"/>
      <point x="189" y="172" type="line"/>
    </contour>
    <contour>
      <point x="322" y="355" type="line" smooth="yes"/>
      <point x="360" y="355"/>
      <point x="371" y="339"/>
      <point x="371" y="311" type="curve" smooth="yes"/>
      <point x="371" y="286"/>
      <point x="362" y="268"/>
      <point x="320" y="268" type="curve" smooth="yes"/>
      <point x="292" y="268" type="line"/>
      <point x="292" y="355" type="line"/>
    </contour>
    <contour>
      <point x="-10" y="917" type="line"/>
      <point x="605" y="917" type="line"/>
      <point x="605" y="-213" type="line"/>
      <point x="-10" y="-213" type="line"/>
    </contour>
  </outline>
</glyph>
<glyph name="onethird" format="1">
  <advance width="785"/>
  <unicode hex="2153"/>
  <outline>
    <contour>
      <point x="547" y="243" type="line"/>
      <point x="556" y="284" type="line"/>
      <point x="571" y="292"/>
      <point x="584" y="294"/>
      <point x="598" y="294" type="curve"/>
      <point x="625" y="294"/>
      <point x="638" y="283"/>
      <point x="638" y="260" type="curve" smooth="yes"/>
      <point x="638" y="222"/>
      <point x="605" y="219"/>
      <point x="571" y="217" type="curve"/>
      <point x="571" y="161" type="line"/>
      <point x="614" y="159"/>
      <point x="650" y="150"/>
      <point x="650" y="116" type="curve" smooth="yes"/>
      <point x="650" y="92"/>
      <point x="632" y="72"/>
      <point x="596" y="72" type="curve" smooth="yes"/>
      <point x="563" y="72"/>
      <point x="547" y="88"/>
      <point x="537" y="117" type="curve"/>
      <point x="464" y="92" type="line"/>
      <point x="478" y="20"/>
      <point x="531" y="-7"/>
      <point x="601" y="-7" type="curve" smooth="yes"/>
      <point x="694" y="-7"/>
      <point x="759" y="33"/>
      <point x="759" y="102" type="curve" smooth="yes"/>
      <point x="759" y="143"/>
      <point x="738" y="180"/>
      <point x="686" y="193" type="curve"/>
      <point x="686" y="195" type="line"/>
      <point x="727" y="214"/>
      <point x="747" y="242"/>
      <point x="747" y="276" type="curve" smooth="yes"/>
      <point x="747" y="328"/>
      <point x="701" y="369"/>
      <point x="615" y="369" type="curve" smooth="yes"/>
      <point x="574" y="369"/>
      <point x="519" y="360"/>
      <point x="483" y="344" type="curve"/>
      <point x="470" y="249" type="line"/>
    </contour>
    <contour>
      <point x="511" y="650" type="line"/>
      <point x="337" y="337" type="line"/>
      <point x="139" y="0" type="line"/>
      <point x="227" y="0" type="line"/>
      <point x="408" y="325" type="line"/>
      <point x="599" y="650" type="line"/>
    </contour>
    <contour>
      <point x="35" y="575" type="line"/>
      <point x="108" y="575" type="line"/>
      <point x="108" y="361" type="line"/>
      <point x="35" y="361" type="line"/>
      <point x="35" y="286" type="line"/>
      <point x="274" y="286" type="line"/>
      <point x="274" y="361" type="line"/>
      <point x="209" y="361" type="line"/>
      <point x="209" y="650" type="line"/>
      <point x="35" y="650" type="line"/>
    </contour>
    <contour>
      <point x="-10" y="917" type="line"/>
      <point x="795" y="917" type="line"/>
      <point x="795" y="-213" type="line"/>
      <point x="-10" y="-213" type="line"/>
    </contour>
  </outline>
</glyph>
<glyph name="arrowleft" format="1">
  <advance width="765"/>
  <unicode hex="2190"/>
  <outline>
    <contour>
      <point x="-10" y="917" type="line"/>
      <point x="765" y="917" type="line"/>
      <point x="765" y="305" type="line"/>
      <point x="238" y="305" type="line"/>
      <point x="299" y="373" type="line"/>
      <point x="299" y="485" type="line"/>
      <point x="31" y="269" type="line"/>
      <point x="31" y="232" type="line"/>
      <point x="300" y="20" type="line"/>
      <point x="300" y="132" type="line"/>
      <point x="239" y="197" type="line"/>
      <point x="765" y="197" type="line"/>
      <point x="765" y="-213" type="line"/>
      <point x="-10" y="-213" type="line"/>
    </contour>
  </outline>
</glyph>
<glyph name="arrowright" format="1">
  <advance width="765"/>
  <unicode hex="2192"/>
  <outline>
    <contour>
      <point x="0" y="917" type="line"/>
      <point x="775" y="917" type="line"/>
      <point x="775" y="-213" type="line"/>
      <point x="0" y="-213" type="line"/>
      <point x="0" y="197" type="line"/>
      <point x="526" y="197" type="line"/>
      <point x="465" y="132" type="line"/>
      <point x="465" y="20" type="line"/>
      <point x="734" y="232" type="line"/>
      <point x="734" y="269" type="line"/>
      <point x="466" y="485" type="line"/>
      <point x="466" y="373" type="line"/>
      <point x="527" y="305" type="line"/>
      <point x="0" y="305" type="line"/>
    </contour>
  </outline>
</glyph>
<glyph name="uni2196" format="1">
  <advance width="632"/>
  <unicode hex="2196"/>
  <outline>
    <contour>
      <point x="57" y="614" type="line"/>
      <point x="31" y="588" type="line"/>
      <point x="67" y="246" type="line"/>
      <point x="147" y="325" type="line"/>
      <point x="152" y="415" type="line"/>
      <point x="524" y="44" type="line"/>
      <point x="601" y="120" type="line"/>
      <point x="229" y="492" type="line"/>
      <point x="318" y="495" type="line"/>
      <point x="397" y="574" type="line"/>
    </contour>
    <contour>
      <point x="-10" y="917" type="line"/>
      <point x="642" y="917" type="line"/>
      <point x="642" y="-213" type="line"/>
      <point x="-10" y="-213" type="line"/>
    </contour>
  </outline>
</glyph>
<glyph name="product" format="1">
  <advance width="685"/>
  <unicode hex="220F"/>
  <outline>
    <contour>
      <point x="241" y="536" type="line"/>
      <point x="444" y="536" type="line"/>
      <point x="444" y="114" type="line"/>
      <point x="374" y="114" type="line"/>
      <point x="374" y="0" type="line"/>
      <point x="648" y="0" type="line"/>
      <point x="648" y="114" type="line"/>
      <point x="578" y="114" type="line"/>
      <point x="578" y="536" type="line"/>
      <point x="648" y="536" type="line"/>
      <point x="648" y="650" type="line"/>
      <point x="37" y="650" type="line"/>
      <point x="37" y="536" type="line"/>
      <point x="107" y="536" type="line"/>
      <point x="107" y="114" type="line"/>
      <point x="37" y="114" type="line"/>
      <point x="37" y="0" type="line"/>
      <point x="311" y="0" type="line"/>
      <point x="311" y="114" type="line"/>
      <point x="241" y="114" type="line"/>
    </contour>
    <contour>
      <point x="-10" y="917" type="line"/>
      <point x="695" y="917" type="line"/>
      <point x="695" y="-213" type="line"/>
      <point x="-10" y="-213" type="line"/>
    </contour>
  </outline>
</glyph>
